<svg width="7" height="6" viewBox="0 0 7 6" fill="none" xmlns="http://www.w3.org/2000/svg">
<path d="M2.59075 5.31539C2.56175 5.28714 2.43775 5.18047 2.33575 5.0811C1.69425 4.49854 0.64425 2.97881 0.32375 2.18339C0.27225 2.06259 0.16325 1.75718 0.15625 1.59401C0.15625 1.43765 0.19225 1.2886 0.26525 1.14637C0.36725 0.96907 0.52775 0.826839 0.71725 0.748904C0.84875 0.698734 1.24225 0.620799 1.24925 0.620799C1.67975 0.542864 2.37925 0.5 3.15225 0.5C3.88875 0.5 4.55975 0.542864 4.99675 0.606673C5.00375 0.61398 5.49275 0.691914 5.66025 0.777155C5.96625 0.933512 6.15625 1.23892 6.15625 1.56576V1.59401C6.14875 1.80687 5.95875 2.25451 5.95175 2.25451C5.63075 3.00706 4.63225 4.49172 3.96875 5.08841C3.96875 5.08841 3.79825 5.25645 3.69175 5.32952C3.53875 5.4435 3.34925 5.5 3.15975 5.5C2.94825 5.5 2.75125 5.43619 2.59075 5.31539Z" fill="#9191AC"/>
</svg>
