<svg width="24" height="25" viewBox="0 0 24 25" fill="none" xmlns="http://www.w3.org/2000/svg">
<path fill-rule="evenodd" clip-rule="evenodd" d="M12 2.5C17.514 2.5 22 6.986 22 12.5C22 18.014 17.514 22.5 12 22.5C6.486 22.5 2 18.014 2 12.5C2 6.986 6.486 2.5 12 2.5ZM12 4C7.313 4 3.5 7.813 3.5 12.5C3.5 17.187 7.313 21 12 21C16.687 21 20.5 17.187 20.5 12.5C20.5 7.813 16.687 4 12 4ZM16.001 10.5259C16.294 10.8179 16.295 11.2929 16.003 11.5869L12.531 15.0729C12.419 15.1865 12.2737 15.2598 12.1182 15.2845L12 15.2939C11.801 15.2939 11.609 15.2149 11.469 15.0729L7.998 11.5869C7.705 11.2929 7.707 10.8179 8 10.5259C8.294 10.2339 8.769 10.2339 9.061 10.5279L12 13.4819L14.94 10.5279C15.232 10.2339 15.707 10.2339 16.001 10.5259Z" fill="#347AFB"/>
</svg>
