<svg width="31" height="31" viewBox="0 0 31 31" fill="none" xmlns="http://www.w3.org/2000/svg">
<g clip-path="url(#clip0)">
<path d="M19.7686 16.4375L25.8623 26.75L22.5811 26.2812L20.7061 29.0937L14.6123 18.7812L19.7686 16.4375Z" fill="#9C71EB"/>
<path d="M10.3936 16.4375L4.2998 26.75L7.58105 26.2812L9.45605 29.0937L15.5498 18.7812L10.3936 16.4375Z" fill="#9C71EB"/>
<path d="M16.8648 4.33237C17.4578 4.73776 18.1713 4.92893 18.8875 4.87436C19.5219 4.82602 20.1561 4.97034 20.707 5.28844C21.258 5.60654 21.7001 6.08359 21.9754 6.65714C22.2862 7.30472 22.8085 7.82701 23.4561 8.13786C24.0297 8.41318 24.5067 8.85526 24.8248 9.40624C25.1429 9.95721 25.2872 10.5914 25.2389 11.2257C25.1843 11.942 25.3755 12.6555 25.7809 13.2485C26.1399 13.7737 26.332 14.395 26.332 15.0312C26.332 15.6674 26.1399 16.2888 25.7809 16.814C25.3755 17.407 25.1843 18.1205 25.2389 18.8367C25.2872 19.4711 25.1429 20.1053 24.8248 20.6562C24.5067 21.2072 24.0297 21.6493 23.4561 21.9246C22.8085 22.2355 22.2862 22.7578 21.9754 23.4053C21.7001 23.9789 21.258 24.4559 20.707 24.774C20.1561 25.0921 19.5219 25.2365 18.8875 25.1881C18.1713 25.1335 17.4578 25.3247 16.8648 25.7301C16.3396 26.0891 15.7182 26.2812 15.082 26.2812C14.4458 26.2812 13.8245 26.0891 13.2992 25.7301C12.7062 25.3247 11.9928 25.1335 11.2765 25.1881C10.6422 25.2365 10.008 25.0921 9.45702 24.774C8.90605 24.4559 8.46396 23.9789 8.18864 23.4053C7.87779 22.7578 7.3555 22.2355 6.70792 21.9246C6.13437 21.6493 5.65732 21.2072 5.33923 20.6562C5.02113 20.1053 4.8768 19.4711 4.92515 18.8367C4.97971 18.1205 4.78854 17.407 4.38315 16.814C4.02412 16.2888 3.83203 15.6674 3.83203 15.0312C3.83203 14.395 4.02412 13.7737 4.38315 13.2485C4.78854 12.6555 4.97971 11.942 4.92515 11.2257C4.8768 10.5914 5.02113 9.95721 5.33923 9.40624C5.65732 8.85526 6.13437 8.41318 6.70792 8.13786C7.3555 7.82701 7.87779 7.30472 8.18864 6.65714C8.46396 6.08359 8.90605 5.60654 9.45702 5.28844C10.008 4.97034 10.6422 4.82602 11.2765 4.87436C11.9928 4.92893 12.7062 4.73776 13.2992 4.33237C13.8245 3.97334 14.4458 3.78125 15.082 3.78125C15.7182 3.78125 16.3396 3.97334 16.8648 4.33237Z" fill="#FFB800"/>
<path d="M15.0811 23.4688C19.741 23.4688 23.5186 19.6912 23.5186 15.0312C23.5186 10.3713 19.741 6.59375 15.0811 6.59375C10.4212 6.59375 6.64355 10.3713 6.64355 15.0312C6.64355 19.6912 10.4212 23.4688 15.0811 23.4688Z" fill="#FF9100"/>
<path d="M9.45605 12.2H13.69V18.7814H9.45605V12.2Z" fill="#426887"/>
<path d="M16.9877 12.233L17.5571 10.4571C17.6003 10.3225 17.6153 10.1804 17.6014 10.0396C17.5874 9.8989 17.5447 9.76253 17.476 9.63895C17.4072 9.51538 17.3138 9.40723 17.2016 9.32119C17.0893 9.23516 16.9606 9.17307 16.8234 9.13877C16.5953 9.08173 16.3545 9.10421 16.1408 9.20249C15.9271 9.30078 15.7533 9.46899 15.6482 9.67935L15.0815 10.8126L13.6904 12.2188V18.7813H18.8315C19.2045 18.7813 19.5621 18.6331 19.8259 18.3694C20.0896 18.1057 20.2378 17.748 20.2378 17.375V14.5625L20.5867 13.8645C20.6655 13.707 20.7065 13.5334 20.7065 13.3573C20.7065 13.208 20.677 13.0602 20.6198 12.9223C20.5625 12.7844 20.4786 12.6592 20.3728 12.5538C20.267 12.4484 20.1415 12.365 20.0034 12.3082C19.8653 12.2515 19.7173 12.2226 19.568 12.2231L16.9877 12.233Z" fill="#FDC8A2"/>
<path d="M11.5654 15.9688C11.4264 15.9688 11.2904 16.01 11.1748 16.0872C11.0592 16.1645 10.969 16.2743 10.9158 16.4028C10.8626 16.5313 10.8487 16.6727 10.8758 16.809C10.9029 16.9454 10.9699 17.0707 11.0682 17.1691C11.1666 17.2674 11.2919 17.3344 11.4283 17.3615C11.5647 17.3886 11.706 17.3747 11.8345 17.3215C11.963 17.2683 12.0728 17.1781 12.1501 17.0625C12.2273 16.9469 12.2686 16.8109 12.2686 16.6719C12.2684 16.4855 12.1942 16.3067 12.0624 16.1749C11.9306 16.0431 11.7519 15.969 11.5654 15.9688Z" fill="#2F3144"/>
<path d="M1.01855 15.0312H2.4248V15.9688H1.01855V15.0312Z" fill="#FFC103"/>
<path d="M2.32715 3.40991L2.98996 2.7471L6.50506 6.2622L5.84225 6.92501L2.32715 3.40991Z" fill="#FFC103"/>
<path d="M0.6875 1.76904L1.35031 1.10623L2.28765 2.04357L1.62484 2.70638L0.6875 1.76904Z" fill="#FFC103"/>
<path d="M0.835938 9.83862L1.20906 8.978L4.02293 10.198L3.64981 11.0586L0.835938 9.83862Z" fill="#FFC103"/>
<path d="M0.823242 21.165L3.63515 19.8522L4.03172 20.7016L1.21981 22.0144L0.823242 21.165Z" fill="#FFC103"/>
<path d="M0.683594 29.2292L3.02701 26.8858L3.68982 27.5487L1.34641 29.8921L0.683594 29.2292Z" fill="#FFC103"/>
<path d="M14.6123 27.6875H15.5498V29.5625H14.6123V27.6875Z" fill="#FFC103"/>
<path d="M14.6123 1.4375H15.5498V2.375H14.6123V1.4375Z" fill="#FFC103"/>
<path d="M8.5625 1.62085L9.42318 1.2477L10.3616 3.41217L9.50091 3.78532L8.5625 1.62085Z" fill="#FFC103"/>
<path d="M27.7373 15.0312H29.1436V15.9688H27.7373V15.0312Z" fill="#FFC103"/>
<path d="M23.6533 6.2644L27.1684 2.7493L27.8312 3.41211L24.3161 6.92722L23.6533 6.2644Z" fill="#FFC103"/>
<path d="M27.873 2.04736L28.8104 1.11002L29.4732 1.77284L28.5359 2.71018L27.873 2.04736Z" fill="#FFC103"/>
<path d="M26.1602 10.1887L28.974 8.96877L29.3471 9.82939L26.5333 11.0493L26.1602 10.1887Z" fill="#FFC103"/>
<path d="M26.1328 20.7134L26.5294 19.864L29.3413 21.1768L28.9447 22.0262L26.1328 20.7134Z" fill="#FFC103"/>
<path d="M26.4629 27.5503L27.1257 26.8875L29.4691 29.2309L28.8063 29.8937L26.4629 27.5503Z" fill="#FFC103"/>
<path d="M19.8164 3.40698L20.7548 1.24251L21.6155 1.61566L20.6771 3.78013L19.8164 3.40698Z" fill="#FFC103"/>
</g>
<defs>
<clipPath id="clip0">
<rect width="30" height="30" fill="white" transform="translate(0.0810547 0.5)"/>
</clipPath>
</defs>
</svg>
