<svg width="273" height="270" viewBox="0 0 273 270" fill="none" xmlns="http://www.w3.org/2000/svg">
<path opacity="0.1" d="M0.525391 0H242.002C258.57 0 272.002 13.4315 272.002 30V270H200.525C90.0685 270 0.525391 180.457 0.525391 70V0Z" fill="#B6EFF7"/>
<g opacity="0.2">
<path d="M209.608 60.4546H188.605C187.266 60.4546 186.18 61.5382 186.18 62.8754C186.18 64.2127 187.266 65.2963 188.605 65.2963H209.608C210.947 65.2963 212.033 64.2127 212.033 62.8754C212.033 61.5382 210.947 60.4546 209.608 60.4546Z" fill="white"/>
<path d="M209.608 72.2029H188.605C187.266 72.2029 186.18 73.2864 186.18 74.6237C186.18 75.961 187.266 77.0445 188.605 77.0445H209.608C210.947 77.0445 212.033 75.961 212.033 74.6237C212.033 73.2864 210.947 72.2029 209.608 72.2029Z" fill="white"/>
<path d="M209.608 83.9504H188.605C187.266 83.9504 186.18 85.034 186.18 86.3713C186.18 87.7085 187.266 88.7921 188.605 88.7921H209.608C210.947 88.7921 212.033 87.7085 212.033 86.3713C212.033 85.034 210.947 83.9504 209.608 83.9504Z" fill="white"/>
<path d="M232.126 99.841L227.887 99.8475V48.8286C227.887 45.8513 225.456 43.4288 222.468 43.4288H221.303V34.9023C221.303 31.6477 218.646 29 215.38 29H115.805C112.539 29 109.882 31.6477 109.882 34.9023V119.725C105.284 120.262 101.703 124.172 101.703 128.904V175.774C101.703 180.872 105.858 185.019 110.964 185.019H130.838C132.178 185.019 133.264 183.935 133.264 182.598C133.264 181.261 132.178 180.177 130.838 180.177H110.964C108.532 180.177 106.553 178.202 106.553 175.774V128.904C106.553 126.476 108.532 124.501 110.964 124.501H169.654C174.644 124.501 180.843 124.501 182.062 117.352L185.163 108.001C186.234 104.758 187.467 104.754 189.169 104.748L232.131 104.683C235.452 104.683 238.155 107.38 238.155 110.696V175.774C238.155 178.202 236.177 180.177 233.744 180.177H229.342V155.788C229.342 150.768 225.251 146.684 220.221 146.684H219.718V140.316C219.718 134.131 214.68 129.099 208.489 129.099H194.471C188.274 129.099 183.233 134.131 183.233 140.316V146.684H182.729C177.7 146.684 173.608 150.768 173.608 155.788V180.177H143.494C142.155 180.177 141.069 181.261 141.069 182.598C141.069 183.935 142.155 185.019 143.494 185.019H173.608V185.158C173.608 190.178 177.7 194.263 182.729 194.263H220.22C225.25 194.263 229.342 190.178 229.342 185.158V185.019H233.743C238.85 185.019 243.005 180.872 243.005 175.774V110.696C243.005 104.71 238.127 99.841 232.126 99.841ZM189.156 99.9062C185.975 99.9175 182.466 100.708 180.558 106.481L177.396 116.013C177.354 116.142 177.322 116.274 177.302 116.407C176.876 119.173 175.732 119.66 169.654 119.66H129.841V48.8286C129.841 48.5261 130.101 48.2705 130.41 48.2705H154.816C156.155 48.2705 157.241 47.1869 157.241 45.8497C157.241 44.5124 156.155 43.4288 154.816 43.4288H130.41C127.422 43.4288 124.991 45.8513 124.991 48.8286V119.66H114.732V34.9023C114.732 34.3274 115.223 33.8417 115.805 33.8417H215.38C215.962 33.8417 216.453 34.3274 216.453 34.9023V43.4288H166.213C164.873 43.4288 163.788 44.5124 163.788 45.8497C163.788 47.1869 164.873 48.2705 166.213 48.2705H222.468C222.777 48.2705 223.037 48.5261 223.037 48.8286V99.8549L189.156 99.9062ZM188.083 140.316C188.083 136.8 190.949 133.94 194.471 133.94H208.489C212.006 133.94 214.868 136.8 214.868 140.316V146.684H188.084V140.316H188.083ZM224.492 185.158C224.492 187.508 222.576 189.421 220.221 189.421H182.73C180.375 189.421 178.458 187.508 178.458 185.158V155.788C178.458 153.438 180.375 151.525 182.73 151.525H220.221C222.576 151.525 224.492 153.438 224.492 155.788V185.158Z" fill="white"/>
<path d="M201.475 160.219C196.893 160.219 193.166 163.944 193.166 168.523C193.166 172.255 195.648 175.418 199.05 176.456V181.555C199.05 182.892 200.136 183.976 201.475 183.976C202.815 183.976 203.9 182.892 203.9 181.555V176.456C207.303 175.418 209.785 172.255 209.785 168.523C209.785 163.944 206.057 160.219 201.475 160.219ZM201.475 171.976C199.568 171.976 198.016 170.427 198.016 168.523C198.016 166.613 199.568 165.06 201.475 165.06C203.383 165.06 204.935 166.613 204.935 168.523C204.935 170.427 203.383 171.976 201.475 171.976Z" fill="white"/>
</g>
<path d="M172.578 67.0843C172.518 67.0813 172.454 67.0784 172.391 67.0733C166.862 66.5949 163.033 64.8161 159.963 61.292L159.908 61.2262C159.355 60.5622 158.666 60.2291 157.891 60.2362C157.107 60.2433 156.435 60.5877 155.895 61.26L155.846 61.3204C152.791 64.8209 148.962 66.5952 143.439 67.073C143.371 67.0791 143.306 67.0817 143.247 67.0846C140.595 67.2176 140.21 69.2046 140.167 70.0496C139.468 83.6121 144.63 93.532 156.422 101.275C156.888 101.6 157.398 101.762 157.91 101.762C158.424 101.762 158.94 101.598 159.412 101.269C171.193 93.5453 176.359 83.6257 175.666 70.0228C175.612 69.183 175.206 67.2163 172.578 67.0843ZM157.913 96.4341C148.832 90.0848 144.787 82.3904 144.96 71.7833C150.321 71.1461 154.509 69.3288 157.917 66.1443C161.325 69.3295 165.511 71.1474 170.872 71.7842C171.04 82.393 166.995 90.0877 157.913 96.4341Z" fill="white"/>
</svg>
