<svg width="20" height="16" viewBox="0 0 20 16" fill="none" xmlns="http://www.w3.org/2000/svg">
<path d="M2.5 13.625H1.5625C1.47962 13.625 1.40013 13.6579 1.34153 13.7165C1.28292 13.7751 1.25 13.8546 1.25 13.9375C1.25 14.0204 1.28292 14.0999 1.34153 14.1585C1.40013 14.2171 1.47962 14.25 1.5625 14.25H2.5C2.58288 14.25 2.66237 14.2171 2.72097 14.1585C2.77958 14.0999 2.8125 14.0204 2.8125 13.9375C2.8125 13.8546 2.77958 13.7751 2.72097 13.7165C2.66237 13.6579 2.58288 13.625 2.5 13.625Z" fill="#0167FF"/>
<path d="M3.75 13.625H3.4375C3.35462 13.625 3.27513 13.6579 3.21653 13.7165C3.15792 13.7751 3.125 13.8546 3.125 13.9375C3.125 14.0204 3.15792 14.0999 3.21653 14.1585C3.27513 14.2171 3.35462 14.25 3.4375 14.25H3.75C3.83288 14.25 3.91237 14.2171 3.97097 14.1585C4.02958 14.0999 4.0625 14.0204 4.0625 13.9375C4.0625 13.8546 4.02958 13.7751 3.97097 13.7165C3.91237 13.6579 3.83288 13.625 3.75 13.625Z" fill="#0167FF"/>
<path d="M18.4375 4.5625H17.8125V2.0625C17.8121 1.73111 17.6802 1.41342 17.4459 1.1791C17.2116 0.94477 16.8939 0.812934 16.5625 0.8125H3.4375C3.10609 0.812872 2.78837 0.944688 2.55403 1.17903C2.31969 1.41337 2.18787 1.73109 2.1875 2.0625V7.6875H1.5625C1.23109 7.68787 0.913367 7.81969 0.679028 8.05403C0.444688 8.28837 0.312872 8.60609 0.3125 8.9375V13.9375C0.312872 14.2689 0.444688 14.5866 0.679028 14.821C0.913367 15.0553 1.23109 15.1871 1.5625 15.1875H4.6875C5.01889 15.1871 5.33658 15.0552 5.5709 14.8209C5.80523 14.5866 5.93707 14.2689 5.9375 13.9375V13H8.66211L8.50586 13.625H7.5C7.41712 13.625 7.33763 13.6579 7.27903 13.7165C7.22042 13.7751 7.1875 13.8546 7.1875 13.9375V14.875C7.1875 14.9579 7.22042 15.0374 7.27903 15.096C7.33763 15.1546 7.41712 15.1875 7.5 15.1875H18.4375C18.7689 15.1871 19.0866 15.0552 19.3209 14.8209C19.5552 14.5866 19.6871 14.2689 19.6875 13.9375V5.8125C19.6871 5.48111 19.5552 5.16342 19.3209 4.9291C19.0866 4.69477 18.7689 4.56293 18.4375 4.5625ZM5.3125 13.9375C5.31228 14.1032 5.24637 14.262 5.1292 14.3792C5.01204 14.4964 4.85319 14.5623 4.6875 14.5625H1.5625C1.39681 14.5623 1.23796 14.4964 1.1208 14.3792C1.00363 14.262 0.937717 14.1032 0.9375 13.9375V8.9375C0.937717 8.77181 1.00363 8.61296 1.1208 8.4958C1.23796 8.37863 1.39681 8.31272 1.5625 8.3125H1.96211L2.20352 9.03633C2.22426 9.09855 2.26406 9.15267 2.31727 9.19102C2.37048 9.22937 2.43441 9.25 2.5 9.25H3.75C3.81559 9.25 3.87952 9.22937 3.93273 9.19102C3.98594 9.15267 4.02574 9.09855 4.04648 9.03633L4.28789 8.3125H4.6875C4.85319 8.31272 5.01204 8.37863 5.1292 8.4958C5.24637 8.61296 5.31228 8.77181 5.3125 8.9375V13.9375ZM2.62109 8.3125H3.62891L3.52461 8.625H2.72539L2.62109 8.3125ZM5.9375 12.375V11.4375H11.5625V12.375H5.9375ZM11.5625 13V13.625H11.4941L11.3379 13H11.5625ZM10.8496 13.625H9.15039L9.30664 13H10.6934L10.8496 13.625ZM7.8125 14.5625V14.25H11.602C11.6306 14.3595 11.6739 14.4647 11.7309 14.5625H7.8125ZM11.5625 5.8125V10.8125H5.9375V8.9375C5.93707 8.60611 5.80523 8.28842 5.5709 8.0541C5.33658 7.81977 5.01889 7.68793 4.6875 7.6875H2.8125V2.0625C2.81272 1.89681 2.87863 1.73796 2.9958 1.6208C3.11296 1.50363 3.27181 1.43772 3.4375 1.4375H16.5625C16.7282 1.43772 16.887 1.50363 17.0042 1.6208C17.1214 1.73796 17.1873 1.89681 17.1875 2.0625V4.5625H12.8125C12.4811 4.56293 12.1634 4.69477 11.9291 4.9291C11.6948 5.16342 11.5629 5.48111 11.5625 5.8125ZM19.0625 13.9375C19.0623 14.1032 18.9964 14.262 18.8792 14.3792C18.762 14.4964 18.6032 14.5623 18.4375 14.5625H12.8125C12.6468 14.5623 12.488 14.4964 12.3708 14.3792C12.2536 14.262 12.1877 14.1032 12.1875 13.9375V5.8125C12.1877 5.64681 12.2536 5.48796 12.3708 5.3708C12.488 5.25363 12.6468 5.18772 12.8125 5.1875H18.4375C18.6032 5.18772 18.762 5.25363 18.8792 5.3708C18.9964 5.48796 19.0623 5.64681 19.0625 5.8125V13.9375Z" fill="#0167FF"/>
<path d="M18.4375 5.5H12.8125C12.7296 5.5 12.6501 5.53292 12.5915 5.59153C12.5329 5.65013 12.5 5.72962 12.5 5.8125V13C12.5 13.0829 12.5329 13.1624 12.5915 13.221C12.6501 13.2796 12.7296 13.3125 12.8125 13.3125H18.4375C18.5204 13.3125 18.5999 13.2796 18.6585 13.221C18.7171 13.1624 18.75 13.0829 18.75 13V5.8125C18.75 5.72962 18.7171 5.65013 18.6585 5.59153C18.5999 5.53292 18.5204 5.5 18.4375 5.5ZM18.125 12.6875H13.125V6.125H18.125V12.6875Z" fill="#0167FF"/>
<path d="M15.3125 14.25C15.4851 14.25 15.625 14.1101 15.625 13.9375C15.625 13.7649 15.4851 13.625 15.3125 13.625C15.1399 13.625 15 13.7649 15 13.9375C15 14.1101 15.1399 14.25 15.3125 14.25Z" fill="#0167FF"/>
</svg>
