<svg width="20" height="20" viewBox="0 0 20 20" fill="none" xmlns="http://www.w3.org/2000/svg">
<g clip-path="url(#clip0)">
<path d="M18.9586 17.0869H18.4438C18.0866 16.2382 18.0864 15.4101 18.4434 14.5657H18.9586C19.5329 14.5657 20 14.0986 20 13.5243C20 12.9501 19.5329 12.4829 18.9586 12.4829H16.8868C17.1505 12.1817 17.3109 11.7878 17.3109 11.3569V8.09401C17.3109 7.15002 16.5429 6.38205 15.599 6.38205H14.7565C14.828 6.23955 14.8685 6.07889 14.8685 5.90889C14.8685 5.32424 14.3934 4.84858 13.8094 4.84858H13.5196C13.261 4.20924 13.2608 3.58479 13.5192 2.94955H13.8094C14.3934 2.94955 14.8685 2.47389 14.8685 1.88924C14.8685 1.30526 14.3934 0.830139 13.8094 0.830139H3.92648C2.23398 0.830139 0.857031 2.20658 0.857031 3.89846C0.857031 4.71666 1.1768 5.48701 1.75734 6.0676C1.87277 6.18303 1.99598 6.28768 2.12527 6.38201H1.8984C1.32418 6.38201 0.857031 6.84916 0.857031 7.42342C0.857031 7.99768 1.32418 8.46483 1.8984 8.46483H2.41363C2.77059 9.30916 2.77047 10.1373 2.41324 10.986H1.8984C1.32418 10.986 0.857031 11.4531 0.857031 12.0274C0.857031 12.2471 0.925586 12.4509 1.04215 12.6191C0.430117 12.8802 0 13.4882 0 14.1949V17.4578C0 18.4018 0.767422 19.1697 1.7107 19.1697H18.9586C19.5328 19.1697 20 18.7026 20 18.1283C20 17.5541 19.5329 17.0869 18.9586 17.0869ZM18.9586 13.0688C19.2098 13.0688 19.4141 13.2732 19.4141 13.5243C19.4141 13.7755 19.2098 13.9798 18.9586 13.9798H13.6713C13.5094 13.9798 13.3783 14.111 13.3783 14.2728C13.3783 14.4346 13.5094 14.5657 13.6713 14.5657H17.8149C17.7004 14.8873 17.6304 15.2101 17.604 15.5333C17.604 15.5333 17.487 16.1132 17.8155 17.0869H2.16758C2.12164 17.0869 2.08281 17.0481 2.08281 17.0021V14.6505C2.08281 14.6046 2.12164 14.5658 2.16758 14.5658H5.06996L5.07016 15.528C5.05168 15.816 5.19234 15.9295 5.27871 15.9717C5.36625 16.0145 5.54609 16.056 5.76738 15.8537C5.76891 15.8523 5.77043 15.8509 5.77191 15.8495L6.59082 15.0684L7.40973 15.8495C7.41121 15.8509 7.41273 15.8523 7.41426 15.8537C7.54379 15.9721 7.6591 16.0071 7.75016 16.0071C7.8152 16.0071 7.86785 15.9892 7.90441 15.9712C7.9909 15.9286 8.13137 15.8146 8.11148 15.5272L8.11188 14.5658H12.2288C12.3906 14.5658 12.5217 14.4346 12.5217 14.2728C12.5217 14.111 12.3906 13.9798 12.2288 13.9798H8.11207L8.11246 13.0689H18.9586V13.0688ZM3.2532 9.43252C3.2268 9.10928 3.15543 8.78651 3.04102 8.4649H15.1434C15.1893 8.4649 15.2282 8.50373 15.2282 8.54967V10.9012C15.2282 10.9472 15.1893 10.986 15.1434 10.986H8.11332L8.11371 10.0184H10.1641C10.3259 10.0184 10.457 9.88721 10.457 9.72541C10.457 9.56361 10.3259 9.43244 10.1641 9.43244H3.2532V9.43252ZM5.06922 10.986H3.04035C3.15469 10.664 3.22617 10.3412 3.25289 10.0184H5.06902L5.06922 10.986ZM7.52777 10.0185L7.52566 15.1503L6.79297 14.4515C6.6798 14.3435 6.50176 14.3435 6.38855 14.4515L5.65598 15.1503L5.65492 10.0184H7.52777V10.0185ZM1.44297 3.8985C1.44297 2.52971 2.55707 1.41612 3.92648 1.41612H13.8094C14.0703 1.41612 14.2825 1.62838 14.2825 1.88928C14.2825 2.15084 14.0703 2.36365 13.8094 2.36365H8.40871C8.24691 2.36365 8.11574 2.49483 8.11574 2.65662C8.11574 2.81842 8.24691 2.94959 8.40871 2.94959H12.8949C12.6881 3.57983 12.6884 4.21565 12.8957 4.84862H3.92648C3.67453 4.84862 3.43598 4.74936 3.2559 4.57018C3.07566 4.38901 2.97641 4.15049 2.97641 3.8985C2.97641 3.37526 3.40262 2.94959 3.92648 2.94959H6.96621C7.12801 2.94959 7.25918 2.81842 7.25918 2.65662C7.25918 2.49483 7.12801 2.36365 6.96621 2.36365H3.92648C3.07953 2.36365 2.39047 3.05217 2.39047 3.8985C2.39047 4.30643 2.55031 4.69174 2.84156 4.98447C3.13328 5.27471 3.51855 5.43455 3.92648 5.43455H13.8094C14.0703 5.43455 14.2825 5.64737 14.2825 5.90893C14.2825 6.16983 14.0703 6.38209 13.8094 6.38209H3.92648C3.2648 6.38209 2.6416 6.1233 2.17168 5.65334C1.70176 5.18342 1.44297 4.56022 1.44297 3.8985ZM1.8984 7.87897C1.64727 7.87897 1.44297 7.67467 1.44297 7.4235C1.44297 7.17236 1.64727 6.96803 1.8984 6.96803H15.599C16.2198 6.96803 16.7249 7.47315 16.7249 8.09404V11.3569C16.7249 11.9778 16.2198 12.483 15.599 12.483H8.1127L8.11309 11.572H15.1433C15.5132 11.572 15.8141 11.2711 15.8141 10.9013V8.54975C15.8141 8.1799 15.5132 7.87904 15.1433 7.87904H1.8984V7.87897ZM1.8984 11.572H5.06934L5.06953 12.4829H1.89844C1.6473 12.4829 1.44301 12.2786 1.44301 12.0274C1.44297 11.7763 1.64727 11.572 1.8984 11.572ZM18.9586 18.5838H1.7107C1.09051 18.5838 0.585938 18.0787 0.585938 17.4578V14.1949C0.585938 13.574 1.09051 13.0688 1.7107 13.0688H5.06961L5.0698 13.9798H2.16758C1.79773 13.9798 1.49688 14.2807 1.49688 14.6505V17.0021C1.49688 17.3719 1.79777 17.6728 2.16758 17.6728H18.9586C19.2098 17.6728 19.4141 17.8771 19.4141 18.1283C19.4141 18.3794 19.2098 18.5838 18.9586 18.5838Z" fill="#0167FF"/>
</g>
<defs>
<clipPath id="clip0">
<rect width="20" height="20" fill="white"/>
</clipPath>
</defs>
</svg>
