<svg width="20" height="20" viewBox="0 0 20 20" fill="none" xmlns="http://www.w3.org/2000/svg">
<path d="M10.0001 0.833374C9.44755 0.833374 8.91764 1.05287 8.52694 1.44357C8.13624 1.83427 7.91675 2.36417 7.91675 2.91671V3.01254C7.08861 3.20129 6.34908 3.66559 5.81922 4.32943C5.28935 4.99327 5.00055 5.81733 5.00008 6.66671V7.40837C4.78736 7.84405 4.60091 8.29208 4.44175 8.75004H2.50008C2.38957 8.75004 2.28359 8.79394 2.20545 8.87208C2.12731 8.95022 2.08341 9.0562 2.08341 9.16671V12.825C1.95317 12.9415 1.84879 13.084 1.77702 13.2434C1.70525 13.4027 1.66769 13.5753 1.66675 13.75V15.8334C1.66675 16.2754 1.84234 16.6993 2.1549 17.0119C2.46746 17.3244 2.89139 17.5 3.33341 17.5H3.79175C3.8878 17.9706 4.14349 18.3935 4.51554 18.6973C4.88759 19.001 5.35314 19.1668 5.83342 19.1667H14.1667C14.647 19.1668 15.1126 19.001 15.4846 18.6973C15.8567 18.3935 16.1124 17.9706 16.2084 17.5H16.6667C17.1088 17.5 17.5327 17.3244 17.8453 17.0119C18.1578 16.6993 18.3334 16.2754 18.3334 15.8334V13.75C18.3325 13.5753 18.2949 13.4027 18.2231 13.2434C18.1514 13.084 18.047 12.9415 17.9167 12.825V10.8334C17.9187 10.821 17.9187 10.8083 17.9167 10.7959C17.9207 10.7682 17.9207 10.7402 17.9167 10.7125C17.9088 10.6869 17.8991 10.6618 17.8876 10.6375C17.8876 10.6375 17.8876 10.6125 17.8876 10.6042L17.0542 9.35421C17.0128 9.29064 16.9549 9.23958 16.8866 9.20654C16.8183 9.1735 16.7423 9.15972 16.6667 9.16671H15.6959C15.5104 8.56328 15.2777 7.97536 15.0001 7.40837V6.66671C14.9996 5.81733 14.7108 4.99327 14.1809 4.32943C13.6511 3.66559 12.9116 3.20129 12.0834 3.01254V2.91671C12.0834 2.36417 11.8639 1.83427 11.4732 1.44357C11.0825 1.05287 10.5526 0.833374 10.0001 0.833374ZM3.75008 16.6667H3.33341C3.1124 16.6667 2.90044 16.5789 2.74416 16.4226C2.58788 16.2664 2.50008 16.0544 2.50008 15.8334V13.75C2.50008 13.6395 2.54398 13.5336 2.62212 13.4554C2.70026 13.3773 2.80624 13.3334 2.91675 13.3334H3.75008V16.6667ZM3.75008 12.5H2.91675V9.58337H4.16675C3.91178 10.5354 3.77189 11.5147 3.75008 12.5ZM17.5001 13.75V15.8334C17.5001 16.0544 17.4123 16.2664 17.256 16.4226C17.0997 16.5789 16.8878 16.6667 16.6667 16.6667H16.2501V13.3334H17.0834C17.1939 13.3334 17.2999 13.3773 17.378 13.4554C17.4562 13.5336 17.5001 13.6395 17.5001 13.75ZM17.0834 11.25V12.5H16.2501C16.2501 12.0834 16.2084 11.6667 16.1584 11.25H17.0834ZM16.4417 10L16.7209 10.4167H16.0084C15.9834 10.2792 15.9584 10.1375 15.9251 10H16.4417ZM10.0001 1.66671C10.3316 1.66671 10.6495 1.7984 10.884 2.03282C11.1184 2.26724 11.2501 2.58519 11.2501 2.91671H8.75008C8.75008 2.58519 8.88178 2.26724 9.1162 2.03282C9.35062 1.7984 9.66856 1.66671 10.0001 1.66671ZM14.6417 8.67087C15.1501 9.98693 15.4128 11.3851 15.4167 12.7959V17.0834C15.4167 17.4149 15.2851 17.7328 15.0506 17.9673C14.8162 18.2017 14.4983 18.3334 14.1667 18.3334H5.83342C5.50189 18.3334 5.18395 18.2017 4.94953 17.9673C4.71511 17.7328 4.58341 17.4149 4.58341 17.0834V12.7959C4.58737 11.3851 4.85005 9.98693 5.35841 8.67087C5.5812 8.99491 5.89001 9.25032 6.25008 9.40837V10.8334C6.25008 11.1649 6.38178 11.4828 6.6162 11.7173C6.85062 11.9517 7.16856 12.0834 7.50008 12.0834C7.8316 12.0834 8.14954 11.9517 8.38397 11.7173C8.61839 11.4828 8.75008 11.1649 8.75008 10.8334V9.58337H11.2501V10.8334C11.2501 11.1649 11.3818 11.4828 11.6162 11.7173C11.8506 11.9517 12.1686 12.0834 12.5001 12.0834C12.8316 12.0834 13.1495 11.9517 13.384 11.7173C13.6184 11.4828 13.7501 11.1649 13.7501 10.8334V9.40837C14.1102 9.25032 14.419 8.99491 14.6417 8.67087ZM7.91675 9.58337V10.8334C7.91675 10.9439 7.87285 11.0499 7.79471 11.128C7.71657 11.2061 7.61059 11.25 7.50008 11.25C7.38958 11.25 7.28359 11.2061 7.20545 11.128C7.12731 11.0499 7.08342 10.9439 7.08342 10.8334V9.58337H7.91675ZM7.08342 8.75004V7.50004H7.91675V8.75004H7.08342ZM12.9167 9.58337V10.8334C12.9167 10.9439 12.8729 11.0499 12.7947 11.128C12.7166 11.2061 12.6106 11.25 12.5001 11.25C12.3896 11.25 12.2836 11.2061 12.2055 11.128C12.1273 11.0499 12.0834 10.9439 12.0834 10.8334V9.58337H12.9167ZM12.0834 8.75004V7.50004H12.9167V8.75004H12.0834ZM14.1667 6.66671V7.50004C14.1658 7.67478 14.1282 7.84739 14.0565 8.00671C13.9847 8.16604 13.8803 8.30855 13.7501 8.42504V7.08337C13.7501 6.97287 13.7062 6.86689 13.628 6.78875C13.5499 6.71061 13.4439 6.66671 13.3334 6.66671H11.6667C11.5562 6.66671 11.4503 6.71061 11.3721 6.78875C11.294 6.86689 11.2501 6.97287 11.2501 7.08337V8.75004H8.75008V7.08337C8.75008 6.97287 8.70618 6.86689 8.62804 6.78875C8.5499 6.71061 8.44392 6.66671 8.33342 6.66671H6.66675C6.55624 6.66671 6.45026 6.71061 6.37212 6.78875C6.29398 6.86689 6.25008 6.97287 6.25008 7.08337V8.42504C6.11983 8.30855 6.01546 8.16604 5.94369 8.00671C5.87192 7.84739 5.83435 7.67478 5.83342 7.50004V6.66671C5.83342 5.89316 6.14071 5.15129 6.68769 4.60431C7.23467 4.05733 7.97653 3.75004 8.75008 3.75004H11.2501C12.0236 3.75004 12.7655 4.05733 13.3125 4.60431C13.8595 5.15129 14.1667 5.89316 14.1667 6.66671Z" fill="#0167FF"/>
<path d="M5.41675 12.9167V16.6667C5.41675 16.7772 5.46065 16.8831 5.53879 16.9613C5.61693 17.0394 5.72291 17.0833 5.83342 17.0833C5.94392 17.0833 6.0499 17.0394 6.12804 16.9613C6.20618 16.8831 6.25008 16.7772 6.25008 16.6667V13.3333H13.7501V16.6667C13.7501 16.7772 13.794 16.8831 13.8721 16.9613C13.9503 17.0394 14.0563 17.0833 14.1668 17.0833C14.2773 17.0833 14.3833 17.0394 14.4614 16.9613C14.5395 16.8831 14.5834 16.7772 14.5834 16.6667V12.9167C14.5834 12.8062 14.5395 12.7002 14.4614 12.622C14.3833 12.5439 14.2773 12.5 14.1668 12.5H5.83342C5.72291 12.5 5.61693 12.5439 5.53879 12.622C5.46065 12.7002 5.41675 12.8062 5.41675 12.9167Z" fill="#0167FF"/>
<path d="M12.9168 14.1668H7.08342C6.97291 14.1668 6.86693 14.2107 6.78879 14.2888C6.71065 14.367 6.66675 14.473 6.66675 14.5835V15.8335C6.66675 16.386 6.88624 16.9159 7.27694 17.3066C7.66765 17.6973 8.19755 17.9168 8.75009 17.9168H11.2501C11.8026 17.9168 12.3325 17.6973 12.7232 17.3066C13.1139 16.9159 13.3334 16.386 13.3334 15.8335V14.5835C13.3334 14.473 13.2895 14.367 13.2114 14.2888C13.1333 14.2107 13.0273 14.1668 12.9168 14.1668ZM12.5001 15.8335C12.5001 16.165 12.3684 16.4829 12.134 16.7174C11.8996 16.9518 11.5816 17.0835 11.2501 17.0835H8.75009C8.41856 17.0835 8.10062 16.9518 7.8662 16.7174C7.63178 16.4829 7.50008 16.165 7.50008 15.8335V15.0001H12.5001V15.8335Z" fill="#0167FF"/>
</svg>
