<svg width="20" height="20" viewBox="0 0 20 20" fill="none" xmlns="http://www.w3.org/2000/svg">
<g clip-path="url(#clip0)">
<path d="M19.7071 14.3907C19.8689 14.3907 20 14.2596 20 14.0978V13.5312C20 12.9584 19.5627 12.4924 19.0252 12.4924H18.551V11.8921C18.551 11.4721 18.2093 11.1303 17.7893 11.1303H15.4311C15.011 11.1303 14.6693 11.4721 14.6693 11.8921V13.4554C12.5627 13.2097 9.94047 13.2093 7.83031 13.4554V11.8921C7.83031 11.4721 7.48856 11.1303 7.06856 11.1303H6.88223C8.48828 10.1523 10.2844 8.82613 11.6848 7.53453L12.6045 8.79875C12.8519 9.13898 13.3296 9.21332 13.6686 8.96671L15.5757 7.57961C15.5757 7.57961 15.5757 7.57961 15.5757 7.57957C15.9153 7.33254 15.9907 6.85516 15.7436 6.51543L15.3905 6.02996L15.7739 5.7511C16.2086 5.43485 16.2882 4.80078 15.9513 4.33758L14.3611 2.1513C14.0241 1.68817 13.3964 1.56853 12.9617 1.88474L12.5782 2.16368L12.2251 1.67825C11.9781 1.33849 11.5007 1.26321 11.161 1.51024L9.25391 2.89735C8.91426 3.14438 8.83891 3.62176 9.08598 3.96149L10.0055 5.22571C8.15688 6.26645 6.03653 7.80828 4.47489 9.24855L3.79844 8.31867C3.4175 7.79496 2.68047 7.67855 2.15684 8.05957L0.918326 8.96039C0.394342 9.3416 0.278131 10.078 0.659264 10.602L0.769185 10.7532L0.385787 11.032C-0.057611 11.3545 -0.121634 11.9918 0.208404 12.4455L1.79864 14.6317C1.97262 14.871 2.22762 15.0231 2.49958 15.0636V16.2346C2.49958 16.8074 2.93692 17.2734 3.47446 17.2734H3.9486V17.8736C3.9486 18.2937 4.29036 18.6354 4.71036 18.6354H7.06856C7.4886 18.6354 7.83031 18.2936 7.83031 17.8736V16.3105C8.66293 16.4074 9.59891 16.4683 10.5603 16.4876C10.5623 16.4877 10.5643 16.4877 10.5663 16.4877C10.7254 16.4877 10.8559 16.3603 10.8591 16.2006C10.8624 16.0388 10.7339 15.905 10.5721 15.9018C9.60274 15.8822 8.66106 15.8199 7.83031 15.7205V14.0452C9.90285 13.7968 12.5538 13.7916 14.6693 14.0452V15.7205C13.8386 15.8199 12.8969 15.8822 11.9275 15.9018C11.7658 15.905 11.6372 16.0388 11.6405 16.2005C11.6437 16.3603 11.7742 16.4877 11.9333 16.4877C11.9353 16.4877 11.9373 16.4877 11.9393 16.4876C12.9007 16.4683 13.8367 16.4074 14.6693 16.3105V17.8736C14.6693 18.2937 15.0111 18.6354 15.4311 18.6354H17.7893C18.2093 18.6354 18.551 18.2936 18.551 17.8736V17.2734H19.0252C19.5627 17.2734 20 16.8074 20 16.2346V15.4651C20 15.3032 19.8689 15.1721 19.7071 15.1721C19.5453 15.1721 19.4141 15.3032 19.4141 15.4651V16.2346C19.4141 16.48 19.236 16.6874 19.0252 16.6874H18.5511V13.0784H19.0252C19.236 13.0784 19.4141 13.2858 19.4141 13.5312V14.0978C19.4141 14.2596 19.5453 14.3907 19.7071 14.3907ZM13.3063 2.3586C13.4768 2.2347 13.7429 2.29755 13.8871 2.49602L15.4774 4.68231C15.6218 4.88075 15.5997 5.15324 15.4292 5.27723L15.0458 5.5561C14.8084 5.22961 13.1642 2.96919 12.9229 2.63747L13.3063 2.3586ZM9.55984 3.61688C9.50383 3.53981 9.52156 3.42735 9.59859 3.3713L11.5057 1.98415C11.583 1.92794 11.6954 1.9461 11.7512 2.02294C11.8698 2.18599 14.6027 5.94317 14.7442 6.13777C14.7443 6.13785 14.7443 6.13793 14.7444 6.13801L15.2697 6.86012C15.3257 6.93719 15.308 7.04965 15.2309 7.1057L13.3238 8.49285C13.2464 8.5491 13.1351 8.53215 13.0783 8.45406C12.9627 8.29519 9.69934 3.80864 9.55984 3.61688ZM10.3525 5.70274L11.338 7.05758C9.81371 8.47226 7.67567 10.0362 5.80719 11.0802L4.82184 9.72554C6.342 8.31457 8.48133 6.7482 10.3525 5.70274ZM2.49958 13.5312V14.4612C2.41243 14.4287 2.33188 14.3686 2.27258 14.2871L0.68235 12.1008C0.531373 11.8933 0.565123 11.6262 0.730514 11.5059L1.11391 11.227C1.1604 11.291 1.52434 11.7913 2.55016 13.2016C2.51524 13.3126 2.49958 13.4271 2.49958 13.5312ZM3.9486 16.6874H3.47446C3.26368 16.6874 3.08555 16.48 3.08555 16.2346C3.08555 15.9699 3.08555 13.8071 3.08555 13.5311C3.08555 13.4288 3.11934 13.3183 3.18625 13.2315C3.26594 13.1279 3.37372 13.0783 3.47446 13.0783H3.94856V16.6874H3.9486ZM3.9486 11.8921V12.4924H3.47446C3.45067 12.4924 3.42711 12.4936 3.40372 12.4954C3.39957 12.4957 3.39543 12.496 3.39129 12.4964C3.20989 12.5128 3.04254 12.5823 2.90297 12.6903L1.13317 10.2573C0.942076 9.9946 1.00032 9.62535 1.26301 9.43425L2.50153 8.53343C2.76305 8.34308 3.13418 8.40156 3.32454 8.66332C3.53786 8.95656 4.89067 10.8164 5.11895 11.1303H4.71032C4.29036 11.1303 3.9486 11.472 3.9486 11.8921ZM7.24438 17.8736C7.24438 17.9689 7.16387 18.0494 7.0686 18.0494H4.71039C4.61512 18.0494 4.53461 17.9689 4.53461 17.8736C4.53461 17.5979 4.53461 12.0719 4.53461 11.8921C4.53461 11.7968 4.61512 11.7163 4.71039 11.7163C5.30661 11.7163 5.63578 11.7163 5.80715 11.7163C5.93067 11.7163 5.97223 11.7163 5.97258 11.7163C6.14387 11.7163 6.47285 11.7163 7.0686 11.7163C7.16387 11.7163 7.24438 11.7968 7.24438 11.8921C7.24438 12.2546 7.24438 17.6507 7.24438 17.8736ZM17.9651 17.8736C17.9651 17.9689 17.8846 18.0494 17.7893 18.0494H15.4311C15.3358 18.0494 15.2553 17.9689 15.2553 17.8736V11.8921C15.2553 11.7968 15.3358 11.7163 15.4311 11.7163H17.7893C17.8846 11.7163 17.9651 11.7968 17.9651 11.8921C17.9651 12.253 17.9651 17.68 17.9651 17.8736Z" fill="#0167FF"/>
</g>
<defs>
<clipPath id="clip0">
<rect width="20" height="20" fill="white"/>
</clipPath>
</defs>
</svg>
