<svg width="20" height="20" viewBox="0 0 20 20" fill="none" xmlns="http://www.w3.org/2000/svg">
<g clip-path="url(#clip0)">
<path d="M13.1578 8.38785C13.112 8.24711 12.9907 8.14434 12.8444 8.12234L11.1262 7.86387L10.3494 6.30977C10.2832 6.17738 10.1479 6.09375 9.99994 6.09375C9.85198 6.09375 9.7167 6.17738 9.65053 6.30973L8.87365 7.86383L7.15549 8.1223C7.00916 8.1443 6.88783 8.24711 6.84213 8.38781C6.79642 8.52852 6.83408 8.68301 6.93951 8.78684L8.17748 10.0063L7.89271 11.7204C7.86846 11.8663 7.92877 12.0134 8.0485 12.1004C8.16818 12.1873 8.32682 12.1992 8.45807 12.131L9.99994 11.3304L11.5418 12.1311C11.5985 12.1605 11.6603 12.175 11.7218 12.175C11.8028 12.175 11.8834 12.1498 11.9514 12.1004C12.0711 12.0134 12.1314 11.8663 12.1072 11.7204L11.8224 10.0063L13.0604 8.78687C13.1658 8.68305 13.2035 8.52855 13.1578 8.38785ZM11.1297 9.59203C11.0392 9.68125 10.9977 9.80894 11.0185 9.93434L11.2084 11.0777L10.1799 10.5436C10.1235 10.5143 10.0617 10.4996 9.99994 10.4996C9.93815 10.4996 9.87635 10.5143 9.81994 10.5436L8.79147 11.0777L8.98139 9.93434C9.00221 9.80894 8.96072 9.68125 8.87018 9.59203L8.04439 8.77863L9.19049 8.60621C9.31623 8.5873 9.4249 8.50836 9.48178 8.39461L9.99994 7.35801L10.5181 8.39461C10.575 8.50836 10.6837 8.5873 10.8094 8.60621L11.9555 8.77863L11.1297 9.59203Z" fill="#0167FF"/>
<path d="M15.7812 13.4375C15.997 13.4375 16.1719 13.2626 16.1719 13.0469C16.1719 12.8311 15.997 12.6562 15.7812 12.6562C15.5655 12.6562 15.3906 12.8311 15.3906 13.0469C15.3906 13.2626 15.5655 13.4375 15.7812 13.4375Z" fill="#0167FF"/>
<path d="M15.8594 0H4.14062C2.63289 0 1.40625 1.22664 1.40625 2.73438V6.48438C1.40625 6.70012 1.58113 6.875 1.79688 6.875H4.03172C3.4823 11.2146 3.82285 16.0964 4.93914 19.7243C4.98957 19.8882 5.14102 20 5.3125 20H8.82812C9.04387 20 9.21875 19.8251 9.21875 19.6094V15.8594C9.21875 15.4286 9.56922 15.0781 10 15.0781C10.4308 15.0781 10.7812 15.4286 10.7812 15.8594V19.6094C10.7812 19.8251 10.9561 20 11.1719 20H14.6875C14.859 20 15.0104 19.8882 15.0609 19.7243C15.5055 18.2793 15.8293 16.6362 16.0234 14.8406C16.0466 14.6261 15.8915 14.4335 15.677 14.4103C15.4624 14.3871 15.2698 14.5422 15.2466 14.7567C15.0702 16.3891 14.7846 17.8885 14.3968 19.2188H11.5625V15.8594C11.5625 14.9979 10.8616 14.2969 10 14.2969C9.13844 14.2969 8.4375 14.9979 8.4375 15.8594V19.2188H5.60324C4.55926 15.637 4.27055 10.878 4.84609 6.67855C4.87898 6.62133 4.89805 6.55516 4.89805 6.48441C4.89805 6.45262 4.89383 6.42188 4.88664 6.39227C5.01137 5.54602 5.17027 4.74273 5.36035 4.00355C5.41406 3.79461 5.28824 3.58168 5.0793 3.52797C4.87027 3.4743 4.65742 3.60012 4.60371 3.80902C4.42074 4.52066 4.26551 5.28789 4.14113 6.09379H2.1875V2.73438C2.1875 1.65742 3.06367 0.78125 4.14062 0.78125H6.4193C7.03609 2.19387 8.44121 3.125 10 3.125C11.5588 3.125 12.9639 2.19387 13.5807 0.78125H15.8594C16.9363 0.78125 17.8125 1.65742 17.8125 2.73438V6.09375H15.8589C15.7345 5.28777 15.5793 4.52063 15.3963 3.80898C15.3425 3.60004 15.1295 3.47414 14.9207 3.52793C14.7118 3.58164 14.5859 3.79457 14.6396 4.00352C14.8298 4.74293 14.9887 5.54652 15.1135 6.3932C15.1064 6.4225 15.1023 6.45293 15.1023 6.48438C15.1023 6.555 15.1214 6.62109 15.1542 6.67828C15.3547 8.14082 15.4516 9.69047 15.4416 11.2874C15.4403 11.5031 15.6141 11.6791 15.8298 11.6804H15.8323C16.0469 11.6804 16.2215 11.5071 16.2229 11.2922C16.2324 9.76793 16.1465 8.28445 15.9681 6.875H18.2031C18.4189 6.875 18.5938 6.70012 18.5938 6.48438V2.73438C18.5938 1.22664 17.3671 0 15.8594 0V0ZM10 2.34375C8.87184 2.34375 7.84441 1.73406 7.29332 0.78125H12.7066C12.1556 1.73406 11.1282 2.34375 10 2.34375Z" fill="#0167FF"/>
</g>
<defs>
<clipPath id="clip0">
<rect width="20" height="20" fill="white"/>
</clipPath>
</defs>
</svg>
