<svg width="20" height="20" viewBox="0 0 20 20" fill="none" xmlns="http://www.w3.org/2000/svg">
<g clip-path="url(#clip0)">
<path d="M18.9506 1.26791C18.9282 1.1457 18.8267 1.04451 18.7045 1.02255C18.3785 0.900332 16.966 0.396666 15.1921 0.143915C14.8289 0.0922468 14.7298 0.67021 15.1094 0.724301C16.707 0.951922 18.0292 1.40122 18.4283 1.54575C18.5962 2.00346 19.1684 3.67227 19.3422 5.58735C19.4559 6.84138 19.3794 7.96295 19.1147 8.92084C18.6368 10.65 17.4102 11.9305 15.718 12.5162C14.5562 12.9184 12.8067 12.8217 10.9637 11.6065L11.5557 11.1677C12.0983 11.7276 12.834 12.0197 13.5768 12.0197C14.1821 12.0197 14.7916 11.8262 15.3037 11.4271C16.3824 10.5864 18.3416 9.06983 18.3612 9.05459C18.493 8.93089 18.5099 8.79308 18.4119 8.6412C18.3076 8.50898 18.1715 8.36684 18.0112 8.22149C18.4785 7.85903 18.8594 7.56395 18.8595 7.56391C18.9912 7.44021 19.0081 7.30244 18.9101 7.15061C18.665 6.84001 18.1925 6.50382 17.6677 6.25525C17.8654 6.05999 18.0683 5.85961 18.2788 5.65184C18.3948 5.51321 18.395 5.37439 18.2795 5.23537C18.1691 5.1257 18.0304 5.01033 17.8701 4.89433C18.2885 4.48036 18.6291 4.14389 18.6291 4.14385C18.7451 4.00522 18.7453 3.8664 18.6297 3.72742C18.3096 3.40928 17.6922 3.09314 17.0549 2.91511C16.8756 2.28157 16.5575 1.66785 16.2373 1.34963C16.1227 1.23575 15.9376 1.23602 15.8234 1.35026C15.8234 1.35026 15.4834 1.69024 15.0656 2.10738C14.9486 1.94761 14.8322 1.80929 14.7217 1.69939C14.6071 1.58558 14.4221 1.58577 14.3079 1.69994C14.3079 1.69994 14.036 1.97153 13.6975 2.30971C13.4473 1.78776 13.1089 1.31794 12.7963 1.07429C12.6689 0.974981 12.4851 0.997454 12.3854 1.12463C12.3854 1.12467 12.0873 1.50483 11.7216 1.97051C11.5749 1.8107 11.4315 1.67492 11.2981 1.57104C11.1707 1.47173 10.9869 1.49424 10.8872 1.62146C10.8719 1.641 9.34597 3.58821 8.50005 4.66026C8.03781 5.24612 7.83247 5.97596 7.92193 6.7153C8.00025 7.36279 8.29631 7.94962 8.76394 8.39451L8.33188 9.00636C7.08066 7.15905 6.97823 5.40222 7.38586 4.2389C7.6 3.62788 7.89016 3.08567 8.24828 2.62742C9.38048 1.17868 11.2243 0.495078 13.7288 0.595913C14.0952 0.609475 14.1356 0.0255317 13.7524 0.0101329C12.5521 -0.038174 11.4716 0.0895891 10.5409 0.38971C9.40225 0.756936 8.47805 1.38551 7.7935 2.25766C6.41183 3.81356 5.34146 6.16848 4.61213 9.25735C4.21953 10.9201 4.03131 12.3703 3.95002 13.1437C3.08659 12.6872 2.20069 13.8841 2.89449 14.579L1.15525 15.6336C0.503146 16.0291 0.0829222 16.7193 0.0312151 17.4799L0.0294563 17.5057C-0.0258074 18.318 0.335713 19.0885 0.996494 19.5666C1.29861 19.7852 1.64762 19.3141 1.34015 19.0916C0.844225 18.7328 0.572909 18.1548 0.614337 17.5455L0.616096 17.5197C0.654906 16.9492 0.970073 16.4316 1.4592 16.1349L3.32285 15.0048L4.98803 16.6598L3.89292 18.5475C3.61245 19.0309 3.11316 19.3549 2.55744 19.4143C2.08152 19.4652 2.16203 20.0459 2.61958 19.9972C3.36052 19.9182 4.02611 19.4862 4.40002 18.8417L5.4181 17.0868C6.08627 17.7363 7.26443 16.9526 6.87 16.0882C7.61419 16.0288 8.98644 15.8777 10.5857 15.5044C13.5865 14.804 15.9695 13.6738 17.669 12.1454C21.7456 9.04208 19.2385 2.0291 18.9506 1.26791ZM9.71929 10.617L10.7874 9.55548C10.834 9.96304 10.9711 10.3543 11.1931 10.7067L10.4618 11.2488C10.2148 11.0594 9.96688 10.8494 9.71929 10.617ZM15.6911 4.4614C16.2437 4.64381 16.7986 4.90125 17.2538 5.18624C17.3989 5.27707 17.5298 5.3681 17.6424 5.45623C16.7996 6.28859 15.957 7.12129 15.1167 7.95623C14.2528 8.81485 12.846 8.81598 11.9807 7.95873C11.9804 7.95838 11.98 7.95803 11.9797 7.95771C11.9792 7.95728 11.9787 7.95693 11.9783 7.9565C11.9782 7.95643 11.9781 7.95635 11.9781 7.95627C11.5595 7.54023 11.3289 6.9872 11.3289 6.39907C11.3289 5.75658 11.6166 5.1402 12.1061 4.72494C12.5647 4.33587 13.6402 3.78421 15.6911 4.4614ZM14.9434 10.9647C13.9803 11.7153 12.5825 11.5474 11.8274 10.5904C11.4681 10.135 11.3067 9.57389 11.3683 9.00104L11.793 8.57636C12.3045 8.98697 12.929 9.19228 13.5534 9.19228C14.2716 9.19228 14.9897 8.92076 15.5359 8.37794C15.7611 8.15282 15.982 7.92324 16.2083 7.6989C16.7632 7.98703 17.3084 8.34011 17.7532 8.78401C17.1879 9.22175 15.7929 10.3026 14.9434 10.9647ZM18.2396 7.3026C18.0633 7.43928 17.8141 7.63242 17.5447 7.84148C17.2685 7.63715 16.9621 7.44178 16.6441 7.26723C16.8328 7.08045 17.0242 6.89121 17.2199 6.69771C17.6366 6.86975 18.0008 7.09913 18.2396 7.3026ZM16.0075 1.99505C16.2023 2.28443 16.4113 2.73209 16.5301 3.22446C16.5559 3.3317 16.6398 3.4153 16.7471 3.4409C17.2413 3.55866 17.6908 3.76557 17.9823 3.95883C17.8254 4.11395 17.6044 4.33251 17.365 4.56931C16.9536 4.33165 16.4848 4.11747 16.0132 3.95199C15.8467 3.48358 15.6315 3.01806 15.3925 2.60933C15.6315 2.37072 15.8518 2.15068 16.0075 1.99505ZM14.5021 2.33445C14.5911 2.44654 14.6831 2.577 14.7748 2.72161C14.968 3.02611 15.1484 3.37559 15.3019 3.73907C14.4569 3.52931 13.7704 3.52059 13.2222 3.61318C13.3907 3.44481 13.5933 3.24244 13.7943 3.04159C13.797 3.03916 13.7995 3.0367 13.8021 3.0342C13.803 3.0333 13.804 3.03256 13.8049 3.03166L13.8276 3.00907C13.8291 3.00758 13.8302 3.00587 13.8316 3.00438C14.0851 2.75108 14.3326 2.50376 14.5021 2.33445ZM12.6457 1.74254C12.85 1.97868 13.0807 2.33934 13.2542 2.75257C13.0419 2.96467 12.8363 3.17005 12.6797 3.32647C12.5044 3.01114 12.3083 2.70746 12.1032 2.43357C12.314 2.16522 12.5085 1.91736 12.6457 1.74254ZM8.50392 6.64475C8.43337 6.06151 8.59545 5.48566 8.96029 5.02323C9.6276 4.1775 10.7176 2.78786 11.1566 2.22787C11.602 2.66768 11.9461 3.20136 12.2344 3.75181C12.2344 3.75181 11.6143 4.37691 11.5649 4.42603C11.0348 4.95295 10.7428 5.65364 10.7428 6.39903C10.7428 7.04547 10.9627 7.6581 11.3668 8.15309L10.9458 8.57148C10.3661 8.63475 9.79793 8.4744 9.3369 8.1151C8.87044 7.75159 8.57462 7.2294 8.50392 6.64475ZM9.22864 8.75259C9.5764 8.96821 9.96133 9.10317 10.3624 9.15128L9.30329 10.2039C9.08149 9.97101 8.8799 9.73784 8.69703 9.50533L9.22864 8.75259ZM6.26144 16.6481C6.23834 16.6713 6.03014 16.8689 5.82285 16.6629L3.31038 14.1658C3.04301 13.9002 3.48203 13.4492 3.7587 13.7236L6.26425 16.2282C6.45775 16.4205 6.311 16.5982 6.26144 16.6481ZM6.39745 15.5324L4.49261 13.6283C4.56241 12.807 4.98791 8.5961 6.6008 5.19597C6.44501 7.34606 7.60821 9.34607 9.08325 10.8175C10.5955 12.3676 12.7889 13.5515 15.0114 13.2752C11.4706 15.1731 7.20643 15.4887 6.39745 15.5324Z" fill="#0167FF"/>
</g>
<defs>
<clipPath id="clip0">
<rect width="20" height="20" fill="white"/>
</clipPath>
</defs>
</svg>
