<svg width="20" height="20" viewBox="0 0 20 20" fill="none" xmlns="http://www.w3.org/2000/svg">
<g clip-path="url(#clip0)">
<path d="M0.21597 7.77123C1.46198 8.39443 3.05587 8.8165 4.63066 8.9447C4.84136 9.91329 4.92191 10.6699 4.92191 11.6367C4.92191 13.5773 4.58613 15.1133 3.76168 18.4111C3.71434 18.6006 3.81422 18.796 3.99559 18.8685C5.32499 19.4002 6.74061 19.749 8.20317 19.905C8.41766 19.9277 8.61012 19.7725 8.63301 19.5581C8.6559 19.3436 8.50055 19.1511 8.28606 19.1282C7.01057 18.9921 5.77331 18.7023 4.60312 18.2658C5.38339 15.1298 5.70315 13.5963 5.70315 11.6367C5.70315 9.16001 5.20038 7.9294 3.44731 1.81487L6.09378 0.932732V0.976716C6.09378 2.16136 7.05756 3.12514 8.2422 3.12514C8.99606 3.12514 9.60937 3.73845 9.60937 4.49231V7.42198C9.60937 7.63772 9.78426 7.8126 10 7.8126C10.2157 7.8126 10.3906 7.63772 10.3906 7.42198C10.3906 7.0919 10.3906 4.78423 10.3906 4.49231C10.3906 3.73845 11.0039 3.12514 11.7578 3.12514C12.9424 3.12514 13.9062 2.16136 13.9062 0.976716V0.932732L16.5527 1.81491C14.7319 8.1692 14.2968 9.18798 14.2968 11.6368C14.2968 13.5959 14.6166 15.1295 15.3969 18.2658C14.2267 18.7023 12.9894 18.9922 11.7139 19.1283C11.4994 19.1511 11.3441 19.3436 11.367 19.5581C11.3899 19.7727 11.5824 19.928 11.7968 19.905C13.2593 19.749 14.675 19.4003 16.0044 18.8685C16.1858 18.796 16.2857 18.6006 16.2383 18.4111C15.4139 15.113 15.0781 13.5769 15.0781 11.6367C15.0781 10.6262 15.1529 9.91212 15.3671 8.9449C16.9417 8.81724 18.5365 8.3951 19.784 7.77131C19.9703 7.67819 20.0507 7.45526 19.9668 7.2646L17.3887 1.40527C17.3445 1.3048 17.2569 1.22609 17.1547 1.19203L13.6391 0.020161C13.6022 0.00797357 13.5565 0.00012207 13.5156 0.00012207H6.4844C6.44299 0.00012207 6.39729 0.00812982 6.36088 0.020161L2.84529 1.19203C2.73751 1.22792 2.65388 1.30839 2.61126 1.40527L0.0331594 7.2646C-0.0507072 7.45518 0.0296828 7.67807 0.21597 7.77123ZM15.5602 8.14229C15.8693 6.94058 16.3601 5.30824 17.1087 2.70869L19.0985 7.23081C18.0722 7.68674 16.8028 8.01334 15.5602 8.14229ZM11.7578 2.34378C11.0317 2.34378 10.3891 2.70619 10 3.25924C9.6109 2.70619 8.96828 2.34378 8.2422 2.34378C7.48834 2.34378 6.87502 1.73046 6.87502 0.976599V0.781288H13.125V0.976599C13.125 1.73046 12.5117 2.34378 11.7578 2.34378ZM2.89138 2.70842C3.63348 5.2816 4.12684 6.91144 4.44012 8.14229C3.19688 8.01315 1.92721 7.68663 0.901473 7.23089L2.89138 2.70842Z" fill="#0167FF"/>
<path d="M10 19.9999C10.2157 19.9999 10.3906 19.8251 10.3906 19.6093C10.3906 19.3936 10.2157 19.2187 10 19.2187C9.78426 19.2187 9.60938 19.3936 9.60938 19.6093C9.60938 19.8251 9.78426 19.9999 10 19.9999Z" fill="#0167FF"/>
</g>
<defs>
<clipPath id="clip0">
<rect width="20" height="20" fill="white"/>
</clipPath>
</defs>
</svg>
