<svg width="20" height="20" viewBox="0 0 20 20" fill="none" xmlns="http://www.w3.org/2000/svg">
<path d="M2.8125 12.8125C2.62708 12.8125 2.44582 12.8675 2.29165 12.9705C2.13748 13.0735 2.01732 13.2199 1.94636 13.3912C1.87541 13.5625 1.85684 13.751 1.89301 13.9329C1.92919 14.1148 2.01848 14.2818 2.14959 14.4129C2.2807 14.544 2.44775 14.6333 2.6296 14.6695C2.81146 14.7057 2.99996 14.6871 3.17127 14.6161C3.34257 14.5452 3.48899 14.425 3.592 14.2709C3.69502 14.1167 3.75 13.9354 3.75 13.75C3.74972 13.5014 3.65086 13.2632 3.4751 13.0874C3.29935 12.9116 3.06106 12.8128 2.8125 12.8125ZM2.8125 14.0625C2.75069 14.0625 2.69027 14.0442 2.63888 14.0098C2.58749 13.9755 2.54744 13.9267 2.52379 13.8696C2.50014 13.8125 2.49395 13.7497 2.506 13.689C2.51806 13.6284 2.54783 13.5727 2.59153 13.529C2.63523 13.4853 2.69092 13.4556 2.75153 13.4435C2.81215 13.4314 2.87499 13.4376 2.93209 13.4613C2.98919 13.4849 3.038 13.525 3.07233 13.5764C3.10667 13.6278 3.125 13.6882 3.125 13.75C3.12491 13.8329 3.09195 13.9123 3.03337 13.9709C2.97478 14.0295 2.89535 14.0624 2.8125 14.0625Z" fill="#0167FF"/>
<path d="M14.6875 12.8125C14.5021 12.8125 14.3208 12.8675 14.1667 12.9705C14.0125 13.0735 13.8923 13.2199 13.8214 13.3912C13.7504 13.5625 13.7318 13.751 13.768 13.9329C13.8042 14.1148 13.8935 14.2818 14.0246 14.4129C14.1557 14.544 14.3227 14.6333 14.5046 14.6695C14.6865 14.7057 14.875 14.6871 15.0463 14.6161C15.2176 14.5452 15.364 14.425 15.467 14.2709C15.57 14.1167 15.625 13.9354 15.625 13.75C15.6247 13.5014 15.5259 13.2632 15.3501 13.0874C15.1744 12.9116 14.9361 12.8128 14.6875 12.8125ZM14.6875 14.0625C14.6257 14.0625 14.5653 14.0442 14.5139 14.0098C14.4625 13.9755 14.4224 13.9267 14.3988 13.8696C14.3751 13.8125 14.3689 13.7497 14.381 13.689C14.3931 13.6284 14.4228 13.5727 14.4665 13.529C14.5102 13.4853 14.5659 13.4556 14.6265 13.4435C14.6872 13.4314 14.75 13.4376 14.8071 13.4613C14.8642 13.4849 14.913 13.525 14.9473 13.5764C14.9817 13.6278 15 13.6882 15 13.75C14.9999 13.8329 14.967 13.9123 14.9084 13.9709C14.8498 14.0295 14.7704 14.0624 14.6875 14.0625Z" fill="#0167FF"/>
<path d="M16.875 13.75C16.875 13.4596 16.8172 13.1721 16.7049 12.9043C16.5926 12.6365 16.4281 12.3937 16.2211 12.1901C16.014 11.9865 15.7684 11.8262 15.4987 11.7185C15.229 11.6108 14.9406 11.5579 14.6502 11.5628C13.4646 11.5826 12.5 12.5776 12.5 13.7809V14.8307C11.6439 14.5977 10.3954 14.375 8.74999 14.375C7.10456 14.375 5.85604 14.5977 4.99999 14.8307V13.75C4.99999 13.4556 4.94056 13.1642 4.82526 12.8933C4.70995 12.6224 4.54115 12.3776 4.32897 12.1735C4.11678 11.9694 3.86558 11.8102 3.59041 11.7055C3.31524 11.6008 3.02176 11.5527 2.72757 11.5641C2.17779 11.5873 1.65677 11.8161 1.26768 12.2052C0.878583 12.5943 0.649798 13.1153 0.62663 13.6651C0.605773 14.2053 0.785627 14.7342 1.13153 15.1498C1.47743 15.5653 1.9649 15.8381 2.49999 15.9156V17.1875C2.50036 17.5189 2.63218 17.8366 2.86652 18.071C3.10086 18.3053 3.41858 18.4371 3.74999 18.4375V19.375C3.74999 19.4579 3.78291 19.5374 3.84152 19.596C3.90012 19.6546 3.97961 19.6875 4.06249 19.6875H4.99999C5.05802 19.6875 5.1149 19.6713 5.16427 19.6408C5.21363 19.6103 5.25353 19.5667 5.27948 19.5148L5.81811 18.4375H11.6819L12.2205 19.5148C12.2465 19.5667 12.2863 19.6103 12.3357 19.6408C12.3851 19.6713 12.442 19.6875 12.5 19.6875H13.4375C13.5204 19.6875 13.5999 19.6546 13.6585 19.596C13.7171 19.5374 13.75 19.4579 13.75 19.375V18.4375C14.0814 18.4371 14.3991 18.3053 14.6335 18.071C14.8678 17.8366 14.9996 17.5189 15 17.1875V15.9152C15.5204 15.8394 15.9961 15.579 16.3403 15.1815C16.6846 14.7839 16.8743 14.2759 16.875 13.75ZM4.80686 19.0625H4.37499V18.4375H5.11936L4.80686 19.0625ZM13.125 19.0625H12.6931L12.3806 18.4375H13.125V19.0625ZM14.6875 15.3125C14.6046 15.3125 14.5251 15.3454 14.4665 15.404C14.4079 15.4626 14.375 15.5421 14.375 15.625V17.1875C14.3748 17.3532 14.3089 17.5121 14.1917 17.6292C14.0745 17.7464 13.9157 17.8123 13.75 17.8125H3.74999C3.58429 17.8123 3.42543 17.7464 3.30827 17.6292C3.1911 17.5121 3.12519 17.3532 3.12499 17.1875V15.625C3.12499 15.5421 3.09207 15.4626 3.03346 15.404C2.97486 15.3454 2.89537 15.3125 2.81249 15.3125C2.60215 15.3125 2.39397 15.27 2.20044 15.1876C2.0069 15.1053 1.83199 14.9846 1.6862 14.833C1.5404 14.6814 1.42672 14.5019 1.35197 14.3053C1.27721 14.1087 1.24293 13.899 1.25116 13.6888C1.26772 13.2963 1.43107 12.9243 1.70887 12.6465C1.98666 12.3687 2.35865 12.2054 2.75116 12.1888C2.96134 12.1806 3.17103 12.2148 3.36764 12.2896C3.56426 12.3643 3.74377 12.478 3.8954 12.6238C4.04703 12.7695 4.16767 12.9444 4.25008 13.138C4.33249 13.3315 4.37497 13.5397 4.37499 13.75V15.0234C3.88237 15.1953 3.62351 15.3376 3.59679 15.3526L3.90253 15.8977C3.91866 15.8888 5.5544 15 8.74999 15C11.9456 15 13.5813 15.8888 13.5968 15.8974L13.9032 15.3526C13.8765 15.3376 13.6176 15.1952 13.125 15.0234V13.7809C13.125 12.9166 13.8139 12.2019 14.6607 12.1877C14.867 12.1842 15.0719 12.2215 15.2637 12.2976C15.4555 12.3736 15.6304 12.4869 15.7782 12.6309C15.9259 12.7749 16.0437 12.9468 16.1248 13.1365C16.2058 13.3263 16.2484 13.5303 16.2502 13.7366C16.2519 13.9429 16.2128 14.1476 16.1351 14.3387C16.0573 14.5298 15.9425 14.7037 15.7972 14.8502C15.6519 14.9967 15.4791 15.113 15.2886 15.1923C15.0981 15.2717 14.8938 15.3125 14.6875 15.3125Z" fill="#0167FF"/>
<path d="M3.125 9.375C3.1252 9.2093 3.19111 9.05044 3.30828 8.93328C3.42544 8.81611 3.5843 8.7502 3.75 8.75H13.75C13.9157 8.7502 14.0746 8.81611 14.1917 8.93328C14.3089 9.05044 14.3748 9.2093 14.375 9.375V10.9375H15V9.375C14.9996 9.04359 14.8678 8.72587 14.6335 8.49153C14.3991 8.25719 14.0814 8.12537 13.75 8.125H3.75C3.41859 8.12537 3.10087 8.25719 2.86653 8.49153C2.63219 8.72587 2.50037 9.04359 2.5 9.375V10.9375H3.125V9.375Z" fill="#0167FF"/>
<path d="M6.875 10H7.5V10.625H6.875V10Z" fill="#0167FF"/>
<path d="M8.4375 11.5625H9.0625V12.1875H8.4375V11.5625Z" fill="#0167FF"/>
<path d="M5.3125 11.5625H5.9375V12.1875H5.3125V11.5625Z" fill="#0167FF"/>
<path d="M6.875 13.125H7.5V13.75H6.875V13.125Z" fill="#0167FF"/>
<path d="M10 10H10.625V10.625H10V10Z" fill="#0167FF"/>
<path d="M11.5625 11.5625H12.1875V12.1875H11.5625V11.5625Z" fill="#0167FF"/>
<path d="M10 13.125H10.625V13.75H10V13.125Z" fill="#0167FF"/>
<path d="M18.125 0.3125H9.375C9.04359 0.312872 8.72587 0.444688 8.49153 0.679028C8.25719 0.913367 8.12537 1.23109 8.125 1.5625V1.875H8.75V1.5625C8.7502 1.3968 8.81611 1.23794 8.93328 1.12078C9.05044 1.00361 9.2093 0.937696 9.375 0.9375H13.4375V7.5H14.0625V0.9375H18.125C18.2907 0.937696 18.4496 1.00361 18.5667 1.12078C18.6839 1.23794 18.7498 1.3968 18.75 1.5625V17.1875C18.7498 17.3532 18.6839 17.5121 18.5667 17.6292C18.4496 17.7464 18.2907 17.8123 18.125 17.8125H15.3125V18.4375H16.0569L16.5955 19.5148C16.6215 19.5667 16.6614 19.6103 16.7107 19.6408C16.7601 19.6713 16.817 19.6875 16.875 19.6875H17.8125C17.8954 19.6875 17.9749 19.6546 18.0335 19.596C18.0921 19.5374 18.125 19.4579 18.125 19.375V18.4375C18.4564 18.4371 18.7741 18.3053 19.0085 18.071C19.2428 17.8366 19.3746 17.5189 19.375 17.1875V1.5625C19.3746 1.23109 19.2428 0.913367 19.0085 0.679028C18.7741 0.444688 18.4564 0.312872 18.125 0.3125ZM17.5 19.0625H17.0681L16.7556 18.4375H17.5V19.0625Z" fill="#0167FF"/>
<path d="M2.81249 6.875H5.62499V7.5H6.24999V6.875H9.06249C9.10571 6.875 9.14847 6.86603 9.18805 6.84866C9.22763 6.83129 9.26318 6.80589 9.29245 6.77408C9.32172 6.74227 9.34407 6.70473 9.35809 6.66384C9.3721 6.62295 9.37749 6.5796 9.37389 6.53652L9.06139 2.78652C9.05488 2.70841 9.01925 2.6356 8.96157 2.58253C8.90389 2.52946 8.82837 2.5 8.74999 2.5H6.24999V1.875H5.62499V2.5H3.12499C3.04661 2.5 2.97109 2.52946 2.91341 2.58253C2.85573 2.6356 2.8201 2.70841 2.81358 2.78652L2.50108 6.53652C2.49749 6.5796 2.50287 6.62295 2.51689 6.66384C2.53091 6.70473 2.55326 6.74227 2.58252 6.77408C2.61179 6.80589 2.64734 6.83129 2.68692 6.84866C2.72651 6.86603 2.76926 6.875 2.81249 6.875ZM3.41253 3.125H8.46245L8.72288 6.25H3.1521L3.41253 3.125Z" fill="#0167FF"/>
</svg>
