<svg width="20" height="20" viewBox="0 0 20 20" fill="none" xmlns="http://www.w3.org/2000/svg">
<path d="M1.5625 9.68731C1.56249 9.70113 1.56341 9.71493 1.56523 9.72863L2.74293 18.5612C2.77354 18.7861 2.88448 18.9924 3.05527 19.1419C3.22606 19.2915 3.44518 19.3742 3.67219 19.3748H16.875C17.1236 19.3745 17.3619 19.2757 17.5376 19.0999C17.7134 18.9242 17.8122 18.6859 17.8125 18.4373V17.208L19.0598 7.85363C19.0598 7.85227 19.0598 7.85094 19.0601 7.84973C19.0608 7.8434 19.0612 7.83699 19.0616 7.83055C19.0619 7.82586 19.0622 7.82121 19.0623 7.81652C19.0623 7.81516 19.0623 7.81383 19.0623 7.81262V6.56231C19.0623 6.47943 19.0294 6.39994 18.9708 6.34133C18.9122 6.28273 18.8327 6.24981 18.7498 6.24981H12.5C12.4171 6.24981 12.3376 6.28273 12.279 6.34133C12.2204 6.39994 12.1875 6.47943 12.1875 6.56231V7.81231C12.1875 7.81371 12.1875 7.81504 12.1875 7.81621C12.1875 7.8209 12.1879 7.82555 12.1882 7.83024C12.1886 7.83668 12.189 7.84309 12.1897 7.84941C12.1897 7.85074 12.1897 7.85207 12.19 7.85332L12.7662 12.1742C12.1379 12.1265 11.9437 11.9564 11.8868 11.8767C11.8665 11.8481 11.853 11.8152 11.8472 11.7806C11.8414 11.746 11.8434 11.7105 11.8532 11.6768C11.8743 11.6305 11.8832 11.5796 11.8791 11.5289C11.875 11.4782 11.858 11.4294 11.8297 11.3871C11.8004 11.3435 11.7605 11.3081 11.7138 11.2841C11.667 11.2601 11.615 11.2483 11.5625 11.2498C10.9407 11.2498 10.4615 11.3709 10.0668 11.5508L10.3098 9.72863C10.3116 9.71493 10.3125 9.70113 10.3125 9.68731C10.3119 8.93851 10.1046 8.20442 9.71341 7.56593C9.32223 6.92744 8.76236 6.40935 8.09551 6.06875C8.12216 6.01175 8.13096 5.94803 8.12074 5.88594L7.80824 4.01094C7.79608 3.93797 7.75843 3.87168 7.70199 3.82387C7.64555 3.77605 7.57397 3.74981 7.5 3.74981H7.1875V2.49981H9.375C9.45788 2.49981 9.53737 2.46688 9.59597 2.40828C9.65458 2.34967 9.6875 2.27019 9.6875 2.18731V0.937306C9.6875 0.894518 9.67871 0.852186 9.66168 0.812934C9.64465 0.773682 9.61974 0.738345 9.58849 0.709113C9.55725 0.679882 9.52033 0.657378 9.48003 0.642997C9.43973 0.628616 9.39691 0.622663 9.35422 0.625509L4.66672 0.938009C4.60482 0.942136 4.54555 0.964594 4.49646 1.00252C4.44737 1.04045 4.41068 1.09213 4.39106 1.15098L4.07856 2.08848C4.0629 2.13545 4.05862 2.18547 4.06609 2.23442C4.07355 2.28337 4.09255 2.32985 4.1215 2.37002C4.15045 2.41019 4.18853 2.4429 4.2326 2.46547C4.27668 2.48803 4.32548 2.4998 4.375 2.49981H4.6875V3.74981H4.375C4.30103 3.74981 4.22945 3.77605 4.17301 3.82387C4.11657 3.87168 4.07892 3.93797 4.06676 4.01094L3.75426 5.88594C3.74404 5.94803 3.75284 6.01175 3.77949 6.06875C3.11264 6.40935 2.55278 6.92744 2.16159 7.56593C1.77041 8.20442 1.56309 8.93851 1.5625 9.68731ZM14.375 18.7498H6.83465C6.76249 18.7497 6.69331 18.721 6.64229 18.67C6.59127 18.619 6.56257 18.5498 6.5625 18.4777V15.272C6.56257 15.1998 6.59127 15.1306 6.64229 15.0796C6.69331 15.0286 6.76249 14.9999 6.83465 14.9998H14.4154C14.4875 14.9999 14.5567 15.0286 14.6077 15.0796C14.6587 15.1306 14.6874 15.1998 14.6875 15.272V18.4777C14.6874 18.5498 14.6587 18.619 14.6077 18.67C14.5567 18.721 14.4875 18.7497 14.4154 18.7498H14.375ZM7.5 13.7498H13.75V14.3748H7.5V13.7498ZM17.1875 18.4373C17.1874 18.5202 17.1545 18.5996 17.0959 18.6582C17.0373 18.7168 16.9579 18.7497 16.875 18.7498H15.2702C15.2983 18.6618 15.3125 18.57 15.3125 18.4777V17.4998H17.1875V18.4373ZM17.2266 16.8748H15.3125V15.272C15.3122 15.0341 15.2176 14.8061 15.0494 14.6379C14.8812 14.4697 14.6532 14.3751 14.4154 14.3748H14.375V13.4373C14.375 13.4286 14.3744 13.42 14.3737 13.4114C14.3737 13.4102 14.3734 13.4079 14.3732 13.406V13.4049C14.3497 13.2001 14.2878 13.0016 14.1907 12.8197C14.1124 12.6669 14.001 12.5334 13.8646 12.4291C13.7282 12.3247 13.5703 12.252 13.4023 12.2164L12.8569 8.12481H18.3931L17.2266 16.8748ZM12.8125 6.87481H18.4375V7.49981H12.8125V6.87481ZM11.364 12.2195C11.6282 12.6129 12.2207 12.8123 13.125 12.8123C13.3594 12.8123 13.5208 12.9048 13.6336 13.1036C13.6375 13.1107 13.6414 13.1177 13.645 13.1248H8.94613C9.07949 13.0226 9.20648 12.9153 9.33238 12.8088C9.84121 12.3782 10.3248 11.9689 11.2311 11.8889C11.2512 12.0073 11.2965 12.1201 11.364 12.2195ZM4.91762 1.54766L9.0625 1.27133V1.87481H4.80859L4.91762 1.54766ZM5.3125 2.49981H6.5625V3.74981H5.3125V2.49981ZM4.43141 5.62481L4.63973 4.37481H7.23527L7.44359 5.62481H4.43141ZM5.625 6.24981H6.25C7.15786 6.25081 8.02855 6.61052 8.6724 7.25057C9.31625 7.89062 9.68111 8.75915 9.6875 9.66699L9.38109 11.9646C9.22027 12.085 9.07211 12.2102 8.92863 12.3316C8.42578 12.7573 7.99137 13.1248 7.1875 13.1248C7.10462 13.1248 7.02513 13.1577 6.96653 13.2163C6.90792 13.2749 6.875 13.3544 6.875 13.4373V14.3748H6.83465C6.59679 14.3751 6.36876 14.4697 6.20057 14.6379C6.03238 14.8061 5.93777 15.0341 5.9375 15.272V18.4777C5.93747 18.57 5.95174 18.6618 5.9798 18.7498H3.67219C3.59652 18.7496 3.52348 18.722 3.46655 18.6722C3.40962 18.6223 3.37263 18.5536 3.36242 18.4786L2.1875 9.66699C2.19389 8.75915 2.55875 7.89062 3.2026 7.25057C3.84646 6.61052 4.71714 6.25081 5.625 6.24981Z" fill="#0167FF"/>
<path d="M10.625 15.625C10.3778 15.625 10.1361 15.6983 9.93054 15.8357C9.72498 15.973 9.56476 16.1682 9.47015 16.3966C9.37554 16.6251 9.35079 16.8764 9.39902 17.1189C9.44725 17.3613 9.5663 17.5841 9.74112 17.7589C9.91593 17.9337 10.1387 18.0528 10.3811 18.101C10.6236 18.1492 10.8749 18.1245 11.1034 18.0299C11.3318 17.9353 11.527 17.775 11.6643 17.5695C11.8017 17.3639 11.875 17.1222 11.875 16.875C11.8746 16.5436 11.7428 16.2259 11.5085 15.9915C11.2741 15.7572 10.9564 15.6254 10.625 15.625ZM10.625 17.5C10.5014 17.5 10.3805 17.4634 10.2778 17.3947C10.175 17.326 10.0949 17.2284 10.0476 17.1142C10.0003 17 9.98789 16.8743 10.012 16.7531C10.0361 16.6318 10.0957 16.5205 10.1831 16.4331C10.2705 16.3457 10.3818 16.2861 10.5031 16.262C10.6243 16.2379 10.75 16.2503 10.8642 16.2976C10.9784 16.3449 11.076 16.425 11.1447 16.5278C11.2133 16.6306 11.25 16.7514 11.25 16.875C11.2498 17.0407 11.1839 17.1996 11.0667 17.3167C10.9496 17.4339 10.7907 17.4998 10.625 17.5Z" fill="#0167FF"/>
<path d="M15.625 11.25C16.5156 11.25 17.1875 10.847 17.1875 10.3125C17.1875 9.77801 16.5156 9.375 15.625 9.375C14.7344 9.375 14.0625 9.77801 14.0625 10.3125C14.0625 10.847 14.7344 11.25 15.625 11.25ZM15.625 10C16.23 10 16.5625 10.2347 16.5625 10.3125C16.5625 10.3903 16.23 10.625 15.625 10.625C15.02 10.625 14.6875 10.3903 14.6875 10.3125C14.6875 10.2347 15.02 10 15.625 10Z" fill="#0167FF"/>
<path d="M4.0625 10.9375H7.8125C7.89538 10.9375 7.97487 10.9046 8.03347 10.846C8.09208 10.7874 8.125 10.7079 8.125 10.625V8.75C8.125 8.66712 8.09208 8.58763 8.03347 8.52903C7.97487 8.47042 7.89538 8.4375 7.8125 8.4375H4.0625C3.97962 8.4375 3.90013 8.47042 3.84153 8.52903C3.78292 8.58763 3.75 8.66712 3.75 8.75V10.625C3.75 10.7079 3.78292 10.7874 3.84153 10.846C3.90013 10.9046 3.97962 10.9375 4.0625 10.9375ZM4.375 9.0625H7.5V10.3125H4.375V9.0625Z" fill="#0167FF"/>
</svg>
