<svg width="20" height="20" viewBox="0 0 20 20" fill="none" xmlns="http://www.w3.org/2000/svg">
<path d="M3.44262 10.8196C3.62369 10.8196 3.77049 10.6728 3.77049 10.4917C3.77049 10.3107 3.62369 10.1639 3.44262 10.1639C3.26154 10.1639 3.11475 10.3107 3.11475 10.4917C3.11475 10.6728 3.26154 10.8196 3.44262 10.8196Z" fill="#0167FF"/>
<path d="M4.7539 9.8361C4.93497 9.8361 5.08177 9.68931 5.08177 9.50823C5.08177 9.32715 4.93497 9.18036 4.7539 9.18036C4.57282 9.18036 4.42603 9.32715 4.42603 9.50823C4.42603 9.68931 4.57282 9.8361 4.7539 9.8361Z" fill="#0167FF"/>
<path d="M8.0327 9.5081C8.21378 9.5081 8.36058 9.3613 8.36058 9.18023C8.36058 8.99915 8.21378 8.85236 8.0327 8.85236C7.85163 8.85236 7.70483 8.99915 7.70483 9.18023C7.70483 9.3613 7.85163 9.5081 8.0327 9.5081Z" fill="#0167FF"/>
<path d="M2.45897 12.4591C2.64005 12.4591 2.78684 12.3123 2.78684 12.1312C2.78684 11.9501 2.64005 11.8033 2.45897 11.8033C2.2779 11.8033 2.1311 11.9501 2.1311 12.1312C2.1311 12.3123 2.2779 12.4591 2.45897 12.4591Z" fill="#0167FF"/>
<path d="M4.09838 12.1311C4.27946 12.1311 4.42625 11.9843 4.42625 11.8033C4.42625 11.6222 4.27946 11.4754 4.09838 11.4754C3.9173 11.4754 3.77051 11.6222 3.77051 11.8033C3.77051 11.9843 3.9173 12.1311 4.09838 12.1311Z" fill="#0167FF"/>
<path d="M5.40966 11.1476C5.59074 11.1476 5.73753 11.0008 5.73753 10.8197C5.73753 10.6387 5.59074 10.4919 5.40966 10.4919C5.22858 10.4919 5.08179 10.6387 5.08179 10.8197C5.08179 11.0008 5.22858 11.1476 5.40966 11.1476Z" fill="#0167FF"/>
<path d="M18.8523 3.60656H14.2622V2.29508C14.2622 2.114 14.409 1.96721 14.59 1.96721H17.213C17.7562 1.96721 18.1966 1.52684 18.1966 0.983606C18.1966 0.440376 17.7562 0 17.213 0H14.2622C13.1762 0.00108439 12.2961 0.881201 12.295 1.96721V3.60656H7.7048C7.16157 3.60656 6.7212 4.04693 6.7212 4.59016V4.91803C6.72259 5.34056 6.99429 5.71475 7.39562 5.84688L7.51792 7.55967C7.36251 7.55049 7.20742 7.54098 7.04906 7.54098C6.57418 7.54199 6.1004 7.58655 5.63365 7.6741L4.83824 6.64131C5.59988 5.88721 5.64218 4.99836 5.25038 4.49016C4.85857 3.98197 3.98546 3.79705 3.06513 4.34L2.85234 4.06229C2.78207 3.96613 2.66517 3.91564 2.54698 3.9304C2.42879 3.94517 2.3279 4.02287 2.28345 4.13337C2.23899 4.24388 2.25796 4.36979 2.333 4.46229L2.54677 4.74033C1.78251 5.49443 1.74513 6.38524 2.13464 6.89147C2.53103 7.4059 3.40742 7.58 4.31988 7.04164L4.93431 7.83934C2.53824 8.52459 0.819556 10.3344 0.819556 12.459C0.818779 12.6033 0.827101 12.7476 0.844474 12.8908C0.883937 13.26 1.12792 13.5755 1.47529 13.7066V14.4262C0.815697 14.4254 0.258551 14.9155 0.175283 15.5698C0.092015 16.2242 0.508646 16.8382 1.14742 17.0026V17.7049C1.14755 18.1966 1.33285 18.6702 1.66644 19.0315H0.491687C0.31061 19.0315 0.163818 19.1783 0.163818 19.3593C0.163818 19.5404 0.31061 19.6872 0.491687 19.6872H19.5081C19.6892 19.6872 19.8359 19.5404 19.8359 19.3593C19.8359 19.1783 19.6892 19.0315 19.5081 19.0315H17.7891C18.0898 18.706 18.2714 18.2882 18.3041 17.8462L19.1615 5.84623C19.5627 5.71426 19.8344 5.34035 19.8359 4.91803V4.59016C19.8359 4.04693 19.3956 3.60656 18.8523 3.60656ZM2.653 6.4918C2.3907 6.15016 2.63136 5.61115 2.9507 5.26623L3.13234 5.50197C3.20262 5.59813 3.31952 5.64862 3.43771 5.63386C3.5559 5.61909 3.65678 5.54139 3.70124 5.43089C3.74569 5.32038 3.72672 5.19447 3.65169 5.10197L3.47005 4.86623C3.86644 4.65541 4.46152 4.54131 4.73103 4.89115C5.05693 5.3141 4.62218 6.00951 4.19234 6.34065C3.76251 6.6718 2.97923 6.91475 2.653 6.4918ZM12.9507 1.96721C12.9507 1.24291 13.5379 0.655738 14.2622 0.655738H17.213C17.3941 0.655738 17.5409 0.802529 17.5409 0.983606C17.5409 1.16468 17.3941 1.31148 17.213 1.31148H14.59C14.0468 1.31148 13.6064 1.75185 13.6064 2.29508V3.60656H12.9507V1.96721ZM18.3828 7.54098H8.17398L8.05693 5.90164H18.5002L18.3828 7.54098ZM17.7737 16.0656H13.8878C13.9173 15.9587 13.9329 15.8485 13.9343 15.7377C13.9343 15.0134 13.3471 14.4262 12.6228 14.4262V13.7049C12.9691 13.5754 13.2128 13.2619 13.253 12.8944C13.2707 12.75 13.2792 12.6045 13.2786 12.459C13.2786 12.3351 13.2664 12.2134 13.255 12.0918C13.9017 11.9383 14.3308 11.3246 14.253 10.6645C14.1753 10.0044 13.6154 9.50728 12.9507 9.50819C12.6933 9.50965 12.4421 9.58784 12.2294 9.73279C11.6556 9.07352 10.9433 8.54903 10.1435 8.19672H18.3363L17.7737 16.0656ZM12.6228 15.082C12.985 15.082 13.2786 15.3755 13.2786 15.7377C13.2786 16.0999 12.985 16.3934 12.6228 16.3934H6.52906L7.84054 15.082H12.6228ZM12.9507 17.7049V17.0026C13.147 16.9514 13.3287 16.8551 13.4812 16.7213H17.7268L17.65 17.799C17.5976 18.484 17.0278 19.0138 16.3409 19.0164H12.4458C12.7707 18.6568 12.9506 18.1895 12.9507 17.7049ZM12.614 10.2623C12.715 10.1991 12.8315 10.165 12.9507 10.1639C13.2746 10.1625 13.5505 10.399 13.5985 10.7193C13.6466 11.0396 13.4522 11.3467 13.1422 11.4403C13.0273 11.023 12.8491 10.6257 12.614 10.2623ZM5.36316 8.39705L6.13365 9.39738C6.24453 9.53971 6.44958 9.56572 6.59248 9.45557C6.73538 9.34542 6.76242 9.1405 6.653 8.99705L6.08874 8.26459C6.40699 8.22072 6.72781 8.19805 7.04906 8.19672C10.1225 8.19672 12.6228 10.1089 12.6228 12.459C12.6232 12.5795 12.6162 12.7 12.6019 12.8197C12.585 12.9878 12.443 13.1156 12.274 13.1148H1.82283C1.65258 13.1144 1.51054 12.9846 1.49497 12.8151C1.48116 12.6969 1.47459 12.578 1.47529 12.459C1.47529 10.5574 3.11169 8.94492 5.36316 8.39705ZM2.13103 13.7705H11.9671V14.4262H7.7048C7.61785 14.4262 7.53447 14.4608 7.473 14.5223L5.09759 16.8974L3.03202 14.5367C2.96983 14.4665 2.88056 14.4263 2.78677 14.4262H2.13103V13.7705ZM0.819556 15.7377C0.819556 15.3755 1.11314 15.082 1.47529 15.082H2.63792L3.78546 16.3934H1.47529C1.11314 16.3934 0.819556 16.0999 0.819556 15.7377ZM3.11464 19.0164C2.39033 19.0164 1.80316 18.4292 1.80316 17.7049V17.0492H4.36054L4.60579 17.3295C4.72552 17.4658 4.89626 17.5466 5.07759 17.5528H5.0989C5.27287 17.5526 5.43969 17.4835 5.56283 17.3607L5.87333 17.0492H12.295V17.7049C12.295 18.4292 11.7078 19.0164 10.9835 19.0164H3.11464ZM19.1802 4.91803C19.1802 5.09911 19.0334 5.2459 18.8523 5.2459H7.7048C7.52373 5.2459 7.37693 5.09911 7.37693 4.91803V4.59016C7.37693 4.40909 7.52373 4.26229 7.7048 4.26229H18.8523C19.0334 4.26229 19.1802 4.40909 19.1802 4.59016V4.91803Z" fill="#0167FF"/>
<path d="M16.2294 8.85236C15.5051 8.85236 14.918 9.43953 14.918 10.1638C14.918 10.8882 15.5051 11.4753 16.2294 11.4753C16.9537 11.4753 17.5409 10.8882 17.5409 10.1638C17.5409 9.43953 16.9537 8.85236 16.2294 8.85236ZM16.2294 10.8196C15.8673 10.8196 15.5737 10.526 15.5737 10.1638C15.5737 9.80168 15.8673 9.5081 16.2294 9.5081C16.5916 9.5081 16.8852 9.80168 16.8852 10.1638C16.8852 10.526 16.5916 10.8196 16.2294 10.8196Z" fill="#0167FF"/>
<path d="M15.2458 13.1146C14.7026 13.1146 14.2622 13.555 14.2622 14.0982C14.2622 14.6415 14.7026 15.0818 15.2458 15.0818C15.789 15.0818 16.2294 14.6415 16.2294 14.0982C16.2294 13.555 15.789 13.1146 15.2458 13.1146ZM15.2458 14.4261C15.0647 14.4261 14.9179 14.2793 14.9179 14.0982C14.9179 13.9172 15.0647 13.7704 15.2458 13.7704C15.4269 13.7704 15.5737 13.9172 15.5737 14.0982C15.5737 14.2793 15.4269 14.4261 15.2458 14.4261Z" fill="#0167FF"/>
</svg>
