<svg width="101" height="100" viewBox="0 0 101 100" fill="none" xmlns="http://www.w3.org/2000/svg">
<g clip-path="url(#clip0)">
<path d="M15.8345 23.4373V76.5623C15.8345 86.827 23.753 95.2416 33.8146 96.0324L23.647 96.0936C12.8601 96.0936 4.11572 87.3492 4.11572 76.5623V23.4373C4.11572 12.6504 12.8601 3.90605 23.647 3.90605L32.8706 3.87207C23.262 5.12344 15.8345 13.4959 15.8345 23.4373ZM75.9429 79.9699V76.6867H74.0116C70.1528 76.6867 66.8286 73.257 67.397 69.4404L69.3501 57.3731C69.9921 52.7926 72.3097 48.6611 76.1638 46.1041C77.3878 45.292 78.761 44.6441 80.213 44.1803C80.2397 44.1029 80.262 44.0285 80.2876 43.9518C78.6454 43.4398 76.9048 43.1637 75.1612 43.1637C71.8312 43.1637 68.5083 44.1623 65.8718 45.9115C62.0177 48.4686 59.4907 52.6 58.8487 57.1805L57.3448 66.8764C54.3991 67.5521 52.2013 70.1875 52.2013 73.3383C52.2013 77.0008 55.1704 79.9699 58.8329 79.9699H75.9429Z" fill="#E5F8FA"/>
<path d="M53.3345 100H23.647C10.7235 100 0.209473 89.4859 0.209473 76.5625V23.4375C0.209473 10.5141 10.7235 0 23.647 0H76.772C89.6954 0 100.209 10.5141 100.209 23.4375V34.9609C100.209 37.1184 98.4606 38.8672 96.3032 38.8672C94.1458 38.8672 92.397 37.1184 92.397 34.9609V23.4375C92.397 14.8219 85.3876 7.8125 76.772 7.8125H23.647C15.0313 7.8125 8.02197 14.8219 8.02197 23.4375V76.5625C8.02197 85.1781 15.0313 92.1875 23.647 92.1875H53.3345C55.4919 92.1875 57.2407 93.9363 57.2407 96.0938C57.2407 98.2512 55.4919 100 53.3345 100ZM82.6313 26.9531C82.6313 24.7957 80.8825 23.0469 78.7251 23.0469H38.2954C36.138 23.0469 34.3892 24.7957 34.3892 26.9531C34.3892 29.1105 36.138 30.8594 38.2954 30.8594H78.7251C80.8825 30.8594 82.6313 29.1105 82.6313 26.9531ZM46.4985 50C46.4985 47.8426 44.7497 46.0938 42.5923 46.0938H38.2954C36.138 46.0938 34.3892 47.8426 34.3892 50C34.3892 52.1574 36.138 53.9062 38.2954 53.9062H42.5923C44.7497 53.9062 46.4985 52.1574 46.4985 50ZM100.209 73.3387C100.209 69.3328 97.9261 65.7459 94.4987 63.9719L93.346 56.6063C92.5343 50.8822 89.3546 45.7992 84.6183 42.657C81.3146 40.465 77.2485 39.2578 73.1694 39.2578C69.0903 39.2578 65.0243 40.465 61.7204 42.6568C56.9839 45.7996 53.804 50.8834 52.9929 56.6082L51.8376 64.0564C48.4796 65.852 46.3032 69.3625 46.3032 73.3387C46.3032 79.2086 51.0306 83.9844 56.8411 83.9844H89.6716C95.4821 83.9844 100.209 79.2086 100.209 73.3387ZM80.2993 49.1668C83.1827 51.0797 85.1196 54.1984 85.6136 57.723C85.6165 57.7437 85.6194 57.7643 85.6228 57.785L87.1345 67.4432C87.3872 69.0574 88.6179 70.3438 90.219 70.6678C91.4812 70.9232 92.397 72.0465 92.397 73.3387C92.397 74.8744 91.1487 76.1719 89.6716 76.1719H56.8411C55.364 76.1719 54.1157 74.8744 54.1157 73.3387C54.1157 72.0811 55.0034 70.9647 56.2265 70.6842C57.7849 70.3266 58.9681 69.0557 59.2132 67.4756L60.7171 57.7797C60.72 57.7609 60.7228 57.742 60.7255 57.723C61.2194 54.1984 63.1563 51.0799 66.0396 49.1668C68.0478 47.8346 70.6466 47.0703 73.1694 47.0703C75.6923 47.0703 78.2909 47.8346 80.2993 49.1668ZM79.5063 65.625C79.5063 63.4676 77.7575 61.7188 75.6001 61.7188H70.3267C68.1692 61.7188 66.4204 63.4676 66.4204 65.625C66.4204 67.7824 68.1692 69.5312 70.3267 69.5312H75.6001C77.7575 69.5312 79.5063 67.7824 79.5063 65.625Z" fill="#0167FF"/>
<path d="M73.4581 100C68.481 100 64.2942 96.3348 63.7196 91.4742C63.4663 89.3318 64.9978 87.3896 67.1401 87.1363C69.2831 86.8828 71.2249 88.4145 71.478 90.557C71.588 91.4865 72.4394 92.1875 73.4583 92.1875C74.4774 92.1875 75.3286 91.4867 75.4384 90.5572C75.6917 88.4148 77.6374 86.883 79.7761 87.1363C81.9187 87.3895 83.4503 89.3314 83.1972 91.474C82.6224 96.3346 78.4358 100 73.4581 100ZM22.6704 22.2656C19.9737 22.2656 17.7876 24.4518 17.7876 27.1484C17.7876 29.8451 19.9737 32.0312 22.6704 32.0312C25.3671 32.0312 27.5532 29.8451 27.5532 27.1484C27.5532 24.4518 25.3671 22.2656 22.6704 22.2656ZM22.6704 45.1172C19.9737 45.1172 17.7876 47.3033 17.7876 50C17.7876 52.6967 19.9737 54.8828 22.6704 54.8828C25.3671 54.8828 27.5532 52.6967 27.5532 50C27.5532 47.3033 25.3671 45.1172 22.6704 45.1172ZM22.6704 68.1641C19.9737 68.1641 17.7876 70.3502 17.7876 73.0469C17.7876 75.7436 19.9737 77.9297 22.6704 77.9297C25.3671 77.9297 27.5532 75.7436 27.5532 73.0469C27.5532 70.3502 25.3671 68.1641 22.6704 68.1641Z" fill="#FF358A"/>
</g>
<defs>
<clipPath id="clip0">
<rect width="100" height="100" fill="white" transform="translate(0.209473)"/>
</clipPath>
</defs>
</svg>
