<svg width="101" height="100" viewBox="0 0 101 100" fill="none" xmlns="http://www.w3.org/2000/svg">
<path d="M28.4321 76.5625V23.4375C28.4321 12.6506 37.1767 3.90625 47.9634 3.90625H36.2446C25.4579 3.90625 16.7134 12.6506 16.7134 23.4375V76.5625C16.7134 87.3494 25.4579 96.0938 36.2446 96.0938H47.9634C37.1767 96.0938 28.4321 87.3492 28.4321 76.5625Z" fill="#E5F8FA"/>
<path d="M64.1743 100H36.2446C23.3212 100 12.8071 89.4859 12.8071 76.5625V23.4375C12.8071 10.5141 23.3212 0 36.2446 0H64.1743C77.0978 0 87.6118 10.5141 87.6118 23.4375V76.5625C87.6118 89.4859 77.0978 100 64.1743 100ZM36.2446 7.8125C27.629 7.8125 20.6196 14.8219 20.6196 23.4375V76.5625C20.6196 85.1781 27.629 92.1875 36.2446 92.1875H64.1743C72.7899 92.1875 79.7993 85.1781 79.7993 76.5625V23.4375C79.7993 14.8219 72.7899 7.8125 64.1743 7.8125H36.2446ZM33.3149 57.7975C30.6183 57.7975 28.4321 59.9836 28.4321 62.6803C28.4321 65.377 30.6183 67.5631 33.3149 67.5631C36.0116 67.5631 38.1978 65.377 38.1978 62.6803C38.1978 59.9836 36.0116 57.7975 33.3149 57.7975ZM50.3071 57.7975C47.6105 57.7975 45.4243 59.9836 45.4243 62.6803C45.4243 65.377 47.6105 67.5631 50.3071 67.5631C53.0038 67.5631 55.1899 65.377 55.1899 62.6803C55.1899 59.9836 53.0038 57.7975 50.3071 57.7975ZM67.104 57.7975C64.4073 57.7975 62.2212 59.9836 62.2212 62.6803C62.2212 65.377 64.4073 67.5631 67.104 67.5631C69.8007 67.5631 71.9868 65.377 71.9868 62.6803C71.9868 59.9836 69.8007 57.7975 67.104 57.7975ZM33.5103 74.5943C30.8136 74.5943 28.6274 76.7805 28.6274 79.4771C28.6274 82.1738 30.8136 84.36 33.5103 84.36C36.2069 84.36 38.3931 82.1738 38.3931 79.4771C38.3931 76.7805 36.2069 74.5943 33.5103 74.5943ZM50.3071 74.5943C47.6105 74.5943 45.4243 76.7805 45.4243 79.4771C45.4243 82.1738 47.6105 84.36 50.3071 84.36C53.0038 84.36 55.1899 82.1738 55.1899 79.4771C55.1899 76.7805 53.0038 74.5943 50.3071 74.5943ZM67.104 74.5943C64.4073 74.5943 62.2212 76.7805 62.2212 79.4771C62.2212 82.1738 64.4073 84.36 67.104 84.36C69.8007 84.36 71.9868 82.1738 71.9868 79.4771C71.9868 76.7805 69.8007 74.5943 67.104 74.5943Z" fill="#0167FF"/>
<path d="M38.1961 30.3072C35.1777 30.3072 33.2765 27.0164 34.8254 24.4257C36.3607 21.858 38.4925 19.6861 41.0281 18.1029C43.639 16.4726 47.024 18.3261 47.024 21.404C47.024 22.7427 46.3465 24.0011 45.2068 24.7035C43.7031 25.6304 42.4394 26.9107 41.5332 28.4283C40.8336 29.5997 39.5605 30.3072 38.1961 30.3072ZM55.0084 24.7029C56.5121 25.6298 57.7757 26.9101 58.682 28.4277C59.3816 29.599 60.6547 30.3064 62.0191 30.3064H62.0193C65.0375 30.3064 66.9388 27.0156 65.39 24.4249C63.8547 21.8572 61.7228 19.6853 59.1873 18.1021C56.5763 16.4718 53.1914 18.3253 53.1914 21.4033C53.1912 22.7419 53.8687 24.0003 55.0084 24.7029ZM58.4988 38.2585C57.615 39.6376 56.4302 40.806 55.0379 41.6705C53.8906 42.3828 53.1924 43.6365 53.1924 44.9871V44.9872C53.1924 48.0544 56.5642 49.9228 59.1679 48.3017C61.5396 46.8249 63.559 44.8337 65.0687 42.4851C66.7371 39.8898 64.8613 36.4755 61.7759 36.4755C60.4517 36.4755 59.2134 37.1437 58.4988 38.2585ZM45.184 41.663C43.7916 40.7986 42.6068 39.6302 41.723 38.2511C41.0086 37.1363 39.7701 36.4679 38.4459 36.4679C35.3605 36.4679 33.4845 39.8822 35.1531 42.4775C36.6629 44.8261 38.6824 46.8173 41.0539 48.2941C43.6576 49.9154 47.0295 48.0468 47.0295 44.9796V44.9794C47.0295 43.629 46.3312 42.3753 45.184 41.663Z" fill="#FF358A"/>
</svg>
