<svg width="101" height="100" viewBox="0 0 101 100" fill="none" xmlns="http://www.w3.org/2000/svg">
<g clip-path="url(#clip0)">
<path d="M16.0298 76.5625V23.4375C16.0298 12.6506 24.7741 3.90625 35.561 3.90625H23.647C12.8601 3.90625 4.11572 12.6506 4.11572 23.4375V76.5625C4.11572 87.3492 12.8601 96.0938 23.647 96.0938H35.561C24.7741 96.0938 16.0298 87.3492 16.0298 76.5625Z" fill="#E5F8FA"/>
<path d="M76.772 100H23.647C10.7235 100 0.209473 89.4859 0.209473 76.5625V23.4375C0.209473 10.5141 10.7235 0 23.647 0H76.772C89.6954 0 100.209 10.5141 100.209 23.4375V76.5625C100.209 89.4859 89.6954 100 76.772 100ZM23.647 7.8125C15.0313 7.8125 8.02197 14.8219 8.02197 23.4375V76.5625C8.02197 85.1781 15.0313 92.1875 23.647 92.1875H76.772C85.3876 92.1875 92.397 85.1781 92.397 76.5625V23.4375C92.397 14.8219 85.3876 7.8125 76.772 7.8125H23.647Z" fill="#0167FF"/>
<path d="M63.9694 81.4432C62.3282 81.4432 60.6778 81.0506 59.1505 80.2557L51.4103 76.2275C50.6579 75.8361 49.7601 75.8357 49.0077 76.2275L41.2677 80.2557C37.7302 82.0969 33.5345 81.7793 30.3175 79.4275C27.1364 77.102 25.5767 73.2543 26.2468 69.3857L27.7249 60.8539C27.8628 60.0574 27.5935 59.2426 27.0044 58.6742L20.7425 52.6318C17.8974 49.8861 16.8825 45.8498 18.094 42.0979C19.314 38.3199 22.5263 35.6201 26.4773 35.052L35.131 33.807C35.9655 33.6869 36.6841 33.1736 37.0528 32.4342L40.923 24.6717C42.6841 21.1395 46.2421 18.9453 50.2091 18.9453C54.1761 18.9453 57.7341 21.1395 59.495 24.6717L63.3649 32.434C63.7339 33.1736 64.4523 33.6869 65.287 33.807L73.9407 35.052C77.8917 35.6201 81.104 38.3199 82.3239 42.0979C83.5355 45.8498 82.5208 49.8861 79.6755 52.6316L73.4136 58.6742C72.8243 59.2426 72.555 60.0574 72.6931 60.8537L74.1712 69.3857C74.8415 73.2543 73.2816 77.102 70.1005 79.4275C68.2728 80.7637 66.129 81.4432 63.9694 81.4432ZM50.2091 68.1223C51.8607 68.1223 53.5116 68.5139 55.0171 69.2975L62.7571 73.3256C64.0495 73.9982 65.0987 73.4063 65.49 73.1205C65.8634 72.8477 66.7069 72.0668 66.4735 70.7193L64.9954 62.1875C64.4146 58.8363 65.5337 55.4211 67.9888 53.0522L74.2507 47.0098C75.2481 46.0473 75.0296 44.933 74.8896 44.4988C74.7452 44.052 74.2556 42.99 72.8284 42.785L64.1747 41.54C60.8023 41.0551 57.886 38.9541 56.3733 35.9199L52.5036 28.1578C51.8733 26.8941 50.6892 26.7578 50.2091 26.7578C49.729 26.7578 48.5448 26.8941 47.9148 28.1576L44.0448 35.9199C42.5323 38.9539 39.6159 41.0549 36.2437 41.5398L27.5899 42.7848C26.1628 42.99 25.6733 44.0518 25.5288 44.4986C25.3886 44.933 25.17 46.0473 26.1677 47.0098L32.4296 53.052C34.8847 55.4211 36.0038 58.8361 35.423 62.1875L33.9448 70.7191C33.7114 72.0666 34.555 72.8473 34.9284 73.1203C35.3194 73.4062 36.3681 73.9977 37.6614 73.3254L45.4013 69.2973C46.9062 68.5141 48.5579 68.1223 50.2091 68.1223Z" fill="#FF358A"/>
</g>
<defs>
<clipPath id="clip0">
<rect width="100" height="100" fill="white" transform="translate(0.209473)"/>
</clipPath>
</defs>
</svg>
