<svg width="101" height="100" viewBox="0 0 101 100" fill="none" xmlns="http://www.w3.org/2000/svg">
<path d="M15.834 76.551V34.6711C9.38866 33.0122 4.55586 27.3459 4.14688 20.4863L4.11523 20.5195V76.551C4.11523 87.3446 12.8664 96.0942 23.6613 96.0942H35.38C24.5851 96.0942 15.834 87.3446 15.834 76.551Z" fill="#E5F8FA"/>
<path d="M96.3032 27.5498C98.4607 27.5498 100.209 25.8012 100.209 23.6441V19.5432C100.209 8.76706 91.4409 0 80.6632 0C80.6632 0 19.4314 0.00917832 19.2804 0.0269491C14.1263 0.207001 9.17535 2.41839 5.60661 6.15729C1.94861 9.98953 0.0415883 14.9739 0.22108 20.2183C0.213658 20.3177 0.209752 76.5511 0.209752 76.5511C0.209752 89.4809 10.7304 100 23.662 100H80.6634C91.4411 100 100.209 91.2329 100.209 80.4568V50.8034C100.209 40.0273 91.4411 31.2602 80.6634 31.2602H19.7408C13.4691 31.2602 8.32731 26.359 8.03493 20.1021C7.88629 16.9205 9.03102 13.8835 11.258 11.5502C13.5171 9.1834 16.69 7.82618 19.9626 7.82618C20.0781 7.82618 80.663 7.81134 80.663 7.81134C87.1329 7.81134 92.3966 13.0742 92.3966 19.5432V23.6441C92.397 25.8012 94.1458 27.5498 96.3032 27.5498ZM19.7408 39.0715H80.6632C87.1331 39.0715 92.3968 44.3344 92.3968 50.8034V80.4568C92.3968 86.9258 87.1331 92.1887 80.6632 92.1887H23.662C15.0382 92.1887 8.02223 85.1737 8.02223 76.5511V35.1817C11.2894 37.6286 15.349 39.0715 19.7408 39.0715Z" fill="#0167FF"/>
<path d="M84.5848 65.6303C84.5848 68.3266 82.3986 70.5124 79.702 70.5124C77.0053 70.5124 74.8192 68.3266 74.8192 65.6303C74.8192 62.934 77.0053 60.7482 79.702 60.7482C82.3986 60.7482 84.5848 62.934 84.5848 65.6303ZM84.5848 19.5434C84.5848 17.3863 82.8359 15.6377 80.6785 15.6377H19.7412C17.5838 15.6377 15.835 17.3863 15.835 19.5434C15.835 21.7005 17.5838 23.449 19.7412 23.449H80.6785C82.8357 23.449 84.5848 21.7005 84.5848 19.5434Z" fill="#FF358A"/>
</svg>
