<svg width="100" height="100" viewBox="0 0 100 100" fill="none" xmlns="http://www.w3.org/2000/svg">
<path opacity="0.2" d="M37.7027 34.5508C42.8033 29.1627 43.2168 20.2118 43.891 10.3232C44.2555 4.97764 50.3207 2.10879 54.723 5.16336C55.5457 5.73401 56.3455 6.32438 57.1246 6.93115C56.4742 7.88516 56.0818 9.03348 55.9625 10.3232C54.2969 28.3267 52.1484 41.9971 31.0547 41.9971C31.0547 41.9971 37.6748 35.059 37.7027 34.5508ZM15.9777 57.4255C15.9777 47.6444 18.5721 42.5026 23.4555 37.1388C24.2328 36.285 25.1447 35.68 26.1141 35.3039C25.9018 34.9547 25.542 33.598 25.5221 33.5386C23.7982 28.4346 17.2529 27.0399 13.626 31.0236C8.74258 36.3874 3.90625 44.8932 3.90625 55.2939C3.90625 77.8269 22.3078 96.0936 44.8432 96.0936C46.8283 96.0936 48.7807 95.9493 50.692 95.6755C31.0879 93.009 15.9777 77.8441 15.9777 57.4255Z" fill="#2F3144"/>
<path d="M44.8432 100C20.1166 100 0 79.9452 0 55.2944C0 42.1508 6.72734 32.7994 10.7373 28.3949C13.3762 25.4964 17.2395 24.2457 21.0703 25.047C24.9154 25.852 27.9631 28.5596 29.2229 32.2895C29.3416 32.6427 29.3914 32.9431 29.4197 33.223C29.6967 33.7149 30.1238 33.9492 30.3801 34.051C30.7014 34.1787 31.3471 34.3373 32.0631 33.9635C38.2963 30.7062 39.1082 23.1913 39.9164 11.2L39.9938 10.0581C40.2607 6.1417 42.533 2.78794 46.0721 1.08694C49.6334 -0.62441 53.6996 -0.300029 56.9498 1.95482C72.2324 12.5582 79.4799 28.4682 82.4397 37.0081C83.1461 39.0464 82.0662 41.2712 80.0277 41.9775C77.9891 42.6837 75.7641 41.6043 75.0578 39.5659C72.4096 31.925 65.957 17.7122 52.4959 8.37253C51.1846 7.46266 49.9334 7.89758 49.4564 8.12724C48.99 8.35144 47.8936 9.04024 47.7881 10.5889L47.7111 11.7245C47.3109 17.6628 46.9328 23.2716 45.4838 28.1862C43.7064 34.2137 40.5002 38.3679 35.6816 40.8859C33.1395 42.2144 30.1539 42.3685 27.4904 41.3081C24.852 40.258 22.8104 38.1205 21.8889 35.444C21.7578 35.0628 21.7072 34.7306 21.6791 34.4314C21.092 33.164 19.9582 32.7945 19.4691 32.6922C18.9434 32.5816 17.6041 32.4557 16.5145 33.6526C13.8979 36.5265 7.8123 44.388 7.8123 55.2934C7.8123 75.6368 24.4242 92.1873 44.843 92.1873C50.2273 92.1873 55.4225 91.0556 60.2838 88.8232C62.2441 87.9231 64.5635 88.7826 65.4637 90.7427C66.3641 92.7031 65.5045 95.022 63.5439 95.9221C57.6529 98.6283 51.3609 100 44.8432 100Z" fill="white"/>
<path d="M78.5151 87.0965C75.8946 87.0967 73.2751 86.2782 71.0884 84.6409C62.0655 77.8855 57.2046 69.7944 57.0315 61.2423C57.031 61.2159 57.0308 61.1896 57.0308 61.1634C57.0308 54.1491 62.7259 48.4424 69.7261 48.4424C73.1339 48.4424 76.2323 49.7919 78.5151 51.9846C80.798 49.7919 83.8964 48.4424 87.3042 48.4424C94.3044 48.4424 99.9995 54.1491 99.9995 61.1634C99.9995 61.1898 99.9993 61.2161 99.9987 61.2423C99.8257 69.7944 94.9649 77.8857 85.9417 84.6411C83.7558 86.2779 81.1351 87.0963 78.5151 87.0965ZM64.8435 61.1273C65.0194 68.7615 70.8802 74.7263 75.771 78.388C77.387 79.5979 79.6437 79.5975 81.2591 78.3882C86.1501 74.7263 92.0108 68.7615 92.1868 61.1273C92.1675 58.4369 89.9847 56.2541 87.3042 56.2541C84.6118 56.2541 82.4214 58.4443 82.4214 61.1364C82.4214 63.2936 80.6726 65.0423 78.5151 65.0423C76.3577 65.0423 74.6089 63.2936 74.6089 61.1364C74.6089 58.4443 72.4185 56.2541 69.7261 56.2541C67.0456 56.2541 64.8628 58.4369 64.8435 61.1273ZM90.2339 14.8087C90.2339 12.1279 88.0478 9.96973 85.3511 9.96973C82.6544 9.96973 80.4683 12.1429 80.4683 14.8235C80.5634 19.4871 83.6966 23.275 87.4087 26.0296C89.0806 27.2703 91.3872 27.2703 93.0591 26.0296C96.7712 23.275 99.9044 19.4871 99.9995 14.8235C99.9995 12.1429 97.8134 9.96973 95.1167 9.96973C92.42 9.96973 90.2339 12.1281 90.2339 14.8087Z" fill="#FF358A"/>
</svg>
