<svg width="21" height="20" viewBox="0 0 21 20" fill="none" xmlns="http://www.w3.org/2000/svg">
<path fill-rule="evenodd" clip-rule="evenodd" d="M12.5513 2.55298C12.4879 2.42601 12.3982 2.31399 12.2882 2.22436C12.1782 2.13473 12.0503 2.06954 11.9132 2.03312C11.776 1.99671 11.6327 1.9899 11.4927 2.01315C11.3527 2.0364 11.2193 2.08918 11.1013 2.16798C10.7563 2.39798 10.4873 2.72598 10.2793 3.04798C10.0653 3.37798 9.87626 3.76098 9.70926 4.16398C9.37526 4.96798 9.09526 5.93198 8.86926 6.89798C8.59594 8.07847 8.39126 9.27381 8.25626 10.478C7.84939 10.2157 7.52247 9.84656 7.31126 9.41098C6.98326 8.73098 6.91325 7.87698 6.91325 6.75698C6.91321 6.55923 6.85454 6.36593 6.74466 6.20152C6.63477 6.03711 6.47861 5.90897 6.29591 5.8333C6.11321 5.75763 5.91218 5.73783 5.71822 5.7764C5.52427 5.81496 5.34611 5.91017 5.20626 6.04998C4.55542 6.69942 4.03928 7.47102 3.68748 8.32049C3.33568 9.16995 3.15515 10.0805 3.15626 11C3.15634 12.1511 3.4403 13.2844 3.98299 14.2996C4.52569 15.3148 5.31036 16.1804 6.2675 16.8199C7.22465 17.4594 8.32474 17.853 9.47032 17.9658C10.6159 18.0786 11.7716 17.9071 12.8351 17.4666C13.8986 17.0261 14.837 16.3301 15.5673 15.4403C16.2976 14.5504 16.7971 13.4942 17.0217 12.3652C17.2463 11.2362 17.189 10.0693 16.8549 8.96772C16.5208 7.86616 15.9202 6.86399 15.1063 6.04998C14.5143 5.45898 14.1263 5.06498 13.7583 4.58298C13.3953 4.10698 13.0343 3.51998 12.5513 2.55298ZM12.2763 15.12C11.8567 15.539 11.3224 15.8243 10.7408 15.9398C10.1592 16.0554 9.55641 15.996 9.00856 15.7691C8.46071 15.5423 7.99237 15.1582 7.66269 14.6653C7.33301 14.1724 7.15678 13.5929 7.15626 13C7.15626 13 8.03526 13.5 9.65626 13.5C9.65626 12.5 10.1563 9.49998 10.9063 8.99998C11.4063 9.99998 11.6923 10.293 12.2773 10.879C12.5563 11.1572 12.7776 11.4878 12.9284 11.8517C13.0793 12.2157 13.1567 12.606 13.1563 13C13.1567 13.394 13.0793 13.7842 12.9284 14.1482C12.7776 14.5122 12.5563 14.8428 12.2773 15.121L12.2763 15.12Z" fill="#FF358A"/>
</svg>
