<svg width="25" height="24" viewBox="0 0 25 24" fill="none" xmlns="http://www.w3.org/2000/svg">
<path fill-rule="evenodd" clip-rule="evenodd" d="M17.3125 2C20.7015 2 22.9785 4.378 22.9785 7.916V16.084C22.9785 19.622 20.7015 22 17.3105 22H8.64252C5.25452 22 2.97852 19.622 2.97852 16.084V7.916C2.97852 4.378 5.25452 2 8.64252 2H17.3125ZM17.3125 3.5H8.64252C6.11352 3.5 4.47852 5.233 4.47852 7.916V16.084C4.47852 18.767 6.11352 20.5 8.64252 20.5H17.3105C19.8425 20.5 21.4785 18.767 21.4785 16.084V7.916C21.4785 5.233 19.8425 3.5 17.3125 3.5ZM9.81532 9.3984C10.9906 9.39922 11.984 10.18 12.3068 11.2489L17.9882 11.2495C18.4022 11.2495 18.7382 11.5855 18.7382 11.9995V13.8525C18.7382 14.2665 18.4022 14.6025 17.9882 14.6025C17.5742 14.6025 17.2382 14.2665 17.2382 13.8525V12.7495L15.9095 12.749L15.91 13.8525C15.91 14.2665 15.574 14.6025 15.16 14.6025C14.746 14.6025 14.41 14.2665 14.41 13.8525L14.4095 12.749L12.3072 12.75C11.9846 13.8201 10.9897 14.6024 9.81532 14.6024C8.38032 14.6024 7.21332 13.4344 7.21332 12.0004C7.21332 10.5654 8.38032 9.3984 9.81532 9.3984ZM9.81732 10.8984C9.20732 10.8984 8.71332 11.3924 8.71332 12.0004C8.71332 12.6084 9.20732 13.1024 9.81532 13.1024C10.4223 13.1024 10.9173 12.6084 10.9173 12.0004C10.9173 11.3934 10.4233 10.8994 9.81732 10.8984Z" fill="#9C71EB"/>
</svg>
