<svg width="21" height="20" viewBox="0 0 21 20" fill="none" xmlns="http://www.w3.org/2000/svg">
<path fill-rule="evenodd" clip-rule="evenodd" d="M15.3125 0C18.7015 0 20.9785 2.378 20.9785 5.916V14.084C20.9785 17.622 18.7015 20 15.3105 20H6.64252C3.25452 20 0.978516 17.622 0.978516 14.084V5.916C0.978516 2.378 3.25452 0 6.64252 0H15.3125ZM15.3125 1.5H6.64252C4.11352 1.5 2.47852 3.233 2.47852 5.916V14.084C2.47852 16.767 4.11352 18.5 6.64252 18.5H15.3105C17.8425 18.5 19.4785 16.767 19.4785 14.084V5.916C19.4785 3.233 17.8425 1.5 15.3125 1.5ZM7.81532 7.3984C8.99061 7.39922 9.98396 8.18001 10.3068 9.24892L15.9882 9.2495C16.4022 9.2495 16.7382 9.5855 16.7382 9.9995V11.8525C16.7382 12.2665 16.4022 12.6025 15.9882 12.6025C15.5742 12.6025 15.2382 12.2665 15.2382 11.8525V10.7495L13.9095 10.749L13.91 11.8525C13.91 12.2665 13.574 12.6025 13.16 12.6025C12.746 12.6025 12.41 12.2665 12.41 11.8525L12.4095 10.749L10.3072 10.75C9.9846 11.8201 8.98971 12.6024 7.81532 12.6024C6.38032 12.6024 5.21332 11.4344 5.21332 10.0004C5.21332 8.5654 6.38032 7.3984 7.81532 7.3984ZM7.81732 8.8984C7.20732 8.8984 6.71332 9.3924 6.71332 10.0004C6.71332 10.6084 7.20732 11.1024 7.81532 11.1024C8.42232 11.1024 8.91732 10.6084 8.91732 10.0004C8.91732 9.3934 8.42332 8.8994 7.81732 8.8984Z" fill="#18AA88"/>
</svg>
