<svg width="41" height="40" viewBox="0 0 41 40" fill="none" xmlns="http://www.w3.org/2000/svg">
<path fill-rule="evenodd" clip-rule="evenodd" d="M28.209 0C35.285 0 40.041 4.552 40.041 11.33V28.668C40.041 35.446 35.285 40 28.209 40H11.873C4.79702 40 0.0410156 35.446 0.0410156 28.668V11.33C0.0410156 4.552 4.79702 0 11.873 0H28.209ZM28.209 3H11.873C6.50702 3 3.04102 6.27 3.04102 11.33V28.668C3.04102 33.728 6.50702 37 11.873 37H28.209C33.575 37 37.041 33.728 37.041 28.668V11.33C37.041 6.27 33.575 3 28.209 3ZM21.7436 11.442L29.2581 18.9245C29.3143 18.9791 29.3662 19.038 29.4133 19.1008L29.2716 18.938C29.3425 19.0079 29.4055 19.0842 29.4602 19.1656C29.484 19.2025 29.5072 19.2406 29.5288 19.2798C29.5464 19.3105 29.5625 19.3424 29.5774 19.3749C29.591 19.4062 29.6041 19.4376 29.6162 19.4695C29.6286 19.5006 29.6394 19.5323 29.6491 19.5644C29.6828 19.6776 29.7042 19.7965 29.7107 19.9193C29.7129 19.9466 29.7136 19.9732 29.7136 20L29.707 20.078L29.6991 20.2035C29.6883 20.283 29.6713 20.3606 29.6485 20.4357C29.6394 20.4677 29.6286 20.4994 29.6167 20.5308C29.6041 20.5624 29.591 20.5938 29.5768 20.6246C29.5625 20.6576 29.5464 20.6895 29.5292 20.7209C29.5072 20.7594 29.484 20.7975 29.4592 20.8345C29.4454 20.8563 29.4301 20.8779 29.4141 20.8991C29.3704 20.9563 29.3237 21.0102 29.2733 21.0605L29.2716 21.062L21.7436 28.558C21.4516 28.85 21.0676 28.996 20.6856 28.996C20.3016 28.996 19.9156 28.85 19.6236 28.554C19.0396 27.966 19.0416 27.018 19.6276 26.434L24.581 21.5H11.8688C11.0408 21.5 10.3688 20.828 10.3688 20C10.3688 19.172 11.0408 18.5 11.8688 18.5H24.581L19.6276 13.566C19.0416 12.982 19.0396 12.034 19.6236 11.446C20.2076 10.858 21.1556 10.858 21.7436 11.442Z" fill="white"/>
</svg>
