<svg width="21" height="20" viewBox="0 0 21 20" fill="none" xmlns="http://www.w3.org/2000/svg">
<path fill-rule="evenodd" clip-rule="evenodd" d="M10.4688 1.66834C12.9022 1.66834 14.8838 3.65001 14.8838 6.08584L14.8837 7.39967C16.3631 7.91452 17.4272 9.32285 17.4272 10.9757V14.5498C17.4272 16.6373 15.7297 18.3348 13.6422 18.3348H7.27475C5.18725 18.3348 3.48975 16.6373 3.48975 14.5498V10.9757C3.48975 9.32316 4.55351 7.91505 6.03242 7.39997L6.033 6.08584C6.038 4.88584 6.50216 3.77834 7.33966 2.94834C8.178 2.11751 9.28466 1.63668 10.4688 1.66834ZM13.6422 8.44068H7.27475C5.87641 8.44068 4.73975 9.57734 4.73975 10.9757V14.5498C4.73975 15.9482 5.87641 17.0848 7.27475 17.0848H13.6422C15.0397 17.0848 16.1772 15.9482 16.1772 14.5498V10.9757C16.1772 9.57734 15.0397 8.44068 13.6422 8.44068ZM10.4583 11.2122C10.8033 11.2122 11.0833 11.4922 11.0833 11.8372V13.688C11.0833 14.033 10.8033 14.313 10.4583 14.313C10.1133 14.313 9.83333 14.033 9.83333 13.688V11.8372C9.83333 11.4922 10.1133 11.2122 10.4583 11.2122ZM10.4663 2.91834H10.453C9.60883 2.91834 8.818 3.24334 8.2205 3.83584C7.61883 4.43084 7.28633 5.22501 7.283 6.07168L7.28225 7.1902H13.6331L13.6338 6.08584C13.6338 4.33918 12.213 2.91834 10.4663 2.91834Z" fill="white"/>
</svg>
