<svg width="16" height="17" viewBox="0 0 16 17" fill="none" xmlns="http://www.w3.org/2000/svg">
<path fill-rule="evenodd" clip-rule="evenodd" d="M6.76483 3.96904C7.0535 4.19571 7.2195 4.53371 7.2195 4.89638C7.2195 7.81971 7.31816 8.60638 7.7215 8.90571C7.98616 9.10104 8.34883 9.09904 9.57083 9.06504C10.1388 9.04838 10.8662 9.02704 11.8188 9.02704C12.1988 9.02704 12.5568 9.18971 12.7995 9.47304C13.0248 9.73638 13.1235 10.0804 13.0715 10.419C12.6262 13.3024 10.1728 15.3964 7.23816 15.3964C3.98216 15.3964 1.3335 12.7477 1.3335 9.49238C1.3335 6.91104 3.2855 4.32971 5.68483 3.73904C6.0595 3.64771 6.46216 3.73304 6.76483 3.96904ZM5.98816 4.70238C5.96683 4.70238 5.9455 4.70504 5.92416 4.71038C3.94416 5.19771 2.3335 7.34304 2.3335 9.49238C2.3335 12.1964 4.5335 14.3964 7.23816 14.3964C9.67616 14.3964 11.7135 12.6597 12.0828 10.2664C12.0855 10.2464 12.0948 10.1884 12.0402 10.1237C11.9882 10.063 11.9055 10.027 11.8188 10.027C10.8782 10.027 10.1602 10.0484 9.5995 10.0644C8.24216 10.105 7.68083 10.1204 7.12616 9.70904C6.33303 9.12147 6.22876 8.13367 6.22015 5.36174L6.2195 4.89638C6.2195 4.84038 6.1955 4.79371 6.1475 4.75638C6.10283 4.72104 6.04616 4.70238 5.98816 4.70238ZM13.3671 2.98924C14.5391 4.16058 15.2831 5.69991 15.2618 6.91124C15.2538 7.38391 14.9104 7.77858 14.4464 7.84858C13.5411 7.98524 12.4811 8.02658 11.5431 8.02658C10.6698 8.02658 9.9011 7.99124 9.4591 7.96591C8.9031 7.93324 8.46043 7.48991 8.42843 6.93391C8.37643 6.05258 8.26376 3.81324 8.34376 2.08124C8.36576 1.57791 8.77243 1.17724 9.26976 1.16858C10.6944 1.12724 12.1644 1.78858 13.3671 2.98924ZM9.3551 2.16791H9.34043C9.2671 3.84724 9.37576 6.01658 9.42643 6.87591C9.4291 6.92724 9.46643 6.96458 9.5171 6.96724C10.2024 7.00658 12.5638 7.11591 14.2618 6.86591C14.2658 5.92991 13.6251 4.66058 12.6604 3.69658C11.6711 2.70858 10.5004 2.16791 9.3551 2.16791Z" fill="#0167FF"/>
</svg>
