<svg width="16" height="17" viewBox="0 0 16 17" fill="none" xmlns="http://www.w3.org/2000/svg">
<path fill-rule="evenodd" clip-rule="evenodd" d="M9.80067 1.83331C12.062 1.83331 13.3593 2.95265 13.3593 4.90265V14.5933C13.3593 15 13.15 15.366 12.798 15.5706C12.4473 15.776 12.0247 15.78 11.67 15.58L7.69667 13.3353L3.68667 15.5846C3.51333 15.682 3.32333 15.7313 3.13267 15.7313C2.936 15.7313 2.73933 15.6786 2.56067 15.5733C2.20933 15.3686 2 15.0026 2 14.5966V4.78065C2 2.90731 3.298 1.83331 5.56133 1.83331H9.80067ZM9.80067 2.83331H5.56133C3.862 2.83331 3 3.48798 3 4.78065V14.5966C3 14.6593 3.036 14.6933 3.066 14.7106C3.096 14.7293 3.14333 14.7426 3.198 14.712L7.45267 12.3253C7.60467 12.2406 7.79067 12.24 7.94333 12.326L12.1613 14.7086C12.2167 14.7406 12.264 14.726 12.294 14.708C12.324 14.69 12.3593 14.656 12.3593 14.5933L12.3591 4.82668C12.354 4.2529 12.243 2.83331 9.80067 2.83331ZM10.0932 6.31898C10.3692 6.31898 10.5932 6.54298 10.5932 6.81898C10.5932 7.09498 10.3692 7.31898 10.0932 7.31898H5.21453C4.93853 7.31898 4.71453 7.09498 4.71453 6.81898C4.71453 6.54298 4.93853 6.31898 5.21453 6.31898H10.0932Z" fill="#0167FF"/>
</svg>
