<svg width="16" height="17" viewBox="0 0 16 17" fill="none" xmlns="http://www.w3.org/2000/svg">
<path fill-rule="evenodd" clip-rule="evenodd" d="M10.5292 1.16669C10.8052 1.16669 11.0292 1.39069 11.0292 1.66669L11.0295 2.23189C12.0029 2.29863 12.8113 2.63205 13.3835 3.20542C14.0082 3.83275 14.3368 4.73475 14.3335 5.81675V11.8988C14.3335 14.1201 12.9228 15.5001 10.6528 15.5001H5.01416C2.74416 15.5001 1.3335 14.1008 1.3335 11.8481V5.81542C1.3335 3.72022 2.59153 2.37531 4.64329 2.23212L4.6437 1.66669C4.6437 1.39069 4.8677 1.16669 5.1437 1.16669C5.4197 1.16669 5.6437 1.39069 5.6437 1.66669L5.6435 2.21935H10.0288L10.0292 1.66669C10.0292 1.39069 10.2532 1.16669 10.5292 1.16669ZM13.3335 7.10269H2.3335V11.8481C2.3335 13.5588 3.2855 14.5001 5.01416 14.5001H10.6528C12.3815 14.5001 13.3335 13.5761 13.3335 11.8988L13.3335 7.10269ZM10.801 11.2976C11.077 11.2976 11.301 11.5216 11.301 11.7976C11.301 12.0736 11.077 12.2976 10.801 12.2976C10.525 12.2976 10.2983 12.0736 10.2983 11.7976C10.2983 11.5216 10.519 11.2976 10.795 11.2976H10.801ZM7.84263 11.2976C8.11863 11.2976 8.34263 11.5216 8.34263 11.7976C8.34263 12.0736 8.11863 12.2976 7.84263 12.2976C7.56663 12.2976 7.33996 12.0736 7.33996 11.7976C7.33996 11.5216 7.56063 11.2976 7.83663 11.2976H7.84263ZM4.8781 11.2976C5.1541 11.2976 5.3781 11.5216 5.3781 11.7976C5.3781 12.0736 5.1541 12.2976 4.8781 12.2976C4.6021 12.2976 4.37476 12.0736 4.37476 11.7976C4.37476 11.5216 4.5961 11.2976 4.8721 11.2976H4.8781ZM10.801 8.70642C11.077 8.70642 11.301 8.93042 11.301 9.20642C11.301 9.48242 11.077 9.70642 10.801 9.70642C10.525 9.70642 10.2983 9.48242 10.2983 9.20642C10.2983 8.93042 10.519 8.70642 10.795 8.70642H10.801ZM7.84263 8.70642C8.11863 8.70642 8.34263 8.93042 8.34263 9.20642C8.34263 9.48242 8.11863 9.70642 7.84263 9.70642C7.56663 9.70642 7.33996 9.48242 7.33996 9.20642C7.33996 8.93042 7.56063 8.70642 7.83663 8.70642H7.84263ZM4.8781 8.70642C5.1541 8.70642 5.3781 8.93042 5.3781 9.20642C5.3781 9.48242 5.1541 9.70642 4.8781 9.70642C4.6021 9.70642 4.37476 9.48242 4.37476 9.20642C4.37476 8.93042 4.5961 8.70642 4.8721 8.70642H4.8781ZM10.0288 3.21935H5.6435L5.6437 3.86069C5.6437 4.13669 5.4197 4.36069 5.1437 4.36069C4.8677 4.36069 4.6437 4.13669 4.6437 3.86069L4.64334 3.23449C3.14985 3.35995 2.3335 4.26526 2.3335 5.81542V6.10269H13.3335L13.3335 5.81542C13.3362 4.99209 13.1148 4.35209 12.6755 3.91209C12.2898 3.52529 11.7261 3.29429 11.0297 3.23481L11.0292 3.86069C11.0292 4.13669 10.8052 4.36069 10.5292 4.36069C10.2532 4.36069 10.0292 4.13669 10.0292 3.86069L10.0288 3.21935Z" fill="#0167FF"/>
</svg>
