<svg width="16" height="17" viewBox="0 0 16 17" fill="none" xmlns="http://www.w3.org/2000/svg">
<path fill-rule="evenodd" clip-rule="evenodd" d="M7.83213 1.16687C9.74746 1.16687 11.5475 1.91154 12.8995 3.2642C15.6941 6.05887 15.6941 10.6055 12.8995 13.4002C11.5295 14.7709 9.6848 15.4962 7.81613 15.4962C6.79746 15.4962 5.77213 15.2809 4.8128 14.8369C4.53013 14.7235 4.26546 14.6169 4.07546 14.6169C3.8568 14.6182 3.5628 14.7195 3.2788 14.8175C2.69613 15.0175 1.9708 15.2669 1.43413 14.7322C0.899462 14.1969 1.14613 13.4735 1.3448 12.8915C1.4428 12.6049 1.54346 12.3089 1.54346 12.0849C1.54346 11.9009 1.4548 11.6662 1.3188 11.3282C0.0701286 8.63154 0.647462 5.38154 2.76546 3.26487C4.11746 1.9122 5.9168 1.16687 7.83213 1.16687ZM7.8328 2.16687C6.18413 2.16687 4.63546 2.8082 3.47213 3.9722C1.64946 5.79354 1.15346 8.5902 2.2368 10.9322C2.3928 11.3182 2.54346 11.6942 2.54346 12.0849C2.54346 12.4749 2.40946 12.8675 2.29146 13.2142C2.19413 13.4995 2.0468 13.9302 2.14146 14.0249C2.23413 14.1209 2.66746 13.9695 2.95346 13.8715C3.2968 13.7542 3.68613 13.6195 4.07213 13.6169C4.4588 13.6169 4.82346 13.7635 5.20946 13.9189C7.57413 15.0122 10.3708 14.5149 12.1928 12.6935C14.5968 10.2882 14.5968 6.37554 12.1928 3.97154C11.0288 2.80754 9.4808 2.16687 7.8328 2.16687ZM10.4641 7.942C10.8321 7.942 11.1307 8.24 11.1307 8.60867C11.1307 8.97734 10.8321 9.27534 10.4641 9.27534C10.0961 9.27534 9.79473 8.97734 9.79473 8.60867C9.79473 8.24 10.0901 7.942 10.4581 7.942H10.4641ZM7.79153 7.942C8.15953 7.942 8.4582 8.24 8.4582 8.60867C8.4582 8.97734 8.15953 9.27534 7.79153 9.27534C7.42353 9.27534 7.1222 8.97734 7.1222 8.60867C7.1222 8.24 7.41686 7.942 7.78553 7.942H7.79153ZM5.11873 7.942C5.48673 7.942 5.7854 8.24 5.7854 8.60867C5.7854 8.97734 5.48673 9.27534 5.11873 9.27534C4.75073 9.27534 4.4494 8.97734 4.4494 8.60867C4.4494 8.24 4.74473 7.942 5.11273 7.942H5.11873Z" fill="#0167FF"/>
</svg>
