<svg width="24" height="24" viewBox="0 0 24 24" fill="none" xmlns="http://www.w3.org/2000/svg">
<g clip-path="url(#clip0)">
<path d="M0.00529671 20.3489C0.949205 12.64 7.359 6.77069 15.0593 6.43195V4.69446C15.0593 3.37463 15.7784 2.90625 16.394 2.90625C16.8424 2.90625 17.2972 3.13367 17.7455 3.58191L23.1799 9.0163C24.2734 10.1098 24.2734 11.889 23.1799 12.9826L17.7455 18.4169C17.2972 18.8652 16.8424 19.0926 16.394 19.0926C15.7784 19.0926 15.0593 18.6242 15.0593 17.3044V15.4464C14.1833 15.2754 13.2955 15.189 12.4125 15.189C8.0299 15.189 3.86461 17.3051 1.27037 20.8497C1.13487 21.0346 0.922106 21.1375 0.702745 21.1375C0.61632 21.1375 0.528612 21.1214 0.444384 21.0881C0.146837 20.9703 -0.0337048 20.6666 0.00529671 20.3489ZM5.41955 15.4843C7.56334 14.3712 9.98144 13.7831 12.4125 13.7831C13.5868 13.7831 14.7682 13.9215 15.9241 14.1949C16.2413 14.27 16.4652 14.5532 16.4652 14.879V17.3044C16.4652 17.452 16.4799 17.5598 16.4965 17.6331C16.5602 17.5931 16.6468 17.5272 16.7512 17.4227L22.1858 11.9885C22.7311 11.443 22.7311 10.5559 22.1858 10.0104L16.7514 4.57599C16.6468 4.47162 16.5604 4.40552 16.4965 4.3656C16.4799 4.43903 16.4652 4.54669 16.4652 4.69446V7.11969C16.4652 7.50788 16.1504 7.82264 15.7623 7.82264C9.3521 7.82264 3.8106 12.0304 1.95372 17.9564C2.98845 16.9759 4.1585 16.1391 5.41955 15.4843Z" fill="#0167FF"/>
</g>
<defs>
<clipPath id="clip0">
<rect width="24" height="24" fill="white" transform="matrix(-1 0 0 1 24 0)"/>
</clipPath>
</defs>
</svg>
