<svg width="20" height="20" viewBox="0 0 20 20" fill="none" xmlns="http://www.w3.org/2000/svg">
<path d="M3.92578 16.875H16.0742C17.3666 16.875 18.418 15.8236 18.418 14.5312V2.34375C18.418 1.05141 17.3666 0 16.0742 0H3.92578C2.63344 0 1.58203 1.05141 1.58203 2.34375V17.6562C1.58203 18.9486 2.63344 20 3.92578 20H15.293H16.0742C17.3666 20 18.418 18.9486 18.418 17.6562V17.6543C17.7646 18.1458 16.9529 18.4375 16.0742 18.4375H15.293H3.92578C3.495 18.4375 3.14453 18.087 3.14453 17.6562C3.14453 17.2255 3.495 16.875 3.92578 16.875ZM3.14453 2.34375C3.14453 1.91297 3.495 1.5625 3.92578 1.5625H16.0742C16.505 1.5625 16.8555 1.91297 16.8555 2.34375V14.5312C16.8555 14.962 16.505 15.3125 16.0742 15.3125H3.92578C3.65199 15.3125 3.38898 15.3597 3.14453 15.4464V2.34375ZM9.94141 9.6875C11.6861 9.6875 13.1055 11.1069 13.1055 12.8516H14.668C14.668 11.003 13.6011 9.39922 12.051 8.62277C12.4395 8.14539 12.673 7.53703 12.673 6.875C12.673 5.34574 11.4288 4.10156 9.89957 4.10156C8.37031 4.10156 7.12613 5.34574 7.12613 6.875C7.12613 7.55098 7.36949 8.17098 7.77285 8.6527C6.25465 9.43996 5.21484 11.0266 5.21484 12.8516H6.77734C6.77734 11.1069 8.19676 9.6875 9.94141 9.6875ZM9.89957 5.66406C10.5673 5.66406 11.1105 6.2073 11.1105 6.875C11.1105 7.5427 10.5673 8.08594 9.89957 8.08594C9.23184 8.08594 8.68863 7.5427 8.68863 6.875C8.68863 6.2073 9.23184 5.66406 9.89957 5.66406Z" fill="#0167FF"/>
</svg>
