<svg width="20" height="20" viewBox="0 0 20 20" fill="none" xmlns="http://www.w3.org/2000/svg">
<g clip-path="url(#clip0)">
<path d="M17.7254 3.0381H14.2783C14.2773 3.0381 14.2764 3.03748 14.2754 3.03748H10.6749C10.6738 3.03748 10.673 3.0381 10.672 3.0381H2.81998C2.43837 3.0381 2.12891 3.34756 2.12891 3.72917C2.12891 4.11078 2.43837 4.42025 2.81998 4.42025H9.98381V8.57997C9.98381 8.96006 10.2948 9.27105 10.6749 9.27105H14.2754C14.6555 9.27105 14.9665 8.96006 14.9665 8.57997V4.42025H17.7254C18.1934 4.42025 18.574 4.80089 18.574 5.26889V16.2033C18.574 16.6713 18.1934 17.0519 17.7254 17.0519H6.79097C6.32325 17.0519 5.94268 16.6713 5.94268 16.2033V8.60685C5.94268 8.22524 5.63321 7.91578 5.2516 7.91578H3.4244C3.04278 7.91578 2.73332 8.22524 2.73332 8.60685C2.73332 8.98846 3.04278 9.29793 3.4244 9.29793H4.56052V16.2033C4.56052 17.4333 5.56106 18.4341 6.79097 18.4341H17.7254C18.9554 18.4341 19.9562 17.4333 19.9562 16.2033V5.26896C19.9562 4.03898 18.9554 3.0381 17.7254 3.0381ZM13.5843 7.8889H11.366V4.42025H13.5843V7.8889Z" fill="#0167FF"/>
<path d="M0.64713 6.85823H4.91134C5.29295 6.85823 5.60242 6.54876 5.60242 6.16715C5.60242 5.78554 5.29295 5.47607 4.91134 5.47607H0.64713C0.265518 5.47607 -0.0439453 5.78554 -0.0439453 6.16715C-0.0439453 6.54876 0.265449 6.85823 0.64713 6.85823Z" fill="#0167FF"/>
<path d="M16.4304 15.7432C16.812 15.7432 17.1214 15.4338 17.1214 15.0522C17.1214 14.6705 16.812 14.3611 16.4304 14.3611H14.2721C13.8905 14.3611 13.5811 14.6705 13.5811 15.0522C13.5811 15.4338 13.8905 15.7432 14.2721 15.7432H16.4304Z" fill="#0167FF"/>
</g>
<defs>
<clipPath id="clip0">
<rect width="20" height="20" fill="white"/>
</clipPath>
</defs>
</svg>
