<svg width="46" height="46" viewBox="0 0 46 46" fill="none" xmlns="http://www.w3.org/2000/svg">
<path fill-rule="evenodd" clip-rule="evenodd" d="M22.5125 4.33331C32.5365 4.33331 40.6901 12.4869 40.6901 22.5109C40.6901 27.2402 38.8752 31.5536 35.9052 34.7908L41.7492 40.6226C42.2962 41.1696 42.298 42.0544 41.7511 42.6013C41.4786 42.8776 41.1183 43.0138 40.7599 43.0138C40.4034 43.0138 40.045 42.8776 39.7706 42.605L33.856 36.7069C30.7446 39.1986 26.7996 40.6904 22.5125 40.6904C12.4885 40.6904 4.33301 32.5349 4.33301 22.5109C4.33301 12.4869 12.4885 4.33331 22.5125 4.33331ZM22.5125 7.13331C14.0322 7.13331 7.13301 14.0306 7.13301 22.5109C7.13301 30.9912 14.0322 37.8904 22.5125 37.8904C30.9909 37.8904 37.8901 30.9912 37.8901 22.5109C37.8901 14.0306 30.9909 7.13331 22.5125 7.13331Z" fill="white"/>
</svg>
