<svg width="40" height="41" viewBox="0 0 40 41" fill="none" xmlns="http://www.w3.org/2000/svg">
<path fill-rule="evenodd" clip-rule="evenodd" d="M18.0079 25.1964L24.1029 35.0847C24.3696 35.518 24.7862 35.513 24.9546 35.4897C25.1229 35.4664 25.5279 35.363 25.6746 34.8714L33.2962 9.1297C33.4296 8.6747 33.1846 8.3647 33.0746 8.2547C32.9679 8.1447 32.6629 7.9097 32.2212 8.0347L6.46125 15.578C5.97292 15.7214 5.86625 16.1314 5.84292 16.2997C5.81958 16.4714 5.81292 16.8964 6.24458 17.168L16.2462 23.423L25.0829 14.493C25.5679 14.003 26.3596 13.998 26.8512 14.483C27.3429 14.968 27.3462 15.7614 26.8612 16.2514L18.0079 25.1964ZM24.8246 37.9997C23.6646 37.9997 22.6012 37.4097 21.9746 36.3964L15.5129 25.9114L4.91958 19.2864C3.77792 18.5714 3.18125 17.298 3.36625 15.9597C3.54958 14.6214 4.46792 13.558 5.75792 13.1797L31.5179 5.63637C32.7029 5.2897 33.9729 5.61803 34.8463 6.48803C35.7196 7.36637 36.0446 8.6497 35.6912 9.8397L28.0696 35.5797C27.6879 36.8747 26.6212 37.7897 25.2862 37.968C25.1296 37.988 24.9779 37.9997 24.8246 37.9997Z" fill="white"/>
</svg>
