<svg width="20" height="20" viewBox="0 0 20 20" fill="none" xmlns="http://www.w3.org/2000/svg">
<path d="M14.2188 19.2188C14.2188 19.6503 13.869 20 13.4375 20H3.90625C2.18307 20 0.78125 18.5982 0.78125 16.875V8.20312C0.78125 7.77161 1.13098 7.42188 1.5625 7.42188C1.99402 7.42188 2.34375 7.77161 2.34375 8.20312V16.875C2.34375 17.7365 3.04474 18.4375 3.90625 18.4375H13.4375C13.869 18.4375 14.2188 18.7872 14.2188 19.2188ZM20 2.34375V4.6875C20 5.11902 19.6503 5.46875 19.2188 5.46875V11.1719C19.2188 11.6034 18.869 11.9531 18.4375 11.9531C18.006 11.9531 17.6562 11.6034 17.6562 11.1719V5.46875H0.78125C0.349731 5.46875 0 5.11902 0 4.6875V2.34375C0 1.05133 1.05133 0 2.34375 0H17.6562C18.9487 0 20 1.05133 20 2.34375ZM1.5625 3.90625H18.4375V2.34375C18.4375 1.91299 18.087 1.5625 17.6562 1.5625H2.34375C1.91299 1.5625 1.5625 1.91299 1.5625 2.34375V3.90625ZM11.7188 8.59375C12.1503 8.59375 12.5 8.24402 12.5 7.8125C12.5 7.38098 12.1503 7.03125 11.7188 7.03125H8.20312C7.77161 7.03125 7.42188 7.38098 7.42188 7.8125C7.42188 8.24402 7.77161 8.59375 8.20312 8.59375H11.7188ZM16.543 13.0859H12.4222L13.4009 12.1181C13.7077 11.8146 13.7105 11.3199 13.407 11.0132C13.1036 10.7065 12.6089 10.7036 12.3022 11.0071L10.8514 12.4417C10.4794 12.8096 10.2742 13.2996 10.2734 13.8214C10.2727 14.3433 10.4765 14.8337 10.8475 15.2026L12.3006 16.6476C12.4532 16.7993 12.6523 16.875 12.8516 16.875C13.0522 16.875 13.2529 16.7981 13.4056 16.6446C13.7099 16.3387 13.7083 15.8441 13.4024 15.5399L12.5061 14.6484H16.543C17.5876 14.6484 18.4375 15.4984 18.4375 16.543C18.4375 17.5876 17.5974 18.4375 16.5646 18.4375C16.1331 18.4375 15.7834 18.7872 15.7834 19.2188C15.7834 19.6503 16.1331 20 16.5646 20C17.4883 20 18.3537 19.6393 19.0013 18.9844C19.6454 18.3331 20 17.4661 20 16.543C20 14.6367 18.4492 13.0859 16.543 13.0859Z" fill="#0167FF"/>
</svg>
