<svg width="21" height="20" viewBox="0 0 21 20" fill="none" xmlns="http://www.w3.org/2000/svg">
<path d="M16.4498 2.49747C16.2491 2.51206 16.0522 2.55913 15.8666 2.63684H15.8641C15.686 2.70747 14.8391 3.06372 13.5516 3.60372L8.93789 5.54684C5.62727 6.94059 2.37289 8.31309 2.37289 8.31309L2.41164 8.29809C2.41164 8.29809 2.18727 8.37184 1.95289 8.53247C1.8081 8.6246 1.6835 8.74516 1.58664 8.88684C1.47164 9.05559 1.37914 9.31372 1.41352 9.58059C1.46977 10.0318 1.76227 10.3025 1.97227 10.4518C2.18477 10.6031 2.38727 10.6737 2.38727 10.6737H2.39227L5.44414 11.7018C5.58102 12.1412 6.37414 14.7487 6.56477 15.3493C6.67727 15.7081 6.78664 15.9325 6.92352 16.1037C6.98977 16.1912 7.06727 16.2643 7.16039 16.3231C7.20881 16.3513 7.26043 16.3735 7.31414 16.3893L7.28289 16.3818C7.29227 16.3843 7.29977 16.3918 7.30664 16.3943C7.33164 16.4012 7.34852 16.4037 7.38039 16.4087C7.86352 16.555 8.25164 16.255 8.25164 16.255L8.27352 16.2375L10.0754 14.5968L13.0954 16.9137L13.1641 16.9431C13.7935 17.2193 14.431 17.0656 14.7679 16.7943C15.1073 16.5212 15.2391 16.1718 15.2391 16.1718L15.261 16.1156L17.5948 4.15997C17.661 3.86497 17.6779 3.58872 17.6048 3.32059C17.5293 3.04923 17.3553 2.81585 17.1166 2.66622C16.9163 2.54441 16.6839 2.48562 16.4498 2.49747ZM16.3866 3.77872C16.3841 3.81809 16.3916 3.81372 16.3741 3.88934V3.89622L14.0623 15.7275C14.0523 15.7443 14.0354 15.7812 13.9891 15.8181C13.9404 15.8568 13.9016 15.8812 13.6985 15.8006L10.0048 12.9687L7.77352 15.0025L8.24227 12.0087L14.2773 6.38372C14.526 6.15247 14.4429 6.10372 14.4429 6.10372C14.4604 5.81997 14.0673 6.02059 14.0673 6.02059L6.45727 10.735L6.45477 10.7225L2.80727 9.49434V9.49184L2.79789 9.48997C2.80429 9.48784 2.81055 9.48534 2.81664 9.48247L2.83664 9.47247L2.85602 9.46559C2.85602 9.46559 6.11289 8.09309 9.42352 6.69934C11.081 6.00122 12.751 5.29809 14.0354 4.75559C15.3198 4.21622 16.2691 3.82059 16.3229 3.79934C16.3741 3.77934 16.3498 3.77934 16.3866 3.77934V3.77872Z" fill="#0167FF"/>
</svg>
