<svg width="30" height="30" viewBox="0 0 30 30" fill="none" xmlns="http://www.w3.org/2000/svg">
<path fill-rule="evenodd" clip-rule="evenodd" d="M20.4175 2.5C24.6537 2.5 27.5 5.4725 27.5 9.895V20.105C27.5 24.5275 24.6537 27.5 20.4163 27.5H9.58125C5.345 27.5 2.5 24.5275 2.5 20.105V9.895C2.5 5.4725 5.345 2.5 9.58125 2.5H20.4175ZM20.4175 4.375H9.58125C6.41875 4.375 4.375 6.54125 4.375 9.895V20.105C4.375 23.4587 6.41875 25.625 9.58125 25.625H20.4163C23.58 25.625 25.625 23.4587 25.625 20.105V9.895C25.625 6.54125 23.5812 4.375 20.4175 4.375ZM14.9989 8.6045C15.5164 8.6045 15.9364 9.0245 15.9364 9.542V14.462L19.7189 16.7157C20.1626 16.982 20.3089 17.557 20.0439 18.002C19.8676 18.2957 19.5564 18.4595 19.2376 18.4595C19.0739 18.4595 18.9089 18.417 18.7576 18.3282L14.5189 15.7995C14.2364 15.6295 14.0614 15.3232 14.0614 14.9945V9.542C14.0614 9.0245 14.4814 8.6045 14.9989 8.6045Z" fill="#9191AC"/>
</svg>
