<svg width="16" height="17" viewBox="0 0 16 17" fill="none" xmlns="http://www.w3.org/2000/svg">
<path fill-rule="evenodd" clip-rule="evenodd" d="M8.00016 1.83334C11.6762 1.83334 14.6668 4.82401 14.6668 8.50001C14.6668 12.176 11.6762 15.1667 8.00016 15.1667C4.32416 15.1667 1.3335 12.176 1.3335 8.50001C1.3335 4.82401 4.32416 1.83334 8.00016 1.83334ZM8.00016 2.83334C4.8755 2.83334 2.3335 5.37534 2.3335 8.50001C2.3335 11.6247 4.8755 14.1667 8.00016 14.1667C11.1248 14.1667 13.6668 11.6247 13.6668 8.50001C13.6668 5.37534 11.1248 2.83334 8.00016 2.83334ZM7.7743 5.23028C8.05096 5.23028 8.2743 5.45428 8.2743 5.73028V8.67828L10.5443 10.0316C10.781 10.1736 10.859 10.4803 10.7176 10.7176C10.6236 10.8743 10.4576 10.9616 10.2876 10.9616C10.2003 10.9616 10.1123 10.9389 10.0316 10.8916L7.5183 9.39228C7.36763 9.30161 7.2743 9.13828 7.2743 8.96228V5.73028C7.2743 5.45428 7.4983 5.23028 7.7743 5.23028Z" fill="#0167FF"/>
</svg>
