<svg width="16" height="13" viewBox="0 0 16 13" fill="none" xmlns="http://www.w3.org/2000/svg">
<path fill-rule="evenodd" clip-rule="evenodd" d="M8.00037 7.98369L8.08335 7.98371L8.26897 7.98434C9.68772 7.99369 12.93 8.13701 12.93 10.3346C12.93 12.5177 9.80074 12.6601 8.29108 12.6694L7.73176 12.6694C6.31292 12.66 3.07004 12.5169 3.07004 10.3221C3.07004 8.13619 6.31292 7.99363 7.73176 7.98434L7.91739 7.98371C7.94618 7.98369 7.97386 7.98369 8.00037 7.98369ZM8.00037 9.08601C6.25429 9.08601 4.17237 9.3006 4.17237 10.3221C4.17237 11.3205 6.13002 11.5539 7.84077 11.5671L8.00037 11.5677C9.74645 11.5677 11.8276 11.3539 11.8276 10.3346C11.8276 9.3028 9.74645 9.08601 8.00037 9.08601ZM13.8453 7.68547C15.6259 7.95223 16 8.78853 16 9.44331C16 9.84309 15.8427 10.5728 14.7919 10.9733C14.7272 10.9976 14.661 11.0093 14.5956 11.0093C14.3737 11.0093 14.1643 10.8741 14.0805 10.6544C13.9717 10.37 14.115 10.0511 14.3994 9.94303C14.8977 9.75343 14.8977 9.54399 14.8977 9.44331C14.8977 9.12143 14.4883 8.89656 13.6814 8.77604C13.3809 8.73047 13.1729 8.45049 13.2177 8.14845C13.2626 7.84715 13.5418 7.64652 13.8453 7.68547ZM2.78226 8.14845C2.82709 8.45049 2.61912 8.73047 2.31855 8.77604C1.51165 8.89656 1.10232 9.12143 1.10232 9.44331C1.10232 9.54399 1.10232 9.7527 1.60131 9.94303C1.88571 10.0511 2.02901 10.37 1.92025 10.6544C1.83647 10.8741 1.62703 11.0093 1.40509 11.0093C1.33969 11.0093 1.27355 10.9976 1.20888 10.9733C0.157265 10.5721 0 9.84235 0 9.44331C0 8.78927 0.374055 7.95223 2.15541 7.68547C2.45892 7.64726 2.7367 7.84715 2.78226 8.14845ZM8.00037 0.330627C9.85227 0.330627 11.358 1.83714 11.358 3.6883C11.358 5.53947 9.85227 7.04598 8.00037 7.04598H7.98053C7.08397 7.04304 6.244 6.69177 5.61494 6.05683C4.98441 5.42262 4.63975 4.58045 4.6434 3.6861C4.6434 1.83714 6.1492 0.330627 8.00037 0.330627ZM8.00037 1.43295C6.75695 1.43295 5.74573 2.44488 5.74573 3.6883C5.74354 4.29091 5.9743 4.85456 6.39685 5.28006C6.81941 5.70555 7.38233 5.94145 7.982 5.94366L8.00037 6.49482V5.94366C9.24379 5.94366 10.2557 4.93246 10.2557 3.6883C10.2557 2.44488 9.24379 1.43295 8.00037 1.43295ZM12.5486 1.05044C13.8405 1.26283 14.7789 2.36809 14.7789 3.67838C14.776 4.9975 13.7905 6.12921 12.4861 6.3122C12.4604 6.31587 12.4346 6.31734 12.4097 6.31734C12.1392 6.31734 11.9033 6.11819 11.8644 5.84261C11.8225 5.54057 12.0319 5.26205 12.334 5.22016C13.0982 5.11287 13.6751 4.45001 13.6766 3.67691C13.6766 2.91043 13.1269 2.26226 12.3692 2.13807C12.0694 2.08883 11.8658 1.80517 11.9151 1.5046C11.9651 1.20403 12.2465 1.00268 12.5486 1.05044ZM4.08565 1.5046C4.13489 1.80517 3.93132 2.08883 3.63149 2.13807C2.87383 2.26226 2.32414 2.91043 2.32414 3.67838C2.32561 4.45001 2.90249 5.11361 3.66603 5.22016C3.96807 5.26205 4.17751 5.54057 4.13562 5.84261C4.09667 6.11819 3.86078 6.31734 3.59034 6.31734C3.56535 6.31734 3.53963 6.31587 3.51391 6.3122C2.2095 6.12921 1.22475 4.9975 1.22181 3.67985C1.22181 2.36809 2.16026 1.26283 3.45218 1.05044C3.76157 1.00194 4.03568 1.2055 4.08565 1.5046Z" fill="#0167FF"/>
</svg>
