<svg width="21" height="20" viewBox="0 0 21 20" fill="none" xmlns="http://www.w3.org/2000/svg">
<path d="M10.1562 0C15.6678 0 20.1562 4.48625 20.1562 10.0058C20.1562 15.5137 15.6678 20 10.1562 20C4.64467 20 0.15625 15.5137 0.15625 10.0058C0.15625 4.48625 4.64467 0 10.1562 0ZM9.01725 6.02991C8.8049 6.02991 8.6022 6.07815 8.40915 6.17463C8.16783 6.3097 7.97478 6.52195 7.86861 6.77279C7.80104 6.94645 7.69486 7.46744 7.69486 7.47709C7.58868 8.04631 7.53077 8.9725 7.53077 9.99518C7.53077 10.9706 7.58868 11.8572 7.67556 12.4361C7.68521 12.4457 7.79139 13.0921 7.90722 13.314C8.11957 13.7192 8.53463 13.9701 8.97864 13.9701H9.01725C9.30683 13.9604 9.91494 13.7096 9.91494 13.7C10.9381 13.2754 12.9555 11.9537 13.7663 11.0757L13.8242 11.0178C13.9304 10.9117 14.0655 10.7477 14.0945 10.7091C14.2489 10.5065 14.3261 10.2557 14.3261 10.0058C14.3261 9.72504 14.2393 9.46454 14.0752 9.25229C14.0366 9.2137 13.8918 9.04969 13.7566 8.91462C12.9651 8.06561 10.8995 6.67631 9.81841 6.25181C9.65432 6.18524 9.23926 6.03956 9.01725 6.02991Z" fill="#FF358A"/>
</svg>
