<svg width="470" height="332" viewBox="0 0 470 332" fill="none" xmlns="http://www.w3.org/2000/svg">
<g clip-path="url(#clip0)">
<path d="M279.703 72.7385L277.409 164.859C277.025 180.529 273.214 203.459 248.208 201.719C226.628 198.599 221.635 178.089 222.019 163.469C222.201 156.539 222.333 150.759 222.302 150.039C222.302 150.039 198.651 147.259 197.519 124.039C196.973 112.799 197.741 89.5685 198.691 68.5485C199.19 57.665 203.811 47.366 211.636 39.7004C219.461 32.0347 229.916 27.5643 240.92 27.1785L243.185 27.0985C267.685 27.6085 280.926 48.5085 279.703 72.7385Z" fill="#FFBE9D"/>
<path d="M222.302 150.039C222.302 150.039 237.15 150.379 252.625 140.039C252.625 140.039 245.772 157.299 222.231 156.039L222.302 150.039Z" fill="#EB996E"/>
<path d="M238.373 79.4885C238.818 79.9785 241.608 77.9185 245.539 77.9585C249.471 77.9985 252.322 79.9585 252.756 79.5285C252.968 79.3085 252.514 78.4385 251.27 77.5285C249.587 76.3266 247.565 75.6794 245.489 75.6785C243.44 75.659 241.439 76.2977 239.788 77.4985C238.585 78.3985 238.171 79.2685 238.373 79.4885Z" fill="#263238"/>
<path d="M237.625 88.3385C237.646 89.1574 237.99 89.9356 238.583 90.5073C239.176 91.079 239.971 91.3988 240.799 91.3985C241.204 91.4173 241.61 91.3553 241.991 91.2161C242.372 91.0769 242.721 90.8634 243.017 90.5883C243.313 90.3131 243.55 89.9819 243.714 89.6144C243.878 89.2468 243.966 88.8503 243.973 88.4485C243.951 87.6297 243.608 86.8514 243.015 86.2798C242.422 85.7081 241.627 85.3883 240.799 85.3885C240.393 85.3697 239.988 85.4318 239.607 85.571C239.226 85.7101 238.877 85.9237 238.581 86.1988C238.285 86.474 238.048 86.8052 237.883 87.1727C237.719 87.5403 237.631 87.9367 237.625 88.3385Z" fill="#263238"/>
<path d="M227.548 106.138C227.548 105.938 225.294 105.638 221.645 105.298C220.715 105.238 219.836 105.088 219.623 104.478C219.516 103.537 219.699 102.585 220.149 101.748C220.937 99.5085 221.756 97.1585 222.625 94.7485C226.052 84.7485 228.498 76.4785 228.094 76.3485C227.689 76.2185 224.566 84.2385 221.14 94.2685C220.311 96.7351 219.522 99.0985 218.774 101.358C218.471 102.408 217.905 103.608 218.431 104.958C218.578 105.275 218.795 105.554 219.066 105.776C219.337 105.998 219.656 106.156 219.997 106.238C220.514 106.36 221.044 106.414 221.574 106.398C225.233 106.408 227.538 106.338 227.548 106.138Z" fill="#263238"/>
<path d="M240.607 64.9485C240.951 65.8285 244.125 65.2885 247.874 65.6185C251.624 65.9485 254.697 66.8785 255.162 66.0685C255.374 65.6785 254.818 64.8685 253.565 64.0685C251.919 63.0605 250.049 62.4665 248.117 62.3385C246.192 62.168 244.255 62.4703 242.477 63.2185C241.123 63.8085 240.455 64.5285 240.607 64.9485Z" fill="#263238"/>
<path d="M202.543 65.7185C202.927 66.4385 206.02 65.7685 209.739 65.7885C213.459 65.8085 216.511 66.3985 216.936 65.6785C217.118 65.3385 216.531 64.6785 215.258 64.0785C213.541 63.3247 211.678 62.9494 209.8 62.9785C207.904 62.9678 206.027 63.3528 204.291 64.1085C202.997 64.7185 202.371 65.3385 202.543 65.7185Z" fill="#263238"/>
<path d="M278.399 90.0385C278.803 89.8485 294.389 84.7385 294.449 100.659C294.51 116.579 278.348 113.359 278.277 112.899C278.207 112.439 278.399 90.0385 278.399 90.0385Z" fill="#FFBE9D"/>
<path d="M283.211 106.849C283.281 106.849 283.494 107.039 283.959 107.259C284.633 107.526 285.386 107.526 286.061 107.259C287.759 106.639 289.174 103.959 289.245 101.089C289.284 99.7129 289.012 98.346 288.446 97.0886C288.292 96.592 288.018 96.1398 287.648 95.7706C287.279 95.4014 286.824 95.1263 286.324 94.9686C286.002 94.8864 285.66 94.9184 285.359 95.0591C285.058 95.1997 284.817 95.4401 284.676 95.7386C284.464 96.1786 284.565 96.4986 284.484 96.5286C284.403 96.5586 284.13 96.2586 284.262 95.6086C284.345 95.2127 284.567 94.8587 284.889 94.6086C285.105 94.4409 285.354 94.3175 285.619 94.2454C285.885 94.1733 286.162 94.154 286.435 94.1886C287.097 94.3164 287.714 94.6095 288.229 95.0401C288.744 95.4707 289.139 96.0244 289.376 96.6486C290.076 98.0242 290.423 99.549 290.387 101.089C290.296 104.299 288.649 107.299 286.344 107.979C285.912 108.103 285.458 108.131 285.014 108.06C284.57 107.989 284.147 107.821 283.777 107.569C283.241 107.239 283.15 106.879 283.211 106.849Z" fill="#EB996E"/>
<path d="M300.737 65.0785C297.593 59.3485 297.068 52.6285 295.471 46.3085C293.874 39.9885 289.184 31.9585 283.069 29.5485C277.661 26.2385 270.404 26.3985 265.694 30.0585C264.865 21.7485 259.367 16.8585 251.301 14.4385C243.235 12.0185 230.075 12.8085 222.171 15.6385C216.036 17.8185 210.042 22.5385 202.633 29.5285C199.519 32.4694 196.652 35.6566 194.062 39.0585L186.168 60.4485L191.818 72.0285C192.152 72.8185 192.495 73.5985 192.92 74.3785L197.498 98.5085C198.095 91.9985 198.509 69.2785 199.045 62.7685C204.011 62.8082 208.934 61.8543 213.517 59.964C218.101 58.0736 222.251 55.286 225.719 51.7685C229.469 47.9485 232.481 43.1085 237.393 40.9185C243.72 38.1085 251.038 40.5985 257.507 43.0885L257.234 42.8285C260.592 44.5182 263.591 46.8301 266.068 49.6385C264.116 62.4829 264.978 75.5924 268.595 88.0785C269.141 89.9485 270.677 93.8285 272.486 94.5985C276.044 96.1085 277.146 92.5085 279.39 90.6585C281.047 89.2885 283.433 89.1985 286.02 89.2985C287.688 85.3885 289.507 78.7585 291.074 72.9585C293.231 73.7104 295.538 73.9469 297.806 73.6485C297.172 71.9885 296.542 70.3218 295.915 68.6485C296.749 69.3059 297.714 69.7829 298.746 70.0485C299.266 70.171 299.813 70.1333 300.311 69.9403C300.81 69.7473 301.237 69.4082 301.535 68.9685C302.172 67.7085 301.394 66.2785 300.737 65.0785Z" fill="#263238"/>
<path d="M259.791 34.3385C260.609 35.0156 261.37 35.7581 262.065 36.5585C263.84 38.8389 264.982 41.5377 265.38 44.3885C265.702 46.3414 265.828 48.3211 265.754 50.2985C265.684 52.4385 265.421 54.7185 265.168 57.1185C264.858 59.6401 264.706 62.1783 264.713 64.7185C264.731 66.0595 264.856 67.397 265.087 68.7185C265.24 70.1409 265.758 71.5008 266.593 72.6685C266.984 73.1345 267.49 73.492 268.063 73.7059C268.635 73.9198 269.254 73.9827 269.858 73.8885C271.015 73.7185 272.081 73.1733 272.89 72.3385C274.467 70.6485 274.912 68.4585 275.367 66.5185L274.871 66.5685C275.516 68.3522 276.415 70.0358 277.54 71.5685C278.635 72.9752 280.234 73.9128 282.007 74.1885C282.835 74.3039 283.678 74.1897 284.443 73.8585C285.155 73.5286 285.747 72.9912 286.141 72.3185C286.508 71.7137 286.707 71.0238 286.717 70.3185C286.712 69.6476 286.469 68.9999 286.03 68.4885L285.777 68.6985C287.109 70.3337 288.776 71.6699 290.669 72.6185C291.168 72.8683 291.681 73.0887 292.206 73.2785C292.386 73.3473 292.572 73.4008 292.762 73.4385C292.602 73.3348 292.429 73.254 292.246 73.1985C291.903 73.0385 291.387 72.8185 290.76 72.4685C288.933 71.4604 287.328 70.1003 286.04 68.4685L285.777 68.6785C286.136 69.1837 286.329 69.7861 286.329 70.4035C286.329 71.0209 286.136 71.6233 285.777 72.1285C285.412 72.7219 284.878 73.1951 284.241 73.4885C283.546 73.7802 282.783 73.8737 282.038 73.7585C280.383 73.4884 278.899 72.5963 277.894 71.2685C276.808 69.7815 275.943 68.1482 275.326 66.4185L275.013 65.6585L274.831 66.4585C274.386 68.3885 273.901 70.4585 272.466 72.0185C271.739 72.7653 270.783 73.2539 269.747 73.4085C269.237 73.4887 268.716 73.4389 268.231 73.2639C267.746 73.0889 267.315 72.7945 266.977 72.4085C266.203 71.3123 265.723 70.039 265.583 68.7085C265.359 67.4062 265.234 66.0892 265.209 64.7685C265.193 62.2489 265.335 59.7308 265.633 57.2285C265.876 54.8285 266.118 52.5385 266.169 50.3685C266.228 48.3583 266.075 46.3475 265.714 44.3685C265.274 41.4702 264.056 38.742 262.186 36.4685C261.516 35.6287 260.706 34.9083 259.791 34.3385Z" fill="#455A64"/>
<path d="M202.552 79.6385C202.996 80.1285 205.786 78.0685 209.718 78.1085C213.65 78.1485 216.5 80.1085 216.935 79.6785C217.147 79.4585 216.692 78.5885 215.449 77.6785C213.77 76.4768 211.75 75.8294 209.678 75.8285C207.626 75.8126 205.623 76.4508 203.967 77.6485C202.754 78.5485 202.329 79.4285 202.552 79.6385Z" fill="#263238"/>
<path d="M204.907 87.1685C204.931 87.9882 205.277 88.7665 205.871 89.3379C206.466 89.9093 207.262 90.2288 208.091 90.2285C208.496 90.2459 208.9 90.1829 209.28 90.043C209.66 89.9032 210.008 89.6895 210.303 89.4145C210.598 89.1395 210.834 88.8088 210.997 88.4419C211.161 88.075 211.248 87.6794 211.255 87.2785C211.234 86.4597 210.89 85.6814 210.297 85.1097C209.704 84.538 208.909 84.2182 208.081 84.2185C207.675 84.1997 207.27 84.2617 206.889 84.4009C206.508 84.5401 206.159 84.7536 205.863 85.0288C205.567 85.3039 205.33 85.6351 205.166 86.0027C205.001 86.3702 204.914 86.7667 204.907 87.1685Z" fill="#263238"/>
<path d="M196.134 36.4585C194.113 39.0185 190.939 41.3185 187.664 40.8885C186.483 40.6063 185.324 40.2386 184.197 39.7885C183.025 40.4485 183.186 44.3385 183.965 45.4385C184.692 46.3634 185.497 47.2264 186.37 48.0185C182.459 49.9685 178.982 48.8785 174.908 47.2885C175.226 50.7675 176.462 54.1028 178.494 56.9601C180.525 59.8174 183.279 62.0963 186.481 63.5685C188.503 64.4785 191.03 65.0085 192.95 63.8485C194.638 62.8485 195.366 60.8485 195.912 58.9185C197.931 52.0014 199.078 44.864 199.328 37.6685L196.134 36.4585Z" fill="#263238"/>
<path d="M230.954 113.948C231.229 113.447 231.635 113.026 232.129 112.731C232.623 112.436 233.187 112.276 233.764 112.268C234.856 112.268 235.786 112.168 236.584 112.918C237.342 113.64 237.857 114.576 238.057 115.598C238.258 116.62 238.136 117.678 237.706 118.628C237.229 119.558 236.419 120.277 235.434 120.647C234.449 121.017 233.36 121.01 232.38 120.628C230.469 119.758 229.711 114.888 231.035 113.268" fill="#EB996E"/>
<path d="M230.287 117.419C230.445 117.713 230.583 118.017 230.702 118.329C230.894 118.728 231.166 119.086 231.501 119.38C231.837 119.674 232.228 119.898 232.653 120.039C233.286 120.221 233.95 120.275 234.604 120.198C235.259 120.12 235.891 119.913 236.463 119.589C237.103 119.115 237.583 118.462 237.843 117.714C238.102 116.967 238.128 116.16 237.918 115.397C237.708 114.635 237.27 113.953 236.663 113.439C236.056 112.926 235.306 112.605 234.512 112.518C233.86 112.446 233.199 112.537 232.592 112.783C231.984 113.03 231.449 113.424 231.035 113.929C230.488 114.64 230.203 115.515 230.227 116.409C230.227 117.049 230.338 117.409 230.287 117.409C230.237 117.409 230.237 117.329 230.176 117.159C230.098 116.915 230.047 116.663 230.025 116.409C229.915 115.448 230.171 114.482 230.742 113.699C231.179 113.118 231.761 112.66 232.431 112.369C233.101 112.078 233.835 111.964 234.563 112.039C235.465 112.123 236.319 112.477 237.01 113.056C237.702 113.634 238.198 114.408 238.433 115.273C238.667 116.138 238.628 117.054 238.321 117.897C238.014 118.74 237.454 119.47 236.716 119.989C236.083 120.339 235.382 120.554 234.66 120.621C233.938 120.688 233.209 120.606 232.521 120.379C232.06 120.207 231.641 119.939 231.292 119.594C230.944 119.249 230.674 118.835 230.5 118.378C230.394 118.143 230.323 117.894 230.287 117.639C230.287 117.509 230.287 117.419 230.287 117.419Z" fill="#263238"/>
<path d="M259.973 34.2286C259.313 33.13 258.511 32.1214 257.587 31.2286C254.984 28.8837 251.659 27.4746 248.147 27.2286C245.74 27.0599 243.323 27.3415 241.021 28.0586C238.38 28.8896 235.874 30.0955 233.582 31.6386C228.68 34.8486 224.344 39.6386 219.603 44.4886C217.305 46.8688 214.817 49.0625 212.164 51.0486C209.682 52.9111 206.919 54.3757 203.977 55.3886C198.927 56.9858 193.512 57.0728 188.412 55.6386C184.986 54.7066 181.786 53.1013 179.001 50.9186L177.728 49.8586C177.364 49.5486 177.101 49.2386 176.869 49.0086L176.353 48.4686C176.242 48.3486 176.181 48.2786 176.192 48.2686L176.394 48.4286L176.939 48.9286C177.182 49.1486 177.465 49.4486 177.829 49.7486L179.102 50.7486C181.905 52.8406 185.09 54.3756 188.482 55.2686C193.512 56.6302 198.834 56.5086 203.795 54.9186C206.7 53.915 209.429 52.4674 211.881 50.6286C214.502 48.6487 216.966 46.4723 219.25 44.1186C223.97 39.3186 228.346 34.4686 233.339 31.2286C235.674 29.6685 238.228 28.4587 240.92 27.6386C243.277 26.9227 245.75 26.6546 248.208 26.8486C251.784 27.1344 255.153 28.6278 257.749 31.0786C258.434 31.7479 259.035 32.4966 259.538 33.3086C259.68 33.5786 259.801 33.7886 259.892 33.9586C259.983 34.1286 259.983 34.2186 259.973 34.2286Z" fill="#455A64"/>
<path d="M213.286 157.749L222.201 155.999L277.348 152.629L289.103 155.799L287.556 184.119L260.984 200.889L235.209 200.379L218.997 185.779L215.409 171.289L213.286 157.749Z" fill="#FFBE9D"/>
<path d="M363.706 202.339C360.574 195.879 357.036 189.62 353.114 183.599C346.785 173.991 337.109 167.019 325.925 164.009L283.473 152.619C283.473 152.619 281.27 194.619 252.049 194.619C222.828 194.619 217.137 155.249 217.137 155.249L167.964 174.659C166.276 175.309 154.875 179.209 141.604 207.359C128.969 234.169 123.41 247.879 123.41 247.879L174.008 262.339L177.172 307.409L176.101 333.149L329.826 332.809L328.967 303.389L329.614 258.279L331.534 261.349L382.699 241.049C382.699 241.049 376.108 227.689 363.706 202.339Z" fill="#18AA88"/>
<path d="M330.352 229.578C330.584 229.578 330.443 245.879 330.049 265.979C329.655 286.079 329.19 302.339 328.967 302.339C328.745 302.339 328.876 286.039 329.27 265.939C329.665 245.839 330.17 229.578 330.352 229.578Z" fill="#263238"/>
<path d="M166.347 220.339C166.605 220.87 166.795 221.431 166.913 222.009C167.216 223.099 167.63 224.688 168.115 226.648C169.076 230.588 170.268 236.049 171.38 242.129C172.492 248.209 173.28 253.749 173.766 257.759C174.008 259.759 174.19 261.399 174.281 262.529C174.368 263.111 174.388 263.701 174.342 264.289C174.141 263.733 174.012 263.156 173.958 262.569C173.756 261.279 173.503 259.699 173.2 257.839C172.573 253.839 171.673 248.338 170.572 242.268C169.47 236.198 168.368 230.739 167.539 226.779C167.165 224.929 166.852 223.358 166.589 222.078C166.443 221.509 166.362 220.926 166.347 220.339Z" fill="#263238"/>
<path d="M127.736 249.148L107.137 290.058C104.839 294.627 103.764 299.702 104.014 304.798C104.39 312.446 107.726 319.658 113.329 324.939C118.933 330.221 126.375 333.167 134.114 333.168L193.183 329.778L195.77 303.118L150.822 292.388L167.853 260.528L127.736 249.148Z" fill="#FFBE9D"/>
<path d="M150.822 292.389C150.822 292.579 148.801 292.239 145.516 292.259C141.272 292.341 137.068 293.076 133.053 294.439C129.043 295.765 125.285 297.746 121.935 300.299C119.388 302.299 118.175 303.929 118.033 303.829C117.892 303.729 118.246 303.349 118.781 302.599C119.58 301.563 120.481 300.609 121.47 299.749C124.793 296.957 128.63 294.828 132.77 293.479C136.882 292.073 141.218 291.419 145.566 291.549C146.877 291.596 148.182 291.75 149.468 292.009C149.937 292.06 150.395 292.189 150.822 292.389Z" fill="#EB996E"/>
<path d="M168.57 260.209C168.39 261.295 168.049 262.35 167.56 263.339C166.593 265.784 165.462 268.163 164.174 270.459C162.895 272.762 161.46 274.977 159.878 277.089C159.284 278.013 158.555 278.845 157.715 279.559C157.523 279.419 160.494 275.409 163.466 270.069C166.438 264.729 168.348 260.129 168.57 260.209Z" fill="#EB996E"/>
<path d="M380.596 333.029H311.238V307.129L351.406 290.339L336.507 259.448L376.715 243.448L396.344 286.648C400.902 299.198 405.562 305.158 401.59 316.578C399.528 322.508 390.997 333.029 380.596 333.029Z" fill="#FFBE9D"/>
<path d="M184.207 301.568H195.77C195.77 301.568 221.858 292.238 227.225 293.128C232.056 293.928 249.755 305.558 253.221 307.858C253.605 308.118 253.898 308.488 254.06 308.918C254.399 309.83 254.368 310.835 253.974 311.724C253.58 312.613 252.854 313.317 251.948 313.688L251.584 313.838L251.736 314.358C251.944 315.035 252.036 315.742 252.008 316.448C251.97 316.985 251.758 317.496 251.404 317.905C251.051 318.314 250.574 318.601 250.044 318.723C249.515 318.845 248.959 318.795 248.459 318.582C247.96 318.369 247.542 318.003 247.268 317.538L247.935 318.708C248.205 319.187 248.332 319.731 248.299 320.278L248.238 321.348C248.204 321.929 247.993 322.486 247.632 322.945C247.271 323.404 246.777 323.743 246.217 323.918C245.688 324.088 245.121 324.104 244.584 323.964C244.046 323.824 243.56 323.534 243.185 323.128C240.941 320.688 236.109 315.798 232.814 315.258C229.264 314.829 225.687 314.648 222.11 314.718C221.38 314.723 220.667 314.945 220.065 315.355C219.463 315.765 219 316.345 218.735 317.018C220.685 317.158 234.239 324.148 239.041 326.648C239.784 327.016 240.425 327.557 240.911 328.224C241.397 328.891 241.712 329.665 241.83 330.478C242.002 331.958 241.244 333.478 238.272 332.828C231.905 331.358 220.433 326.138 220.433 326.138C220.433 326.138 214.51 324.468 210.679 327.138C205.281 330.908 202.815 332.288 198.186 330.768C195.357 329.843 192.645 328.601 190.1 327.068L181.003 326.168C181.003 326.168 172.412 304.838 184.207 301.568Z" fill="#FFBE9D"/>
<path d="M218.664 305.929C218.664 306.029 220.514 305.449 223.566 305.249C227.542 304.984 231.524 305.653 235.189 307.202C238.853 308.75 242.095 311.134 244.651 314.159C245.687 315.441 246.655 316.776 247.551 318.159C247.41 317.737 247.216 317.334 246.975 316.959C246.386 315.905 245.709 314.902 244.954 313.959C242.419 310.826 239.138 308.364 235.406 306.794C231.673 305.223 227.605 304.592 223.566 304.959C222.351 305.057 221.147 305.262 219.968 305.569C219.52 305.637 219.083 305.758 218.664 305.929Z" fill="#EB996E"/>
<path d="M221.423 299.659C223.082 299.164 224.796 298.869 226.527 298.779C230.713 298.76 234.819 299.911 238.373 302.099C241.903 304.336 245.118 307.026 247.935 310.099L250.563 312.849C250.866 313.213 251.205 313.548 251.573 313.849C251.317 313.46 251.03 313.092 250.714 312.749C250.138 312.059 249.289 311.069 248.207 309.879C245.43 306.709 242.207 303.95 238.636 301.689C235.005 299.445 230.785 298.315 226.507 298.439C225.218 298.499 223.943 298.731 222.716 299.129C222.372 299.231 222.034 299.354 221.706 299.499C221.524 299.579 221.412 299.639 221.423 299.659Z" fill="#EB996E"/>
<path d="M328.179 302.338H316.605C316.605 302.338 290.518 293.008 285.151 293.898C280.319 294.698 262.621 306.328 259.154 308.628C258.771 308.888 258.478 309.258 258.315 309.688C257.98 310.6 258.012 311.604 258.405 312.492C258.799 313.381 259.523 314.085 260.428 314.458L260.792 314.608L260.64 315.128C260.43 315.805 260.338 316.512 260.367 317.218C260.406 317.755 260.618 318.266 260.971 318.675C261.325 319.084 261.801 319.371 262.331 319.493C262.861 319.615 263.417 319.565 263.916 319.352C264.416 319.139 264.833 318.773 265.108 318.308L264.44 319.478C264.177 319.959 264.051 320.502 264.077 321.048L264.137 322.108C264.167 322.69 264.377 323.249 264.739 323.709C265.1 324.168 265.596 324.507 266.159 324.678C266.686 324.852 267.253 324.87 267.791 324.732C268.329 324.594 268.816 324.304 269.191 323.898C271.435 321.448 276.266 316.558 279.561 316.018C283.116 315.597 286.696 315.42 290.275 315.488C291.004 315.495 291.715 315.718 292.315 316.128C292.915 316.538 293.377 317.116 293.641 317.788C291.69 317.918 278.136 324.918 273.335 327.418C272.593 327.785 271.951 328.324 271.465 328.989C270.98 329.654 270.664 330.426 270.545 331.238C270.374 332.728 271.132 334.288 274.103 333.598C280.471 332.128 291.943 326.908 291.943 326.908C291.943 326.908 297.866 325.228 301.697 327.908C307.094 331.678 309.56 333.058 314.19 331.538C317.019 330.615 319.732 329.374 322.276 327.838L331.373 326.938C331.373 326.938 339.974 305.638 328.179 302.338Z" fill="#FFBE9D"/>
<path d="M293.712 306.728C293.712 306.828 291.862 306.248 288.81 306.058C284.828 305.787 280.837 306.453 277.165 308.002C273.493 309.551 270.245 311.938 267.685 314.968C265.664 317.278 264.865 318.968 264.784 318.968C264.93 318.551 265.123 318.152 265.36 317.778C265.95 316.725 266.626 315.722 267.382 314.778C269.917 311.646 273.197 309.184 276.93 307.613C280.662 306.043 284.73 305.412 288.769 305.778C289.983 305.88 291.187 306.081 292.368 306.378C292.827 306.447 293.278 306.565 293.712 306.728Z" fill="#EB996E"/>
<path d="M290.933 300.458C289.29 299.968 287.593 299.673 285.879 299.578C281.686 299.565 277.574 300.719 274.013 302.908C270.485 305.149 267.27 307.839 264.451 310.908L261.823 313.668C261.52 314.033 261.181 314.368 260.812 314.668C261.067 314.275 261.354 313.904 261.672 313.558C262.248 312.878 263.097 311.888 264.188 310.698C266.959 307.526 270.18 304.768 273.75 302.508C277.381 300.266 281.601 299.135 285.879 299.258C287.165 299.32 288.436 299.552 289.659 299.948C290.005 300.046 290.343 300.17 290.67 300.318C290.764 300.352 290.853 300.399 290.933 300.458Z" fill="#EB996E"/>
<path d="M382.386 292.138C382.325 292.228 380.819 291.138 378.09 289.888C377.413 289.588 376.665 289.258 375.826 288.978C374.987 288.698 374.108 288.418 373.157 288.148C369.001 287.061 364.667 286.813 360.412 287.418C359.401 287.588 358.512 287.718 357.663 287.948C356.866 288.122 356.08 288.339 355.307 288.598C352.457 289.518 350.83 290.428 350.779 290.338C351.128 290.071 351.508 289.846 351.911 289.668C352.355 289.41 352.818 289.186 353.296 288.998C353.912 288.715 354.543 288.465 355.186 288.248C355.964 287.965 356.757 287.724 357.561 287.528C358.477 287.289 359.405 287.095 360.341 286.948C364.657 286.276 369.068 286.525 373.279 287.678C374.239 287.978 375.159 288.228 375.977 288.578C376.755 288.868 377.514 289.201 378.252 289.578C378.949 289.888 379.525 290.248 380.051 290.578C380.499 290.828 380.931 291.105 381.345 291.408C381.718 291.613 382.067 291.858 382.386 292.138Z" fill="#EB996E"/>
<path d="M323.549 336.338H179.112C177.137 336.338 175.238 335.582 173.813 334.229C172.387 332.876 171.544 331.031 171.461 329.078L167.125 230.728C167.078 229.706 167.242 228.684 167.606 227.726C167.969 226.767 168.525 225.891 169.24 225.151C169.955 224.411 170.814 223.822 171.766 223.419C172.717 223.017 173.741 222.809 174.776 222.808H327.602C328.636 222.809 329.658 223.016 330.609 223.417C331.56 223.819 332.418 224.406 333.134 225.144C333.85 225.881 334.407 226.755 334.773 227.711C335.139 228.667 335.306 229.687 335.264 230.708L331.221 329.058C331.142 331.018 330.299 332.871 328.869 334.229C327.438 335.586 325.531 336.343 323.549 336.338Z" fill="#E0E0E0"/>
<path d="M323.549 336.338C324.017 336.308 324.482 336.255 324.944 336.178C326.295 335.925 327.55 335.309 328.573 334.398C329.405 333.667 330.067 332.764 330.512 331.754C330.957 330.744 331.175 329.65 331.15 328.548C331.251 325.928 331.369 322.912 331.504 319.498C332.05 305.878 332.828 286.178 333.798 261.828C334.041 255.735 334.297 249.365 334.566 242.718C334.698 239.398 334.839 236.008 334.971 232.558C334.971 231.698 335.072 230.808 335.041 229.968C334.989 229.117 334.787 228.281 334.445 227.498C333.759 225.896 332.514 224.59 330.938 223.818C330.146 223.425 329.291 223.171 328.411 223.068C327.542 222.998 326.602 223.068 325.682 223.068H284.928H178.981H175.464C174.326 223.005 173.187 223.175 172.118 223.568C171.065 223.972 170.119 224.607 169.352 225.427C168.585 226.247 168.017 227.229 167.691 228.298C167.535 228.83 167.433 229.376 167.388 229.928C167.388 230.478 167.388 231.038 167.388 231.618C167.438 232.758 167.479 233.898 167.529 235.038L167.833 241.848C168.223 250.902 168.614 259.808 169.005 268.568C169.773 286.088 170.511 302.978 171.219 319.078C171.31 321.078 171.391 323.078 171.481 325.078C171.481 326.078 171.562 327.078 171.613 328.078C171.599 329.044 171.721 330.007 171.977 330.938C172.546 332.767 173.811 334.305 175.504 335.228C176.334 335.679 177.243 335.968 178.183 336.078C179.103 336.178 180.093 336.128 181.053 336.138H203.502H243.791L302.121 336.218L317.98 336.268H322.104H323.509H322.104H317.98H302.121L243.791 336.348H203.502H181.094C180.083 336.348 179.173 336.348 178.163 336.288C176.647 336.105 175.218 335.492 174.047 334.523C172.876 333.555 172.013 332.271 171.562 330.828C171.294 329.851 171.164 328.841 171.178 327.828C171.128 326.828 171.087 325.828 171.037 324.828C170.956 322.828 170.868 320.828 170.774 318.828C170.056 302.728 169.308 285.828 168.53 268.318C168.146 259.558 167.752 250.652 167.347 241.598C167.246 239.338 167.155 237.068 167.054 234.788L166.903 231.368C166.872 230.789 166.872 230.208 166.903 229.628C166.946 229.036 167.051 228.45 167.216 227.878C167.565 226.734 168.173 225.683 168.994 224.806C169.816 223.929 170.829 223.249 171.957 222.818C173.086 222.402 174.29 222.218 175.494 222.278H179.012H284.959H325.712C326.642 222.278 327.542 222.278 328.492 222.328C329.421 222.434 330.325 222.701 331.16 223.118C332.831 223.939 334.148 225.327 334.87 227.028C335.227 227.857 335.439 228.739 335.496 229.638C335.496 230.548 335.496 231.388 335.426 232.258C335.284 235.718 335.143 239.108 335.001 242.428C334.718 249.095 334.448 255.465 334.192 261.538C333.182 285.878 332.323 305.538 331.736 319.198C331.588 322.605 331.457 325.605 331.342 328.198C331.357 329.318 331.126 330.426 330.665 331.449C330.205 332.471 329.525 333.382 328.674 334.118C327.63 335.028 326.354 335.637 324.984 335.878C324.65 335.935 324.313 335.968 323.974 335.978L323.549 336.338Z" fill="#263238"/>
<path d="M259.094 281.339C259.094 282.887 258.63 284.401 257.76 285.689C256.891 286.976 255.655 287.98 254.208 288.573C252.762 289.165 251.171 289.32 249.636 289.018C248.101 288.716 246.69 287.97 245.584 286.875C244.477 285.78 243.723 284.385 243.418 282.866C243.112 281.347 243.269 279.773 243.868 278.342C244.467 276.911 245.481 275.688 246.783 274.828C248.084 273.968 249.615 273.509 251.18 273.509C253.278 273.511 255.289 274.337 256.773 275.805C258.257 277.273 259.091 279.263 259.094 281.339Z" fill="white"/>
<path d="M403.89 72L415.02 83.48L430.59 79.84L433.75 95.51L448.81 100.87L443 115.77L452.77 128.42L439.83 137.8L441.21 153.73L425.25 154.63L417.8 168.78L403.89 160.9L389.97 168.78L382.52 154.63L366.56 153.73L367.94 137.8L355 128.42L364.78 115.77L358.96 100.87L374.02 95.51L377.18 79.84L392.75 83.48L403.89 72Z" fill="#FFB800"/>
<path d="M397.77 107.76C397.77 104.51 396.64 103.63 394.83 103.63C393.02 103.63 391.89 104.63 391.89 107.19V109.51H386.53V107.51C386.53 101.73 389.42 98.4301 394.99 98.4301C400.56 98.4301 403.44 101.73 403.44 107.51V108.44C403.44 112.31 402.21 114.73 399.44 115.87C402.28 117.1 403.44 119.78 403.44 123.45V126.28C403.44 132.06 400.56 135.36 394.99 135.36C389.42 135.36 386.53 132.06 386.53 126.28V123.28H391.89V126.63C391.89 129.21 393.03 130.19 394.83 130.19C396.63 130.19 397.77 129.32 397.77 126.12V123.28C397.77 119.93 396.64 118.69 394.06 118.69H392.15V113.53H394.37C396.48 113.53 397.77 112.61 397.77 109.72V107.76Z" fill="white"/>
<path d="M406.8 107.55C406.8 101.77 409.8 98.4701 415.41 98.4701C421.02 98.4701 424.02 101.77 424.02 107.55V126.32C424.02 132.1 421.02 135.4 415.41 135.4C409.8 135.4 406.8 132.1 406.8 126.32V107.55ZM412.47 126.68C412.47 129.26 413.61 130.24 415.41 130.24C417.21 130.24 418.35 129.24 418.35 126.68V107.19C418.35 104.61 417.22 103.63 415.41 103.63C413.6 103.63 412.47 104.63 412.47 107.19V126.68Z" fill="white"/>
<path d="M425.53 98.6C425.494 98.3825 425.506 98.1598 425.565 97.9475C425.624 97.7351 425.729 97.5381 425.871 97.3701C426.014 97.2022 426.192 97.0672 426.392 96.9747C426.592 96.8822 426.809 96.8342 427.03 96.8342C427.25 96.8342 427.468 96.8822 427.668 96.9747C427.868 97.0672 428.046 97.2022 428.188 97.3701C428.331 97.5381 428.435 97.7351 428.494 97.9475C428.553 98.1598 428.565 98.3825 428.53 98.6V101.88C428.565 102.097 428.553 102.32 428.494 102.533C428.435 102.745 428.331 102.942 428.188 103.11C428.046 103.278 427.868 103.413 427.668 103.505C427.468 103.598 427.25 103.646 427.03 103.646C426.809 103.646 426.592 103.598 426.392 103.505C426.192 103.413 426.014 103.278 425.871 103.11C425.729 102.942 425.624 102.745 425.565 102.533C425.506 102.32 425.494 102.097 425.53 101.88V98.6ZM426.53 101.96C426.53 102.4 426.71 102.58 427.04 102.58C427.37 102.58 427.56 102.4 427.56 101.96V98.52C427.56 98.08 427.36 97.89 427.04 97.89C426.72 97.89 426.53 98.08 426.53 98.52V101.96ZM430.99 97.07H431.92L427.92 107.07H426.99L430.99 97.07ZM430.49 102.26C430.454 102.042 430.466 101.82 430.525 101.607C430.584 101.395 430.689 101.198 430.831 101.03C430.974 100.862 431.152 100.727 431.352 100.635C431.552 100.542 431.769 100.494 431.99 100.494C432.21 100.494 432.428 100.542 432.628 100.635C432.828 100.727 433.006 100.862 433.148 101.03C433.291 101.198 433.395 101.395 433.454 101.607C433.513 101.82 433.525 102.042 433.49 102.26V105.54C433.525 105.757 433.513 105.98 433.454 106.193C433.395 106.405 433.291 106.602 433.148 106.77C433.006 106.938 432.828 107.073 432.628 107.165C432.428 107.258 432.21 107.306 431.99 107.306C431.769 107.306 431.552 107.258 431.352 107.165C431.152 107.073 430.974 106.938 430.831 106.77C430.689 106.602 430.584 106.405 430.525 106.193C430.466 105.98 430.454 105.757 430.49 105.54V102.26ZM431.49 105.62C431.49 106.06 431.67 106.24 432 106.24C432.33 106.24 432.52 106.06 432.52 105.62V102.18C432.52 101.74 432.32 101.56 432 101.56C431.68 101.56 431.49 101.74 431.49 102.18V105.62Z" fill="white"/>
<path d="M393.63 137.21C395.88 137.21 397.04 138.56 397.04 140.92V141.39H394.85V140.77C394.85 139.77 394.43 139.32 393.69 139.32C392.95 139.32 392.53 139.72 392.53 140.77C392.53 143.77 397.06 144.38 397.06 148.59C397.06 150.95 395.88 152.3 393.61 152.3C391.34 152.3 390.15 150.95 390.15 148.59V147.69H392.34V148.69C392.34 149.74 392.81 150.12 393.54 150.12C394.27 150.12 394.75 149.74 394.75 148.69C394.75 145.69 390.21 145.09 390.21 140.87C390.21 138.56 391.37 137.21 393.63 137.21Z" fill="white"/>
<path d="M405.9 152.13H403.56L403.16 149.46H400.28L399.88 152.13H397.78L400.14 137.38H403.54L405.9 152.13ZM400.61 147.45H402.84L401.72 140.04L400.61 147.45Z" fill="white"/>
<path d="M406.971 137.38H409.281V150.04H413.101V152.15H406.971V137.38Z" fill="white"/>
<path d="M416.44 143.6H419.62V145.7H416.44V150.04H420.44V152.15H414.12V137.38H420.44V139.49H416.44V143.6Z" fill="white"/>
</g>
<defs>
<clipPath id="clip0">
<rect width="470" height="332" fill="white"/>
</clipPath>
</defs>
</svg>
