<svg width="334" height="306" viewBox="0 0 334 306" fill="none" xmlns="http://www.w3.org/2000/svg">
<g opacity="0.2">
<path d="M166.745 305.002C258.836 305.002 333.491 300.728 333.491 295.457C333.491 290.186 258.836 285.913 166.745 285.913C74.6545 285.913 0 290.186 0 295.457C0 300.728 74.6545 305.002 166.745 305.002Z" fill="#F5F5F5"/>
</g>
<path d="M285.271 167.284H46.8101C46.0513 167.281 45.3242 166.985 44.7876 166.459C44.251 165.933 43.9486 165.22 43.9463 164.476C43.9486 163.732 44.251 163.019 44.7876 162.493C45.3242 161.967 46.0513 161.67 46.8101 161.668H285.271C286.03 161.67 286.757 161.967 287.293 162.493C287.83 163.019 288.132 163.732 288.135 164.476C288.132 165.22 287.83 165.933 287.293 166.459C286.757 166.985 286.03 167.281 285.271 167.284Z" fill="#407BFF"/>
<path opacity="0.3" d="M285.27 167.284H229.448C228.689 167.281 227.962 166.985 227.425 166.459C226.889 165.933 226.586 165.22 226.584 164.476C226.586 163.732 226.889 163.019 227.425 162.493C227.962 161.967 228.689 161.67 229.448 161.668H285.27C286.029 161.67 286.756 161.967 287.293 162.493C287.829 163.019 288.132 163.732 288.134 164.476C288.132 165.22 287.829 165.933 287.293 166.459C286.756 166.985 286.029 167.281 285.27 167.284Z" fill="#263238"/>
<path d="M279.216 174.324H95.8213V193.893H279.216V174.324Z" fill="#263238"/>
<path opacity="0.1" d="M279.216 174.324H95.8213V193.893H279.216V174.324Z" fill="white"/>
<path d="M276.55 291.562H282.037L281.813 167.284H274.211L276.55 291.562Z" fill="#263238"/>
<path opacity="0.1" d="M276.55 291.562H282.037L281.813 167.284H274.211L276.55 291.562Z" fill="white"/>
<path d="M225.982 291.562H220.486L232.905 167.284H240.507L225.982 291.562Z" fill="#263238"/>
<path opacity="0.2" d="M225.982 291.562H220.486L232.905 167.284H240.507L225.982 291.562Z" fill="white"/>
<path d="M93.9124 291.562H99.3992L99.1756 167.284H91.5732L93.9124 291.562Z" fill="#263238"/>
<path opacity="0.1" d="M93.9124 291.562H99.3992L99.1756 167.284H91.5732L93.9124 291.562Z" fill="white"/>
<path d="M43.344 291.562H37.8486L50.267 167.284H57.8694L43.344 291.562Z" fill="#263238"/>
<path opacity="0.2" d="M43.344 291.562H37.8486L50.267 167.284H57.8694L43.344 291.562Z" fill="white"/>
<path d="M197.8 161.668H185.141L180.075 137.403H192.734L197.8 161.668Z" fill="#263238"/>
<path d="M214.596 156.668H159.676C159.249 156.673 158.825 156.591 158.432 156.427C158.039 156.263 157.685 156.02 157.393 155.715C157.1 155.41 156.875 155.049 156.732 154.654C156.59 154.259 156.532 153.84 156.563 153.422L158.661 119.334C158.726 118.461 159.122 117.643 159.771 117.042C160.421 116.441 161.277 116.101 162.17 116.088H217.098C217.525 116.085 217.948 116.168 218.34 116.333C218.733 116.497 219.086 116.739 219.378 117.044C219.671 117.349 219.896 117.71 220.039 118.104C220.182 118.498 220.241 118.917 220.211 119.334L218.113 153.422C218.046 154.296 217.649 155.115 216.997 155.715C216.346 156.316 215.49 156.656 214.596 156.668Z" fill="#263238"/>
<path d="M213.736 156.668H158.817C158.39 156.673 157.966 156.591 157.573 156.427C157.18 156.263 156.826 156.02 156.533 155.715C156.241 155.41 156.016 155.049 155.873 154.654C155.73 154.259 155.672 153.84 155.703 153.422L157.802 119.334C157.866 118.461 158.262 117.643 158.912 117.042C159.562 116.441 160.418 116.101 161.311 116.088H216.239C216.666 116.085 217.088 116.168 217.481 116.333C217.873 116.497 218.227 116.739 218.519 117.044C218.811 117.349 219.036 117.71 219.18 118.104C219.323 118.498 219.382 118.917 219.352 119.334L217.254 153.422C217.187 154.296 216.789 155.115 216.138 155.715C215.487 156.316 214.63 156.656 213.736 156.668Z" fill="#407BFF"/>
<path d="M158.807 154.982C158.617 154.983 158.427 154.947 158.252 154.874C158.076 154.802 157.917 154.695 157.784 154.561C157.655 154.421 157.555 154.257 157.492 154.079C157.428 153.901 157.402 153.712 157.414 153.524L159.513 119.436C159.544 118.986 159.746 118.564 160.079 118.252C160.411 117.94 160.85 117.761 161.31 117.749H216.238C216.43 117.746 216.621 117.783 216.797 117.856C216.974 117.93 217.133 118.039 217.264 118.176C217.395 118.313 217.496 118.476 217.559 118.654C217.622 118.832 217.647 119.02 217.631 119.208L215.533 153.296C215.503 153.746 215.302 154.17 214.969 154.482C214.636 154.794 214.196 154.973 213.736 154.982H158.807Z" fill="white"/>
<path opacity="0.2" d="M182.931 116.088L186.5 128.069L197.095 116.088H182.931Z" fill="black"/>
<path d="M97.5586 87C97.6446 87.6492 98.0574 88.1382 98.496 88.1045C98.9346 88.0708 99.2098 87.5143 99.1238 86.8651C99.0378 86.2158 98.625 85.7268 98.195 85.7606C97.765 85.7943 97.4812 86.3676 97.5586 87Z" fill="#263238"/>
<path d="M98.2803 87.9696C99.0546 89.6526 100.055 91.2264 101.256 92.649C100.31 93.5849 98.5813 93.2055 98.5813 93.2055L98.2803 87.9696Z" fill="#A02724"/>
<path d="M95.3648 84.5296C95.2994 84.5415 95.2324 84.5415 95.167 84.5296C95.0716 84.4887 94.9959 84.4132 94.9559 84.319C94.9158 84.2247 94.9144 84.1189 94.952 84.0237C95.1755 83.4621 95.535 82.9622 95.9994 82.5671C96.4639 82.172 97.0193 81.8935 97.618 81.7557C97.6682 81.7472 97.7197 81.7486 97.7695 81.7597C97.8192 81.7708 97.8662 81.7915 97.9077 81.8205C97.9493 81.8495 97.9846 81.8862 98.0116 81.9287C98.0386 81.9711 98.0568 82.0183 98.0652 82.0676C98.0827 82.1682 98.0592 82.2714 97.9996 82.3551C97.9401 82.4387 97.8493 82.496 97.747 82.5145C97.2781 82.6256 96.8445 82.8484 96.4844 83.1632C96.1244 83.4779 95.8491 83.8748 95.683 84.3188C95.6513 84.3766 95.6058 84.426 95.5504 84.4627C95.495 84.4994 95.4313 84.5224 95.3648 84.5296Z" fill="#263238"/>
<path d="M78.0707 97.1766L83.2307 101.055L90.2741 106.342C89.888 107.136 89.6547 107.993 89.5861 108.871C89.3367 110.81 89.0873 112.244 93.4819 113.432C93.9487 113.542 94.3736 113.78 94.706 114.119C95.0384 114.459 95.2643 114.885 95.3567 115.346C95.5287 116.493 94.8149 117.876 90.7557 118.559C86.8241 119.135 82.8075 118.464 79.2919 116.645C77.5719 115.802 77.5719 114.79 78.2943 113.078C80.4615 108.213 79.4123 102.008 78.0707 97.1766Z" fill="#B55B52"/>
<path d="M72.1455 114.613C73.1364 112.744 73.9538 110.791 74.5879 108.778C74.5879 108.778 87.6599 108.078 91.9771 109.343C96.2943 110.608 98.9775 116.088 98.9775 116.088L72.1455 114.613Z" fill="#407BFF"/>
<path d="M77.6145 124.149C77.2963 125.093 76.9437 126.248 76.6083 127.31L75.6365 130.599C75.0345 132.791 74.4497 134.991 73.9939 137.184C73.5087 139.327 73.1384 141.494 72.8845 143.676C72.6194 145.68 72.556 147.705 72.6953 149.721C72.746 150.574 72.8785 151.421 73.0909 152.25C73.1425 152.419 73.1855 152.605 73.2457 152.765L73.4177 153.22C73.377 153.139 73.3311 153.06 73.2801 152.984C73.1923 152.861 73.0976 152.743 72.9963 152.63C72.8856 152.499 72.7584 152.383 72.6179 152.284C72.4459 152.166 72.4201 152.183 72.4545 152.225C72.7064 152.403 72.9775 152.553 73.2629 152.672C73.6499 152.841 74.1229 153.009 74.5959 153.169C75.5677 153.49 76.6427 153.785 77.7521 154.072C82.1897 155.168 87.0315 156.019 91.7529 157.006L91.5981 162.849C89.0761 163.179 86.5388 163.384 83.9957 163.464C81.4153 163.556 78.8317 163.514 76.2557 163.338C74.8917 163.248 73.5337 163.085 72.1879 162.849C71.4827 162.722 70.7517 162.579 69.9777 162.368C69.0876 162.143 68.2231 161.829 67.3977 161.432C66.7867 161.144 66.2099 160.79 65.6777 160.378C65.3009 160.084 64.9526 159.757 64.6371 159.4C64.44 159.172 64.2562 158.932 64.0867 158.684C64.0007 158.54 63.9061 158.397 63.8287 158.254L63.7169 158.051L63.1235 156.862C62.9429 156.466 62.7967 156.078 62.6419 155.682C62.0993 154.206 61.7075 152.681 61.4723 151.129C60.6123 145.269 61.2917 140.042 62.1861 134.958C62.6677 132.428 63.2353 129.899 63.9061 127.496C64.2501 126.273 64.6113 125.051 64.9983 123.845C65.3853 122.639 65.7981 121.476 66.2969 120.152L77.6145 124.149Z" fill="#B55B52"/>
<path d="M69.6598 113.567C77.7868 111.459 82.6114 117.985 79.8594 128.744C77.1074 139.502 76.1872 139.907 76.1872 139.907L59.4258 137.167C61.4898 126.627 61.3264 115.717 69.6598 113.567Z" fill="#407BFF"/>
<path d="M95.9156 154.67L94.6514 154.561C91.0566 154.561 90.4374 155.522 88.2272 157.537L87.3672 161.972C93.1722 164.881 96.2854 161.685 96.294 161.685H101.669L99.777 157.469C99.4469 156.707 98.9146 156.046 98.2356 155.554C97.5566 155.061 96.7555 154.756 95.9156 154.67Z" fill="#B55B52"/>
<path d="M75.8514 88.7874C77.3134 96.4684 77.7692 101.038 82.2584 104.47C89.0008 109.621 98.2888 104.723 99.2004 96.7298C100.017 89.5378 97.4804 78.1808 89.3792 76.1657C87.5724 75.7282 85.6824 75.7441 83.8836 76.2118C82.0848 76.6796 80.4351 77.5841 79.087 78.8419C77.739 80.0997 76.7358 81.6703 76.1703 83.4085C75.6048 85.1468 75.4951 86.9967 75.8514 88.7874Z" fill="#B55B52"/>
<path d="M91.3749 91.4686C96.9649 91.0302 95.3309 85.2547 93.6023 84.049C96.2253 83.071 98.0313 78.9902 95.5115 76.191C96.9907 72.4053 92.7595 67.8439 85.3377 68.5268C79.9197 69.0159 79.3177 71.8235 79.3177 71.8235C79.3177 71.8235 72.8247 71.1574 70.1243 76.4102C67.8195 80.9125 70.6145 83.3155 70.6145 83.3155C70.6145 83.3155 65.7641 84.6982 67.1057 90.9037C68.5333 97.5982 73.7793 96.0468 73.7793 96.0468C73.7793 96.0468 72.6011 102.185 79.6961 102.269C85.8279 102.345 85.9053 97.8427 85.9053 97.8427C85.9053 97.8427 93.8517 97.1176 91.3749 91.4686Z" fill="#263238"/>
<path d="M87.2129 91.9155C87.8397 93.5631 89.0646 94.9261 90.6529 95.7433C92.6997 96.7719 94.2649 94.6388 93.9037 92.4467C93.5769 90.4821 91.8311 87.9612 89.6725 87.8431C87.5139 87.7251 86.4475 89.8751 87.2129 91.9155Z" fill="#B55B52"/>
<path d="M170.589 281.908L178.235 278.864L172.834 260.863L165.188 263.899L170.589 281.908Z" fill="#B55B52"/>
<path opacity="0.2" d="M167.811 272.634L175.534 269.851L172.834 260.863L165.188 263.899L167.811 272.634Z" fill="black"/>
<path d="M177.573 275.863L168.827 278.839C168.754 278.861 168.685 278.897 168.626 278.945C168.567 278.993 168.518 279.052 168.482 279.119C168.446 279.185 168.424 279.258 168.417 279.333C168.409 279.408 168.417 279.484 168.44 279.556L170.418 286.486C170.545 286.843 170.81 287.137 171.156 287.304C171.502 287.471 171.901 287.498 172.267 287.38C175.286 286.284 176.507 285.694 180.239 284.109C183.913 282.602 187.507 280.913 191.006 279.05C193.922 277.364 192.167 274.488 190.748 274.961C187.386 276.073 181.873 276.799 179.078 275.854C178.59 275.693 178.06 275.696 177.573 275.863Z" fill="#263238"/>
<path d="M109.185 178.059C109.185 178.059 166.968 183.118 168.465 199.415C171.475 232.576 176.093 264.548 176.093 264.548L164.337 268.764C164.337 268.764 149.949 232.34 150.138 206.371C133.471 201.759 89.6458 208.53 82.482 195.925C76.1524 184.795 81.708 176.803 81.708 176.803L109.185 178.059Z" fill="#263238"/>
<path d="M163.46 271.386L178.097 266.538L177.46 260.003L160.957 265.214L163.46 271.386Z" fill="#407BFF"/>
<path d="M180.798 276.208C180.094 276.43 179.367 276.574 178.63 276.638C178.593 276.643 178.555 276.637 178.521 276.62C178.488 276.604 178.46 276.578 178.441 276.546C178.422 276.515 178.412 276.48 178.412 276.444C178.412 276.409 178.422 276.374 178.441 276.343C178.63 276.09 180.316 273.865 181.391 273.898C181.514 273.905 181.633 273.942 181.738 274.005C181.843 274.069 181.931 274.156 181.993 274.261C182.105 274.409 182.174 274.585 182.194 274.769C182.214 274.952 182.183 275.138 182.105 275.306C181.797 275.755 181.332 276.076 180.798 276.208ZM179.078 276.208C180.565 276.006 181.58 275.618 181.812 275.138C181.861 275.027 181.878 274.906 181.861 274.787C181.844 274.669 181.795 274.556 181.718 274.463C181.691 274.409 181.65 274.363 181.598 274.33C181.546 274.298 181.487 274.279 181.425 274.278C180.806 274.252 179.74 275.34 179.035 276.208H179.078Z" fill="#407BFF"/>
<path d="M178.673 276.63C178.643 276.639 178.61 276.639 178.579 276.63C178.547 276.625 178.517 276.612 178.492 276.593C178.466 276.574 178.446 276.549 178.433 276.52C178.433 276.428 177.444 274.294 177.96 273.283C178.026 273.153 178.122 273.04 178.24 272.953C178.357 272.865 178.494 272.805 178.639 272.777C178.797 272.725 178.969 272.727 179.125 272.784C179.282 272.841 179.413 272.948 179.499 273.089C179.972 273.864 179.379 275.846 178.768 276.563C178.744 276.594 178.711 276.617 178.673 276.63ZM178.673 273.173C178.6 273.198 178.533 273.236 178.475 273.287C178.417 273.338 178.371 273.399 178.338 273.468C178.028 274.067 178.407 275.348 178.691 276.065C179.164 275.273 179.508 273.797 179.198 273.291C179.138 273.198 179.035 273.089 178.759 273.148L178.673 273.173Z" fill="#407BFF"/>
<path d="M129.679 287.262L137.849 286.883L139.182 267.971L131.012 268.35L129.679 287.262Z" fill="#B55B52"/>
<path d="M138.038 285.517L128.785 285.23C128.708 285.224 128.631 285.233 128.557 285.257C128.484 285.281 128.416 285.318 128.358 285.368C128.3 285.417 128.252 285.477 128.217 285.545C128.183 285.612 128.162 285.686 128.157 285.761L127.477 292.919C127.471 293.109 127.502 293.299 127.57 293.477C127.638 293.655 127.742 293.818 127.874 293.957C128.007 294.096 128.167 294.207 128.343 294.285C128.52 294.363 128.711 294.406 128.905 294.412C132.13 294.454 133.669 294.319 137.737 294.412C140.24 294.488 145.168 294.85 148.599 294.412C152.031 293.973 151.506 290.677 150.009 290.55C146.475 290.272 141.736 287.877 139.474 286.014C139.068 285.692 138.561 285.516 138.038 285.517Z" fill="#263238"/>
<path d="M140.945 287.009C140.206 286.967 139.474 286.849 138.761 286.655C138.724 286.647 138.691 286.628 138.665 286.602C138.64 286.575 138.623 286.542 138.616 286.506C138.61 286.47 138.614 286.433 138.629 286.399C138.644 286.366 138.669 286.337 138.701 286.318C138.967 286.141 141.349 284.631 142.347 285.07C142.46 285.118 142.559 285.194 142.634 285.29C142.709 285.385 142.758 285.498 142.777 285.618C142.827 285.795 142.828 285.982 142.779 286.16C142.731 286.338 142.635 286.5 142.502 286.63C142.052 286.947 141.494 287.082 140.945 287.009ZM139.294 286.393C140.756 286.731 141.874 286.722 142.244 286.393C142.329 286.305 142.388 286.195 142.415 286.077C142.442 285.958 142.436 285.835 142.399 285.719C142.391 285.66 142.367 285.605 142.331 285.558C142.295 285.511 142.247 285.473 142.192 285.449C141.625 285.196 140.231 285.829 139.225 286.393H139.294Z" fill="#407BFF"/>
<path d="M138.769 286.663C138.738 286.671 138.706 286.671 138.675 286.663C138.647 286.646 138.624 286.622 138.608 286.594C138.591 286.567 138.582 286.535 138.58 286.503C138.58 286.41 138.468 284.083 139.32 283.325C139.431 283.217 139.568 283.14 139.719 283.098C139.869 283.057 140.028 283.054 140.18 283.088C140.344 283.097 140.501 283.16 140.624 283.268C140.747 283.375 140.83 283.52 140.859 283.679C141.014 284.564 139.732 286.208 138.898 286.663C138.857 286.68 138.811 286.68 138.769 286.663ZM139.999 283.451C139.922 283.446 139.844 283.457 139.772 283.483C139.699 283.509 139.633 283.55 139.578 283.603C139.07 284.05 138.958 285.382 138.958 286.132C139.689 285.559 140.549 284.303 140.446 283.721C140.446 283.611 140.36 283.485 140.085 283.443L139.999 283.451Z" fill="#407BFF"/>
<path opacity="0.2" d="M131.012 268.35L139.191 267.971L138.417 278.788L130.272 278.78L131.012 268.35Z" fill="black"/>
<path d="M89.99 177.157C89.99 177.157 152.254 186.49 151.265 200.545C149.485 225.839 140.833 275.273 140.833 275.273L128.57 275.441C128.57 275.441 125.671 224.735 130.29 206.253C114.973 206.253 71.7666 205.731 65.8756 198.016C59.3568 189.492 66.0562 176.094 66.0562 176.094L89.99 177.157Z" fill="#263238"/>
<path d="M127.125 276.385L141.969 276.158L142.7 268.468L126.411 269.092L127.125 276.385Z" fill="#407BFF"/>
<path d="M100.956 112.716C95.9417 111.755 73.3323 112.033 73.3323 112.033C71.0723 111.972 68.8713 112.745 67.1643 114.198C65.4573 115.652 64.3685 117.68 64.1131 119.882C63.3219 126.72 67.7509 141.998 67.9057 149.788C68.0949 159.358 66.2287 163.236 66.0395 176.12L109.186 178.059C109.186 152.149 108.033 130.7 106.993 120.414C106.623 116.796 105.969 113.668 100.956 112.716Z" fill="#407BFF"/>
<path opacity="0.3" d="M100.956 112.716C95.9417 111.755 73.3323 112.033 73.3323 112.033C71.0723 111.972 68.8713 112.745 67.1643 114.198C65.4573 115.652 64.3685 117.68 64.1131 119.882C63.3219 126.72 67.7509 141.998 67.9057 149.788C68.0949 159.358 66.2287 163.236 66.0395 176.12L109.186 178.059C109.186 152.149 108.033 130.7 106.993 120.414C106.623 116.796 105.969 113.668 100.956 112.716Z" fill="white"/>
<path d="M106.864 120.877C108.214 125.43 109.573 130.11 110.974 134.679C112.376 139.249 113.812 143.844 115.429 148.17C115.825 149.274 116.289 150.303 116.668 151.365L117.33 152.857L117.416 153.043V153.136V153.186V153.127C117.267 152.867 117.082 152.629 116.865 152.419C116.573 152.141 116.461 152.115 116.435 152.115C116.627 152.285 116.849 152.419 117.089 152.512C117.51 152.711 117.944 152.883 118.388 153.026C119.359 153.355 120.452 153.65 121.561 153.945C126.059 155.066 130.969 155.926 135.751 156.93L135.596 162.773C133.029 163.112 130.446 163.318 127.856 163.388C125.235 163.487 122.611 163.439 119.996 163.245C118.605 163.147 117.221 162.973 115.851 162.722C115.128 162.587 114.38 162.419 113.572 162.191C112.613 161.928 111.689 161.554 110.82 161.078C110.127 160.688 109.49 160.209 108.928 159.653C108.498 159.219 108.128 158.731 107.827 158.203L107.534 157.672L106.563 155.867C105.995 154.687 105.376 153.498 104.843 152.326C103.785 149.957 102.856 147.613 101.927 145.261C100.998 142.908 100.207 140.556 99.4074 138.195C97.8164 133.448 96.3802 128.752 95.1074 123.862L106.864 120.877Z" fill="#B55B52"/>
<path d="M94.6081 116.181C100.508 110.279 108.05 113.5 111.292 124.157C114.534 134.814 113.95 135.59 113.95 135.59L98.0997 141.618C94.3587 131.467 88.5709 122.193 94.6081 116.181Z" fill="#407BFF"/>
<path d="M139.965 154.67L138.7 154.561C135.106 154.561 134.495 155.522 132.285 157.537L131.425 161.972C137.23 164.881 140.343 161.685 140.343 161.685H145.727L143.826 157.469C143.497 156.706 142.966 156.044 142.286 155.551C141.607 155.059 140.805 154.755 139.965 154.67Z" fill="#B55B52"/>
<path d="M67.9316 209.339H123.04C124.252 209.339 125.233 208.377 125.233 207.189V203.715C125.233 202.528 124.252 201.566 123.04 201.566H67.9316C66.7204 201.566 65.7386 202.528 65.7386 203.715V207.189C65.7386 208.377 66.7204 209.339 67.9316 209.339Z" fill="#407BFF"/>
<path d="M68.1807 295.887H65.7383L68.5505 209.331H71.9303L68.1807 295.887Z" fill="#407BFF"/>
<path opacity="0.4" d="M68.1807 295.887H65.7383L68.5505 209.331H71.9303L68.1807 295.887Z" fill="white"/>
<path d="M90.6433 295.887H93.0857L90.2821 209.331H86.9023L90.6433 295.887Z" fill="#407BFF"/>
<path opacity="0.4" d="M90.6433 295.887H93.0857L90.2821 209.331H86.9023L90.6433 295.887Z" fill="white"/>
<path d="M100.327 295.887H97.8848L100.697 209.331H104.077L100.327 295.887Z" fill="#407BFF"/>
<path opacity="0.4" d="M100.327 295.887H97.8848L100.697 209.331H104.077L100.327 295.887Z" fill="white"/>
<path d="M122.791 295.887H125.233L122.43 209.331H119.05L122.791 295.887Z" fill="#407BFF"/>
<path opacity="0.4" d="M122.791 295.887H125.233L122.43 209.331H119.05L122.791 295.887Z" fill="white"/>
<g opacity="0.3">
<path opacity="0.3" d="M68.5501 209.331H71.9299L71.7665 213.007H68.4297L68.5501 209.331Z" fill="#407BFF"/>
<path opacity="0.3" d="M90.3939 213.007H87.0571L86.9023 209.331H90.2735L90.3939 213.007Z" fill="#407BFF"/>
<path opacity="0.3" d="M104.068 209.331L103.913 213.007H100.576L100.697 209.331H104.068Z" fill="#407BFF"/>
<path opacity="0.3" d="M122.549 213.007H119.204L119.049 209.331H122.429L122.549 213.007Z" fill="#407BFF"/>
</g>
<path d="M286.284 103.534H148.538C147.468 103.545 146.407 103.338 145.422 102.926C144.438 102.515 143.551 101.908 142.818 101.143C142.085 100.378 141.522 99.473 141.164 98.4841C140.806 97.4952 140.661 96.4442 140.738 95.3976L145.993 9.92879C146.158 7.739 147.154 5.68927 148.784 4.18334C150.413 2.67741 152.56 1.82447 154.799 1.79252H292.511C293.581 1.78162 294.642 1.98846 295.627 2.39998C296.611 2.81151 297.498 3.41877 298.231 4.1834C298.964 4.94802 299.527 5.85339 299.885 6.84231C300.243 7.83123 300.388 8.88219 300.311 9.92879L295.048 95.4314C294.877 97.6087 293.884 99.6454 292.264 101.144C290.643 102.642 288.512 103.494 286.284 103.534Z" fill="#407BFF"/>
<path d="M166.969 85.4655L179.671 128.069L217.356 85.4655H166.969Z" fill="#407BFF"/>
<path opacity="0.1" d="M279.568 69.1423H202.375C201.775 69.1485 201.18 69.0326 200.627 68.802C200.075 68.5713 199.578 68.231 199.166 67.8024C198.755 67.3737 198.439 66.8662 198.238 66.3117C198.036 65.7573 197.955 65.168 197.997 64.581L200.947 16.6739C201.04 15.4463 201.598 14.297 202.511 13.4527C203.425 12.6084 204.628 12.1303 205.884 12.1125H283.077C283.679 12.0999 284.277 12.2114 284.833 12.4398C285.388 12.6683 285.888 13.0085 286.301 13.4385C286.714 13.8685 287.03 14.3787 287.228 14.9361C287.427 15.4934 287.504 16.0855 287.455 16.6739L284.505 64.581C284.412 65.8086 283.854 66.9578 282.941 67.8021C282.027 68.6464 280.824 69.1246 279.568 69.1423Z" fill="white"/>
<path opacity="0.1" d="M238.271 89.8077H161.068C160.469 89.8127 159.875 89.6959 159.324 89.4647C158.772 89.2336 158.276 88.8931 157.865 88.4646C157.455 88.0361 157.14 87.5289 156.939 86.9751C156.738 86.4212 156.657 85.8326 156.7 85.2463L159.649 37.3392C159.742 36.113 160.298 34.965 161.21 34.1209C162.122 33.2768 163.323 32.7977 164.577 32.7779H241.779C242.381 32.7664 242.978 32.8788 243.532 33.1078C244.086 33.3367 244.586 33.6771 244.997 34.107C245.409 34.5369 245.724 35.0467 245.922 35.6034C246.121 36.1602 246.198 36.7515 246.148 37.3392L243.198 85.2463C243.106 86.4725 242.549 87.6206 241.637 88.4647C240.726 89.3088 239.525 89.7878 238.271 89.8077Z" fill="white"/>
<g opacity="0.5">
<path opacity="0.5" d="M160.046 9.22906C160.03 9.87647 159.768 10.4948 159.312 10.9627C158.855 11.4307 158.237 11.7145 157.578 11.7585C157.264 11.7433 156.958 11.6636 156.678 11.5247C156.398 11.3858 156.151 11.1907 155.953 10.9522C155.756 10.7137 155.611 10.437 155.529 10.1401C155.448 9.84322 155.431 9.53282 155.479 9.22906C155.499 8.58283 155.762 7.9666 156.218 7.49944C156.673 7.03228 157.29 6.74733 157.947 6.69965C158.261 6.71485 158.567 6.79449 158.847 6.93339C159.127 7.0723 159.374 7.26736 159.572 7.50591C159.769 7.74446 159.914 8.02115 159.996 8.31802C160.077 8.61488 160.094 8.92529 160.046 9.22906Z" fill="white"/>
<path opacity="0.5" d="M168.465 9.22906C168.448 9.87588 168.185 10.4931 167.729 10.9607C167.273 11.4282 166.656 11.7126 165.997 11.7585C165.683 11.7444 165.376 11.6656 165.095 11.5272C164.814 11.3888 164.566 11.1939 164.367 10.9552C164.169 10.7165 164.023 10.4394 163.941 10.142C163.859 9.84458 163.842 9.53349 163.89 9.22906C163.91 8.58283 164.173 7.9666 164.629 7.49944C165.085 7.03228 165.701 6.74733 166.358 6.69965C166.672 6.715 166.979 6.79466 167.259 6.93347C167.539 7.07229 167.786 7.26717 167.985 7.50554C168.184 7.74391 168.329 8.02047 168.412 8.31734C168.494 8.61421 168.513 8.92481 168.465 9.22906Z" fill="white"/>
<path opacity="0.5" d="M176.945 9.22906C176.93 9.87647 176.668 10.4948 176.211 10.9627C175.755 11.4307 175.136 11.7145 174.477 11.7585C174.164 11.7433 173.857 11.6636 173.577 11.5247C173.298 11.3858 173.051 11.1907 172.853 10.9522C172.655 10.7137 172.51 10.437 172.429 10.1401C172.347 9.84322 172.33 9.53282 172.379 9.22906C172.398 8.58283 172.661 7.9666 173.117 7.49944C173.573 7.03228 174.189 6.74733 174.847 6.69965C175.16 6.71485 175.467 6.79449 175.746 6.93339C176.026 7.0723 176.273 7.26736 176.471 7.50591C176.669 7.74446 176.813 8.02115 176.895 8.31802C176.977 8.61488 176.994 8.92529 176.945 9.22906Z" fill="white"/>
</g>
<path opacity="0.3" d="M285.218 102.741H147.507C146.407 102.75 145.318 102.535 144.307 102.111C143.297 101.687 142.386 101.063 141.634 100.277C140.881 99.492 140.302 98.5624 139.933 97.547C139.565 96.5317 139.414 95.4526 139.491 94.3775L144.755 8.90863C144.92 6.66514 145.938 4.56404 147.606 3.02023C149.275 1.47642 151.473 0.602127 153.767 0.570004H291.445C292.544 0.561536 293.633 0.776052 294.644 1.20007C295.654 1.6241 296.565 2.24846 297.318 3.03393C298.07 3.81941 298.649 4.74902 299.018 5.76436C299.387 6.7797 299.537 7.85883 299.46 8.93393L294.205 94.4027C294.038 96.6413 293.024 98.7377 291.361 100.281C289.698 101.823 287.507 102.701 285.218 102.741ZM153.767 1.00001C151.579 1.02617 149.481 1.85701 147.888 3.32795C146.296 4.7989 145.325 6.80267 145.167 8.94236L139.904 94.4112C139.828 95.4294 139.968 96.452 140.316 97.4144C140.663 98.3768 141.211 99.2579 141.924 100.002C142.637 100.746 143.5 101.337 144.458 101.738C145.416 102.138 146.448 102.339 147.489 102.328H285.218C287.406 102.3 289.503 101.469 291.095 99.9981C292.687 98.5275 293.659 96.5249 293.818 94.3859L299.073 8.91706C299.147 7.89583 299.004 6.87068 298.652 5.90652C298.301 4.94237 297.75 4.06024 297.032 3.31599C296.315 2.57174 295.448 1.98159 294.487 1.58292C293.525 1.18426 292.489 0.985764 291.445 1.00001H153.767Z" fill="#263238"/>
<path d="M210.648 52.7771C210.063 53.9912 209.53 55.0282 208.928 56.1496C208.326 57.271 207.724 58.2827 207.105 59.3367C205.841 61.4361 204.525 63.5523 203.115 65.5253C202.404 66.5371 201.675 67.5404 200.93 68.5353C200.148 69.5133 199.408 70.5082 198.574 71.461C196.946 73.4356 195.191 75.3056 193.319 77.0594C192.846 77.5147 192.33 77.9025 191.831 78.3831C191.336 78.8383 190.814 79.2634 190.266 79.6563L188.615 80.8788L188.108 81.2245C187.883 81.3641 187.65 81.4908 187.411 81.6039C186.939 81.8261 186.443 81.9958 185.932 82.1098C184.922 82.341 183.873 82.349 182.86 82.1332C181.847 81.9173 180.896 81.4831 180.075 80.862C179.668 80.5472 179.296 80.1911 178.966 79.7996L178.734 79.4961L178.622 79.3443L178.579 79.2769L178.424 79.0071L177.805 77.911C177.616 77.5569 177.487 77.2196 177.332 76.8739C176.79 75.6017 176.347 74.2911 176.007 72.9533C175.409 70.5155 174.989 68.0388 174.752 65.5422C174.5 63.1108 174.391 60.6673 174.425 58.2237C174.443 57.5304 174.713 56.8663 175.187 56.3512C175.661 55.836 176.306 55.5037 177.008 55.4142C177.709 55.3247 178.42 55.4838 179.013 55.8629C179.605 56.242 180.04 56.8162 180.239 57.4818V57.5829C181.378 61.8801 182.788 66.1039 184.461 70.23C184.844 71.103 185.289 71.9482 185.794 72.7594C185.906 72.928 186.018 73.1304 186.13 73.2737L186.456 73.6616L186.534 73.7627L186.491 73.6953L186.396 73.5688C186.261 73.396 186.105 73.2403 185.932 73.1051C185.589 72.8336 185.19 72.6381 184.762 72.5318C184.334 72.443 183.892 72.443 183.464 72.5318C183.241 72.5778 183.025 72.6485 182.819 72.7425C182.707 72.7425 182.612 72.8522 182.509 72.9027C182.406 72.9533 182.251 73.0798 182.363 72.9871L183.438 71.9584C183.799 71.638 184.152 71.2502 184.504 70.8792C184.857 70.5082 185.218 70.1457 185.562 69.7494C188.397 66.4156 190.978 62.8817 193.285 59.1765C194.463 57.2963 195.624 55.3823 196.725 53.4431L198.385 50.5259L199.958 47.6761L200.044 47.5243C200.791 46.2145 202.024 45.238 203.488 44.7988C204.951 44.3596 206.531 44.4917 207.897 45.1675C209.264 45.8433 210.311 47.0105 210.82 48.4253C211.33 49.8402 211.262 51.3933 210.631 52.7602L210.648 52.7771Z" fill="#FF358A"/>
<path d="M175.233 57.8527L171.045 55.5004L175.551 50.9896C176.872 51.9491 178.096 53.0304 179.206 54.2188C179.468 54.4908 179.661 54.819 179.77 55.1771C179.879 55.5352 179.9 55.9134 179.834 56.2813C179.767 56.6493 179.613 56.9968 179.385 57.296C179.156 57.5952 178.859 57.8378 178.518 58.0045C177.999 58.2407 177.429 58.3503 176.857 58.3239C176.285 58.2975 175.728 58.1358 175.233 57.8527Z" fill="#FFC3BD"/>
<path d="M170.09 50.6692L172.369 49.0757C172.665 48.8645 173.035 48.7762 173.397 48.8299C173.759 48.8835 174.085 49.0748 174.304 49.3624L175.551 50.9896L171.045 55.5004L169.626 52.3302C169.497 52.0432 169.473 51.7214 169.557 51.4189C169.642 51.1165 169.83 50.8517 170.09 50.6692Z" fill="#FFC3BD"/>
<path d="M201.626 48.9998C201.968 47.8981 202.613 46.9099 203.49 46.1439C204.366 45.3779 205.442 44.8636 206.597 44.6577C208.267 44.296 209.959 44.0425 211.663 43.8988C216.792 43.7026 221.929 43.7927 227.048 44.1686C229.731 44.3457 232.475 44.7167 234.659 45.0708H234.737C235.893 45.2589 236.927 45.8891 237.61 46.8233C238.294 47.7574 238.572 48.9191 238.383 50.0537C237.308 56.1412 234.152 66.731 233.808 76.7222C233.352 89.8414 233.558 97.3959 233.326 100.558L198.883 99.9084C196.484 67.8439 199.468 56.2592 201.626 48.9998Z" fill="white"/>
<path d="M235.657 44.5733H235.545C233.24 44.2024 230.385 43.8061 227.521 43.6206L225.99 43.5363C224.485 49.6406 215.516 59.91 212.798 75.4743C211.749 62.4647 210.94 48.8649 212.48 43.5616C210.045 43.6341 207.617 43.8339 205.204 44.1602C203.928 44.4432 202.751 45.0526 201.794 45.9264C200.836 46.8002 200.131 47.9072 199.752 49.1347C197.636 55.239 193.594 68.9147 196.08 102.539H234.358C234.608 99.1665 233.713 92.0841 235.098 81.1824C236.431 70.6263 238.349 56.2592 239.475 49.843C239.677 48.6483 239.389 47.4238 238.674 46.4366C237.958 45.4495 236.874 44.7796 235.657 44.5733Z" fill="#FF358A"/>
<path opacity="0.2" d="M211.98 100.785C211.923 100.788 211.866 100.768 211.823 100.73C211.779 100.692 211.753 100.64 211.748 100.583C210.94 91.0977 212.453 77.481 212.471 77.3377C212.474 77.3088 212.483 77.2808 212.497 77.2554C212.511 77.23 212.531 77.2076 212.554 77.1896C212.577 77.1715 212.604 77.1582 212.632 77.1503C212.661 77.1425 212.691 77.1402 212.72 77.1437C212.78 77.1501 212.835 77.1793 212.874 77.2249C212.912 77.2706 212.931 77.3292 212.926 77.3883C212.926 77.5232 211.396 91.1061 212.204 100.541C212.208 100.57 212.205 100.6 212.196 100.629C212.188 100.657 212.174 100.684 212.154 100.706C212.135 100.729 212.111 100.748 212.084 100.762C212.057 100.775 212.028 100.783 211.998 100.785H211.98Z" fill="white"/>
<path opacity="0.3" d="M234.307 57.9202C232.888 64.2269 233.644 72.9618 235.167 80.9294C236.293 71.9838 237.833 60.3738 238.959 53.1902C237.385 52.1616 235.433 52.8867 234.307 57.9202Z" fill="black"/>
<path d="M212.394 43.8567C216.857 42.8955 217.631 40.1975 217.313 37.2128C217.235 36.4671 217.111 35.7266 216.943 34.9953L222.516 30.5267L226.618 27.2553C225.5 32.0949 224.27 40.9226 227.642 44.2192C227.642 44.2192 224.89 48.6457 217.236 48.1061C210.768 47.6508 212.394 43.8567 212.394 43.8567Z" fill="#FFC3BD"/>
<path d="M219.179 46.9932L217.94 48.1398L221.896 49.5984L221.38 48.123L219.179 46.9932Z" fill="#E0E0E0"/>
<path d="M222.206 51.6557C222.206 51.6557 220.649 47.8025 219.179 46.9847C222.071 46.3085 224.72 44.8713 226.841 42.828L229.189 43.7471C229.189 43.7471 229.929 48.2157 222.206 51.6557Z" fill="#F5F5F5"/>
<path d="M217.012 46.6896L217.941 48.1398L213.778 48.4939L214.613 47.2039L217.012 46.6896Z" fill="#E0E0E0"/>
<path d="M211.688 50.5681C213.213 48.9752 215.016 47.6618 217.012 46.6896C214.75 46.032 214.612 42.9798 214.612 42.9798L212.419 43.393C212.419 43.393 208.395 47.2292 211.688 50.5681Z" fill="#F5F5F5"/>
<path opacity="0.2" d="M216.943 34.9869C217.111 35.7212 217.234 36.4644 217.313 37.2128C219.394 36.8418 222.181 34.6833 222.473 32.6177C222.572 31.925 222.592 31.2237 222.533 30.5267L216.943 34.9869Z" fill="black"/>
<path d="M210.174 12.922C208.179 15.3249 208.368 24.0176 212.591 24.1188C216.813 24.22 213.803 8.53765 210.174 12.922Z" fill="#263238"/>
<path d="M228.364 19.2455C227.943 25.8304 228.029 29.7004 224.64 33.1066C219.549 38.2245 211.293 35.2819 209.702 28.7308C208.283 22.8288 209.212 13.0568 215.774 10.3841C217.206 9.78294 218.773 9.55454 220.323 9.72098C221.872 9.88743 223.351 10.4431 224.617 11.3342C225.884 12.2253 226.894 13.4217 227.55 14.8077C228.206 16.1936 228.487 17.7222 228.364 19.2455Z" fill="#FFC3BD"/>
<path d="M225.061 13.7651C220.838 17.8712 226.325 20.8812 224.201 23.0902C228.183 25.1306 226.721 26.6314 226.721 26.6314C226.308 27.754 226.308 28.9825 226.721 30.1051C231.21 28.9753 239.543 14.3553 230.444 12.1125C225.001 14.4902 225.061 13.7651 225.061 13.7651Z" fill="#263238"/>
<path d="M226.789 16.7161C222.79 17.3231 217.76 15.4514 214.638 13.8663C211.516 12.2812 211.06 15.2743 212.213 16.1849C210.209 16.2523 207.672 14.701 208.3 11.2357C208.876 8.07391 213.098 5.08077 219.11 7.75352C223.367 9.64214 228.613 7.15489 230.659 9.33861C232.706 11.5223 229.455 16.3029 226.789 16.7161Z" fill="#263238"/>
<path d="M229.524 12.4245C232.208 12.0788 232.319 10.4179 231.571 7.50903C234.469 11.5477 233.291 12.7871 231.571 13.7651C229.653 13.1328 229.524 12.4245 229.524 12.4245Z" fill="#263238"/>
<path d="M230.169 24.2959C229.575 25.5839 228.536 26.6256 227.237 27.2384C225.577 27.972 224.734 26.4712 225.181 24.709C225.586 23.1155 226.901 20.8222 228.621 20.839C230.341 20.8559 230.918 22.6686 230.169 24.2959Z" fill="#FFC3BD"/>
<path d="M217.881 21.2353C217.881 21.7665 217.588 22.2049 217.236 22.2133C216.883 22.2218 216.625 21.7833 216.625 21.2353C216.625 20.6873 216.917 20.2657 217.27 20.2657C217.623 20.2657 217.881 20.6957 217.881 21.2353Z" fill="#263238"/>
<path d="M211.723 21.2859C211.723 21.8255 211.43 22.2555 211.069 22.2639C210.708 22.2724 210.424 21.8339 210.433 21.2943C210.441 20.7547 210.717 20.3247 211.078 20.3247C211.439 20.3247 211.723 20.7547 211.723 21.2859Z" fill="#263238"/>
<path d="M214.045 21.4714C213.402 23.1135 212.534 24.6622 211.465 26.0749C211.835 26.33 212.258 26.5036 212.703 26.5836C213.148 26.6637 213.606 26.6483 214.045 26.5386V21.4714Z" fill="#ED847E"/>
<path d="M216.212 27.9804C216.837 27.9118 217.44 27.7168 217.983 27.4076C218.526 27.0985 218.998 26.682 219.369 26.1845C219.391 26.1499 219.399 26.1077 219.39 26.0674C219.381 26.0271 219.357 25.9919 219.321 25.9695C219.286 25.9471 219.243 25.9395 219.202 25.9482C219.161 25.9569 219.125 25.9812 219.102 26.0159C218.688 26.546 218.154 26.9744 217.542 27.2671C216.93 27.5598 216.257 27.7087 215.576 27.7022C215.555 27.7021 215.534 27.7063 215.515 27.7145C215.495 27.7226 215.478 27.7345 215.463 27.7495C215.449 27.7645 215.438 27.7823 215.43 27.8017C215.423 27.8211 215.42 27.8417 215.421 27.8624C215.421 27.883 215.425 27.9035 215.434 27.9224C215.442 27.9414 215.454 27.9586 215.469 27.9728C215.485 27.987 215.503 27.998 215.523 28.0051C215.542 28.0122 215.563 28.0153 215.585 28.0141C215.808 27.9804 216.015 27.9804 216.212 27.9804Z" fill="#263238"/>
<path d="M220.865 19.1022C220.919 19.0992 220.97 19.0784 221.011 19.0431C221.045 19.019 221.074 18.9883 221.096 18.9528C221.118 18.9173 221.132 18.8778 221.138 18.8367C221.143 18.7956 221.14 18.7538 221.129 18.7139C221.117 18.674 221.098 18.6369 221.071 18.6047C220.776 18.2055 220.388 17.8809 219.939 17.6581C219.49 17.4352 218.994 17.3204 218.491 17.3231C218.449 17.3263 218.409 17.3376 218.372 17.3564C218.335 17.3752 218.302 17.4011 218.276 17.4326C218.249 17.4641 218.23 17.5005 218.218 17.5396C218.206 17.5788 218.202 17.6198 218.207 17.6604C218.216 17.7446 218.257 17.8223 218.323 17.8773C218.389 17.9323 218.473 17.9603 218.56 17.9555C218.959 17.9518 219.353 18.0436 219.709 18.2228C220.064 18.402 220.369 18.6633 220.598 18.9841C220.629 19.0233 220.67 19.0544 220.717 19.075C220.763 19.0955 220.814 19.1048 220.865 19.1022Z" fill="#263238"/>
<path d="M209.229 19.3635C209.28 19.3567 209.328 19.3377 209.37 19.3083C209.412 19.279 209.446 19.24 209.47 19.1949C209.634 18.83 209.884 18.5084 210.199 18.2564C210.515 18.0044 210.886 17.829 211.284 17.7447C211.326 17.7408 211.367 17.7283 211.404 17.7078C211.441 17.6874 211.473 17.6596 211.498 17.6261C211.523 17.5927 211.541 17.5545 211.55 17.5139C211.559 17.4733 211.559 17.4313 211.551 17.3906C211.536 17.3094 211.491 17.2366 211.424 17.1866C211.357 17.1367 211.273 17.1132 211.19 17.1208C210.688 17.2178 210.218 17.4305 209.817 17.7414C209.416 18.0522 209.096 18.4522 208.885 18.9082C208.849 18.9834 208.844 19.0694 208.871 19.148C208.898 19.2267 208.956 19.2918 209.031 19.3298C209.093 19.3579 209.161 19.3696 209.229 19.3635Z" fill="#263238"/>
<path d="M240.499 48.3843C241.548 50.5512 242.425 52.6 243.285 54.7079C244.145 56.8157 244.91 58.9657 245.676 61.1157C247.178 65.4977 248.39 69.9699 249.305 74.5047C249.503 75.6767 249.726 76.8233 249.873 78.029L249.984 78.9228L250.045 79.3696V79.5973V79.9092C250.13 80.7813 250.13 81.6594 250.045 82.5314C249.846 84.4395 249.176 86.2713 248.092 87.8684C247.077 89.3312 245.744 90.5551 244.188 91.4518C242.892 92.1981 241.497 92.7655 240.043 93.1381C238.748 93.4856 237.424 93.717 236.087 93.8294C233.565 94.0633 231.022 93.964 228.527 93.5343C227.851 93.423 227.235 93.0845 226.784 92.5768C226.334 92.0691 226.078 91.4237 226.06 90.7512C226.041 90.0787 226.262 89.4209 226.684 88.8904C227.106 88.3599 227.703 87.9897 228.373 87.8431L228.682 87.7757C229.542 87.5818 230.669 87.3457 231.632 87.0928C232.595 86.8398 233.576 86.5447 234.487 86.2496C236.079 85.7499 237.555 84.9477 238.83 83.8888C239.167 83.5823 239.424 83.2005 239.578 82.7759C239.639 82.4781 239.639 82.1715 239.578 81.8737C239.549 81.6466 239.506 81.4213 239.449 81.1992L239.14 79.8249C238.942 78.8637 238.658 77.8688 238.4 76.8908C237.867 74.9094 237.265 72.928 236.577 70.9382C235.889 68.9484 235.184 66.9671 234.436 64.9857C233.687 63.0043 232.896 61.023 232.096 59.0837C231.297 57.1445 230.454 55.1041 229.654 53.2577V53.1733C229.011 51.7668 228.964 50.1674 229.524 48.7269C230.083 47.2865 231.204 46.123 232.638 45.4924C234.073 44.8618 235.704 44.8158 237.174 45.3644C238.643 45.9131 239.83 47.0115 240.473 48.4181L240.499 48.3843Z" fill="#FF358A"/>
<path d="M225.809 90.2714L222.017 92.0588L228.57 94.3437C228.57 94.3437 232.939 92.9778 230.823 90.6002L229.645 90.2377C227.753 89.6306 226.824 89.6981 225.809 90.2714Z" fill="#FFC3BD"/>
<path d="M222.524 96.5949L225.405 97.1346C225.817 97.2087 226.242 97.1552 226.621 96.9814C227 96.8076 227.315 96.5222 227.521 96.1649L228.57 94.3185L222.017 92.0588L221.157 93.821C221.023 94.0875 220.953 94.3803 220.952 94.6771C220.951 94.974 221.019 95.2672 221.151 95.5346C221.283 95.8019 221.475 96.0363 221.713 96.22C221.951 96.4037 222.228 96.5319 222.524 96.5949Z" fill="#FFC3BD"/>
</svg>
