<svg width="25" height="24" viewBox="0 0 25 24" fill="none" xmlns="http://www.w3.org/2000/svg">
<g clip-path="url(#clip0)">
<path d="M9.97528 14.4841C9.97528 14.1536 9.77221 13.8705 9.48421 13.7524H0.572126C0.284126 13.8706 0.0810547 14.1536 0.0810547 14.4841C0.0810547 17.2155 2.30029 19.4377 5.02821 19.4377C7.75605 19.4377 9.97528 17.2155 9.97528 14.4841Z" fill="#D3D3FF"/>
<path d="M23.5906 13.7524H14.6786C14.3906 13.8705 14.1875 14.1536 14.1875 14.4841C14.1875 17.2155 16.4068 19.4377 19.1346 19.4377C21.8626 19.4377 24.0818 17.2155 24.0818 14.4841C24.0817 14.1536 23.8786 13.8706 23.5906 13.7524Z" fill="#D3D3FF"/>
<path d="M15.9944 21.6451H12.8715V6.26839H17.9349L15.2357 12.5667H16.9559L19.1338 7.48472L21.3118 12.5667H23.032L20.2058 5.97239C20.8179 5.60633 21.2288 4.937 21.2288 4.17336C21.2288 3.01813 20.289 2.07833 19.1338 2.07833C18.6972 2.07833 18.3432 2.43235 18.3432 2.86888C18.3432 3.3054 18.6972 3.65942 19.1338 3.65942C19.4172 3.65942 19.6476 3.89005 19.6476 4.17328C19.6476 4.45659 19.4171 4.68714 19.1338 4.68714H12.8715V1.56447C12.8715 1.12795 12.5175 0.773926 12.0809 0.773926C11.6443 0.773926 11.2904 1.12795 11.2904 1.56447V4.6873H5.02815C4.74475 4.6873 4.51429 4.45668 4.51429 4.17344C4.51429 3.89013 4.74483 3.65958 5.02815 3.65958C5.46467 3.65958 5.81869 3.30556 5.81869 2.86904C5.81869 2.43251 5.46467 2.07849 5.02815 2.07849C3.87291 2.07849 2.93312 3.01829 2.93312 4.17352C2.93312 4.93716 3.34402 5.60641 3.95606 5.97255L1.12988 12.5668H2.85013L5.02806 7.48488L7.206 12.5668H8.92625L6.22709 6.26839H11.2904V21.6451H8.1677C7.7311 21.6451 7.37716 21.9991 7.37716 22.4357C7.37716 22.8722 7.7311 23.2262 8.1677 23.2262H15.9944C16.431 23.2262 16.7849 22.8722 16.7849 22.4357C16.7849 21.9991 16.431 21.6451 15.9944 21.6451Z" fill="#D3D3FF"/>
</g>
<defs>
<clipPath id="clip0">
<rect width="24" height="24" fill="white" transform="translate(0.0810547)"/>
</clipPath>
</defs>
</svg>
