<svg width="191" height="36" viewBox="0 0 191 36" fill="none" xmlns="http://www.w3.org/2000/svg">
<path d="M35.1562 8.72266L23.5234 14.2148L23.4727 14.2422H23.4688L17.5781 17.0234L0 8.72266L5.89453 5.9375L11.9492 3.07812L17.5781 0.421875L35.1562 8.72266Z" fill="#FFB800"/>
<path d="M29.2621 11.5067L23.4727 14.2422H23.4688L5.89453 5.93756L11.9492 3.07819L29.2621 11.5067Z" fill="#FF358A"/>
<path d="M35.1562 8.72302V27.2769L17.5781 35.5781V17.0242L35.1562 8.72302Z" fill="#0167FF"/>
<path d="M0 8.72302V27.2769L17.5781 35.5781V17.0242L0 8.72302Z" fill="#9C71EB"/>
<path d="M23.4722 14.2405V20.6565L26.7577 17.7268L29.262 17.9222V11.5065L23.4722 14.2405Z" fill="#FF358A"/>
<path d="M13.8819 28.8594L7.78502 25.9812C7.62091 25.9038 7.43277 25.8947 7.26197 25.956C7.09117 26.0172 6.95172 26.1439 6.87427 26.308C6.79683 26.4721 6.78775 26.6602 6.84903 26.831C6.91031 27.0018 7.03693 27.1413 7.20103 27.2187L13.2983 30.0976C13.4625 30.175 13.6507 30.184 13.8216 30.1226C13.9924 30.0612 14.1318 29.9345 14.2092 29.7703C14.2866 29.6061 14.2956 29.4179 14.2342 29.247C14.1728 29.0762 14.0461 28.9367 13.8819 28.8594Z" fill="#B6EFF7"/>
<path d="M7.20075 23.7988L13.298 26.6781C13.4617 26.7539 13.6487 26.7618 13.8183 26.7003C13.9878 26.6387 14.1262 26.5126 14.2032 26.3495C14.2802 26.1864 14.2896 25.9994 14.2294 25.8294C14.1691 25.6594 14.0441 25.5201 13.8816 25.4418L7.78473 22.5625C7.62078 22.4851 7.43279 22.4759 7.2621 22.5371C7.09141 22.5983 6.95202 22.7247 6.87457 22.8887C6.79713 23.0526 6.78799 23.2406 6.84916 23.4113C6.91033 23.582 7.0368 23.7214 7.20075 23.7988Z" fill="#B6EFF7"/>
<path d="M56.8883 26.892C60.4443 26.892 63.3283 25.576 65.4003 23.868V15.048H56.3843V19.024H60.2483V21.404C59.4363 21.936 58.4283 22.216 57.1123 22.216C54.0043 22.216 51.7923 19.948 51.7923 16.784C51.7923 13.732 53.9763 11.352 56.8043 11.352C58.7363 11.352 60.1363 12.024 61.5363 13.2L64.7283 9.364C62.6562 7.572 60.2203 6.508 56.7763 6.508C50.7003 6.508 46.2203 10.988 46.2203 16.7C46.2203 22.692 50.7843 26.892 56.8883 26.892ZM68.1038 26.5H73.4238V21.796C73.4238 18.296 74.9918 16.7 77.7638 16.7H78.2118V11.1C75.6918 10.988 74.2918 12.332 73.4238 14.404V11.352H68.1038V26.5ZM87.3109 26.864C90.3349 26.864 92.4349 25.632 93.8909 23.784L90.9509 21.348C89.8589 22.412 88.8509 22.888 87.5909 22.888C85.9389 22.888 84.7349 22.048 84.3149 20.396H94.4509C94.4789 20.032 94.4789 19.64 94.4789 19.304C94.4789 14.852 92.0709 11.016 86.8349 11.016C82.3549 11.016 79.1909 14.516 79.1909 18.94C79.1909 23.7 82.5509 26.864 87.3109 26.864ZM84.2309 17.68C84.5109 16.028 85.4629 14.936 86.8629 14.936C88.3189 14.936 89.2989 16 89.4949 17.68H84.2309ZM104.264 26.864C107.288 26.864 109.388 25.632 110.844 23.784L107.904 21.348C106.812 22.412 105.804 22.888 104.544 22.888C102.892 22.888 101.688 22.048 101.268 20.396H111.404C111.432 20.032 111.432 19.64 111.432 19.304C111.432 14.852 109.024 11.016 103.788 11.016C99.308 11.016 96.144 14.516 96.144 18.94C96.144 23.7 99.504 26.864 104.264 26.864ZM101.184 17.68C101.464 16.028 102.416 14.936 103.816 14.936C105.272 14.936 106.252 16 106.448 17.68H101.184ZM119.845 26.836C122.113 26.836 123.429 25.744 124.465 24.484V26.5H129.785V6.06H124.465V13.2C123.457 12.052 122.113 11.016 119.817 11.016C116.233 11.016 113.153 14.012 113.153 18.94C113.153 23.84 116.261 26.836 119.845 26.836ZM121.469 22.384C119.761 22.384 118.361 20.956 118.361 18.94C118.361 16.868 119.761 15.468 121.469 15.468C123.177 15.468 124.549 16.896 124.549 18.884C124.549 20.956 123.177 22.384 121.469 22.384Z" fill="black"/>
<path d="M132.943 26.5H138.375V21.432L140.363 19.22L145.291 26.5H151.815L144.143 15.328L151.563 6.9H145.123L138.375 14.852V6.9H132.943V26.5Z" fill="#9C71EB"/>
<path d="M160.816 26.864C165.688 26.864 169.216 23.252 169.216 18.94C169.216 14.572 165.716 11.016 160.872 11.016C156 11.016 152.472 14.628 152.472 18.94C152.472 23.308 155.972 26.864 160.816 26.864ZM160.872 22.356C158.996 22.356 157.652 20.788 157.652 18.94C157.652 17.064 158.884 15.524 160.816 15.524C162.692 15.524 164.036 17.092 164.036 18.94C164.036 20.816 162.804 22.356 160.872 22.356Z" fill="#FF358A"/>
<path d="M177.595 26.836C179.863 26.836 181.179 25.744 182.215 24.484V26.5H187.535V6.06H182.215V13.2C181.207 12.052 179.863 11.016 177.567 11.016C173.983 11.016 170.903 14.012 170.903 18.94C170.903 23.84 174.011 26.836 177.595 26.836ZM179.219 22.384C177.511 22.384 176.111 20.956 176.111 18.94C176.111 16.868 177.511 15.468 179.219 15.468C180.927 15.468 182.299 16.896 182.299 18.884C182.299 20.956 180.927 22.384 179.219 22.384Z" fill="#0167FF"/>
</svg>
