<svg width="205" height="50" viewBox="0 0 205 50" fill="none" xmlns="http://www.w3.org/2000/svg">
<path d="M42.5781 15.7227L30.9453 21.2148L30.8945 21.2422H30.8906L25 24.0234L7.42188 15.7227L13.3164 12.9375L19.3711 10.0781L25 7.42188L42.5781 15.7227Z" fill="#FFB800"/>
<path d="M36.684 18.5066L30.8945 21.2422H30.8906L13.3164 12.9375L19.3711 10.0781L36.684 18.5066Z" fill="#FF358A"/>
<path d="M42.5781 15.7231V34.2771L25 42.5782V24.0243L42.5781 15.7231Z" fill="#0167FF"/>
<path d="M7.42188 15.7231V34.2771L25 42.5782V24.0243L7.42188 15.7231Z" fill="#9C71EB"/>
<path d="M30.8943 21.2403V27.6563L34.1798 24.7267L36.6841 24.922V18.5063L30.8943 21.2403Z" fill="#FF358A"/>
<path d="M21.3038 35.8596L15.2069 32.9815C15.0428 32.904 14.8546 32.8949 14.6838 32.9562C14.513 33.0175 14.3736 33.1441 14.2961 33.3082C14.2187 33.4723 14.2096 33.6605 14.2709 33.8313C14.3322 34.0021 14.4588 34.1415 14.6229 34.219L20.7202 37.0979C20.8844 37.1753 21.0726 37.1843 21.2434 37.1229C21.4143 37.0615 21.5537 36.9347 21.6311 36.7705C21.7085 36.6063 21.7175 36.4181 21.6561 36.2473C21.5947 36.0764 21.468 35.937 21.3038 35.8596Z" fill="#B6EFF7"/>
<path d="M14.6226 30.7989L20.7199 33.6782C20.8836 33.7539 21.0706 33.7619 21.2402 33.7003C21.4097 33.6388 21.5481 33.5127 21.6251 33.3496C21.7021 33.1865 21.7115 32.9995 21.6512 32.8295C21.591 32.6595 21.466 32.5201 21.3035 32.4419L15.2066 29.5626C15.0427 29.4851 14.8547 29.476 14.684 29.5372C14.5133 29.5983 14.3739 29.7248 14.2964 29.8887C14.219 30.0527 14.2099 30.2407 14.271 30.4114C14.3322 30.5821 14.4587 30.7215 14.6226 30.7989Z" fill="#B6EFF7"/>
<path d="M71.732 33.892C75.288 33.892 78.172 32.576 80.244 30.868V22.048H71.228V26.024H75.092V28.404C74.28 28.936 73.272 29.216 71.956 29.216C68.848 29.216 66.636 26.948 66.636 23.784C66.636 20.732 68.82 18.352 71.648 18.352C73.58 18.352 74.98 19.024 76.38 20.2L79.572 16.364C77.5 14.572 75.064 13.508 71.62 13.508C65.544 13.508 61.064 17.988 61.064 23.7C61.064 29.692 65.628 33.892 71.732 33.892ZM82.9475 33.5H88.2675V28.796C88.2675 25.296 89.8355 23.7 92.6075 23.7H93.0555V18.1C90.5355 17.988 89.1355 19.332 88.2675 21.404V18.352H82.9475V33.5ZM102.155 33.864C105.179 33.864 107.279 32.632 108.735 30.784L105.795 28.348C104.703 29.412 103.695 29.888 102.435 29.888C100.783 29.888 99.5787 29.048 99.1587 27.396H109.295C109.323 27.032 109.323 26.64 109.323 26.304C109.323 21.852 106.915 18.016 101.679 18.016C97.1987 18.016 94.0347 21.516 94.0347 25.94C94.0347 30.7 97.3947 33.864 102.155 33.864ZM99.0747 24.68C99.3547 23.028 100.307 21.936 101.707 21.936C103.163 21.936 104.143 23 104.339 24.68H99.0747ZM119.108 33.864C122.132 33.864 124.232 32.632 125.688 30.784L122.748 28.348C121.656 29.412 120.648 29.888 119.388 29.888C117.736 29.888 116.532 29.048 116.112 27.396H126.248C126.276 27.032 126.276 26.64 126.276 26.304C126.276 21.852 123.868 18.016 118.632 18.016C114.152 18.016 110.988 21.516 110.988 25.94C110.988 30.7 114.348 33.864 119.108 33.864ZM116.028 24.68C116.308 23.028 117.26 21.936 118.66 21.936C120.116 21.936 121.096 23 121.292 24.68H116.028ZM134.689 33.836C136.957 33.836 138.273 32.744 139.309 31.484V33.5H144.629V13.06H139.309V20.2C138.301 19.052 136.957 18.016 134.661 18.016C131.077 18.016 127.997 21.012 127.997 25.94C127.997 30.84 131.105 33.836 134.689 33.836ZM136.313 29.384C134.605 29.384 133.205 27.956 133.205 25.94C133.205 23.868 134.605 22.468 136.313 22.468C138.021 22.468 139.393 23.896 139.393 25.884C139.393 27.956 138.021 29.384 136.313 29.384Z" fill="white"/>
<path d="M147.787 33.5H153.219V28.432L155.207 26.22L160.135 33.5H166.659L158.987 22.328L166.407 13.9H159.967L153.219 21.852V13.9H147.787V33.5Z" fill="#9C71EB"/>
<path d="M175.66 33.864C180.532 33.864 184.06 30.252 184.06 25.94C184.06 21.572 180.56 18.016 175.716 18.016C170.844 18.016 167.316 21.628 167.316 25.94C167.316 30.308 170.816 33.864 175.66 33.864ZM175.716 29.356C173.84 29.356 172.496 27.788 172.496 25.94C172.496 24.064 173.728 22.524 175.66 22.524C177.536 22.524 178.88 24.092 178.88 25.94C178.88 27.816 177.648 29.356 175.716 29.356Z" fill="#FF358A"/>
<path d="M192.439 33.836C194.707 33.836 196.023 32.744 197.059 31.484V33.5H202.379V13.06H197.059V20.2C196.051 19.052 194.707 18.016 192.411 18.016C188.827 18.016 185.747 21.012 185.747 25.94C185.747 30.84 188.855 33.836 192.439 33.836ZM194.063 29.384C192.355 29.384 190.955 27.956 190.955 25.94C190.955 23.868 192.355 22.468 194.063 22.468C195.771 22.468 197.143 23.896 197.143 25.884C197.143 27.956 195.771 29.384 194.063 29.384Z" fill="#0167FF"/>
</svg>
