<svg width="20" height="21" viewBox="0 0 20 21" fill="none" xmlns="http://www.w3.org/2000/svg">
<path d="M2.69727 10.0742C2.36914 10.5078 2.1875 11.0391 2.1875 11.5918C2.1875 12.4687 2.67773 13.2988 3.4668 13.7617C3.66993 13.8809 3.90122 13.9436 4.13672 13.9434L8.82031 13.9434L8.70313 16.3437C8.67578 16.9238 8.88086 17.4746 9.2793 17.8945C9.47483 18.1015 9.71074 18.2662 9.97243 18.3784C10.2341 18.4906 10.516 18.5479 10.8008 18.5469C11.8164 18.5469 12.7148 17.8633 12.9844 16.8848L14.6621 10.8105L14.668 10.8105L14.668 2.45119L5.44336 2.45119C5.26367 2.45119 5.08789 2.48634 4.92578 2.55665C3.9961 2.95314 3.39649 3.86134 3.39649 4.86915C3.39649 5.11524 3.43164 5.35743 3.50195 5.59181C3.17383 6.0254 2.99219 6.55665 2.99219 7.10938C2.99219 7.35547 3.02734 7.59766 3.09766 7.83204C2.76953 8.26563 2.58789 8.79688 2.58789 9.34961C2.5918 9.5957 2.62695 9.83984 2.69727 10.0742ZM17.8125 10.1855L17.8125 3.07619C17.8125 2.73048 17.5332 2.45119 17.1875 2.45119L15.918 2.45119L15.918 10.8105L17.1875 10.8105C17.5332 10.8105 17.8125 10.5312 17.8125 10.1855Z" fill="#FF358A"/>
</svg>
