<svg width="16" height="16" viewBox="0 0 16 16" fill="none" xmlns="http://www.w3.org/2000/svg">
<path d="M13.8422 8.33903C14.1047 7.99216 14.25 7.56716 14.25 7.12497C14.25 6.42341 13.8578 5.75935 13.2266 5.38904C13.0641 5.29372 12.879 5.24355 12.6906 5.24373H8.94375L9.0375 3.32342C9.05938 2.85936 8.89531 2.41874 8.57656 2.0828C8.42013 1.91722 8.23141 1.78548 8.02206 1.69571C7.8127 1.60595 7.58716 1.56008 7.35938 1.56092C6.54688 1.56092 5.82812 2.1078 5.6125 2.89061L4.27031 7.74997H2.25C1.97344 7.74997 1.75 7.97341 1.75 8.24997V13.9375C1.75 14.214 1.97344 14.4375 2.25 14.4375H11.6453C11.7891 14.4375 11.9297 14.4093 12.0594 14.3531C12.8031 14.0359 13.2828 13.3093 13.2828 12.5031C13.2828 12.3062 13.2547 12.1125 13.1984 11.925C13.4609 11.5781 13.6062 11.1531 13.6062 10.7109C13.6062 10.514 13.5781 10.3203 13.5219 10.1328C13.7844 9.7859 13.9297 9.36091 13.9297 8.91872C13.9266 8.72184 13.8984 8.52653 13.8422 8.33903ZM2.875 13.3125V8.87497H4.14062V13.3125H2.875ZM12.8188 7.79685L12.4766 8.09372L12.6938 8.4906C12.7653 8.62133 12.8024 8.76813 12.8016 8.91716C12.8016 9.17497 12.6891 9.42028 12.4953 9.58903L12.1531 9.8859L12.3703 10.2828C12.4419 10.4135 12.479 10.5603 12.4781 10.7093C12.4781 10.9672 12.3656 11.2125 12.1719 11.3812L11.8297 11.6781L12.0469 12.075C12.1184 12.2057 12.1555 12.3525 12.1547 12.5015C12.1547 12.8515 11.9484 13.1671 11.6297 13.3109H5.14062V8.82497L6.69531 3.19217C6.7354 3.0478 6.82146 2.92042 6.94044 2.82935C7.05943 2.73828 7.20485 2.68848 7.35469 2.68748C7.47344 2.68748 7.59062 2.72186 7.68437 2.79217C7.83906 2.9078 7.92188 3.0828 7.9125 3.26873L7.7625 6.36873H12.675C12.9531 6.53904 13.125 6.82654 13.125 7.12497C13.125 7.38279 13.0125 7.62653 12.8188 7.79685Z" fill="#9191AC"/>
</svg>
