<svg width="16" height="16" viewBox="0 0 16 16" fill="none" xmlns="http://www.w3.org/2000/svg">
<path fill-rule="evenodd" clip-rule="evenodd" d="M7.92473 9.60932L8 9.60935L8.16839 9.60991C9.45545 9.61839 12.3967 9.74841 12.3967 11.742C12.3967 13.7225 9.55798 13.8516 8.18845 13.8601L7.68105 13.8601C6.39392 13.8516 3.45206 13.7217 3.45206 11.7307C3.45206 9.74767 6.39392 9.61835 7.68105 9.60991L7.84945 9.60935C7.87557 9.60932 7.90068 9.60932 7.92473 9.60932ZM7.92473 10.6093C6.34073 10.6093 4.45206 10.804 4.45206 11.7307C4.45206 12.6364 6.228 12.8481 7.77995 12.8601L7.92473 12.8607C9.50873 12.8607 11.3967 12.6667 11.3967 11.742C11.3967 10.806 9.50873 10.6093 7.92473 10.6093ZM13.2271 9.33879C14.8425 9.58079 15.1818 10.3395 15.1818 10.9335C15.1818 11.2961 15.0391 11.9581 14.0858 12.3215C14.0271 12.3435 13.9671 12.3541 13.9078 12.3541C13.7065 12.3541 13.5165 12.2315 13.4405 12.0321C13.3418 11.7741 13.4718 11.4848 13.7298 11.3868C14.1818 11.2148 14.1818 11.0248 14.1818 10.9335C14.1818 10.6415 13.8105 10.4375 13.0785 10.3281C12.8058 10.2868 12.6171 10.0328 12.6578 9.75879C12.6985 9.48546 12.9518 9.30346 13.2271 9.33879ZM3.19099 9.75879C3.23166 10.0328 3.04299 10.2868 2.77033 10.3281C2.03833 10.4375 1.66699 10.6415 1.66699 10.9335C1.66699 11.0248 1.66699 11.2141 2.11966 11.3868C2.37766 11.4848 2.50766 11.7741 2.40899 12.0321C2.33299 12.2315 2.14299 12.3541 1.94166 12.3541C1.88233 12.3541 1.82233 12.3435 1.76366 12.3215C0.809659 11.9575 0.666992 11.2955 0.666992 10.9335C0.666992 10.3401 1.00633 9.58079 2.62233 9.33879C2.89766 9.30412 3.14966 9.48546 3.19099 9.75879ZM7.92473 2.66666C9.60473 2.66666 10.9707 4.03332 10.9707 5.71266C10.9707 7.39199 9.60473 8.75866 7.92473 8.75866H7.90673C7.09339 8.75599 6.33139 8.43732 5.76073 7.86132C5.18873 7.28599 4.87606 6.52199 4.87937 5.71066C4.87937 4.03332 6.24539 2.66666 7.92473 2.66666ZM7.92473 3.66666C6.79673 3.66666 5.87938 4.58466 5.87938 5.71266C5.87739 6.25932 6.08673 6.77066 6.47006 7.15666C6.85339 7.54266 7.36406 7.75666 7.90806 7.75866L7.92473 8.25866V7.75866C9.05273 7.75866 9.97073 6.84132 9.97073 5.71266C9.97073 4.58466 9.05273 3.66666 7.92473 3.66666ZM12.0507 3.31966C13.2227 3.51232 14.0741 4.51499 14.0741 5.70366C14.0714 6.90032 13.1774 7.92699 11.9941 8.09299C11.9707 8.09632 11.9474 8.09766 11.9247 8.09766C11.6794 8.09766 11.4654 7.91699 11.4301 7.66699C11.3921 7.39299 11.5821 7.14032 11.8561 7.10232C12.5494 7.00499 13.0727 6.40366 13.0741 5.70232C13.0741 5.00699 12.5754 4.41899 11.8881 4.30632C11.6161 4.26166 11.4314 4.00432 11.4761 3.73166C11.5214 3.45899 11.7767 3.27632 12.0507 3.31966ZM4.37339 3.73166C4.41806 4.00432 4.23339 4.26166 3.96139 4.30632C3.27406 4.41899 2.77539 5.00699 2.77539 5.70366C2.77673 6.40366 3.30006 7.00566 3.99273 7.10232C4.26673 7.14032 4.45673 7.39299 4.41873 7.66699C4.38339 7.91699 4.16939 8.09766 3.92406 8.09766C3.90139 8.09766 3.87806 8.09632 3.85473 8.09299C2.67139 7.92699 1.77806 6.90032 1.77539 5.70499C1.77539 4.51499 2.62673 3.51232 3.79873 3.31966C4.07939 3.27566 4.32806 3.46032 4.37339 3.73166Z" fill="#9191AC"/>
</svg>
