<svg width="16" height="16" viewBox="0 0 16 16" fill="none" xmlns="http://www.w3.org/2000/svg">
<path fill-rule="evenodd" clip-rule="evenodd" d="M8.00016 1.33334C11.6762 1.33334 14.6668 4.32401 14.6668 8.00001C14.6668 11.676 11.6762 14.6667 8.00016 14.6667C4.32416 14.6667 1.3335 11.676 1.3335 8.00001C1.3335 4.32401 4.32416 1.33334 8.00016 1.33334ZM8.00016 2.33334C4.8755 2.33334 2.3335 4.87534 2.3335 8.00001C2.3335 11.1247 4.8755 13.6667 8.00016 13.6667C11.1248 13.6667 13.6668 11.1247 13.6668 8.00001C13.6668 4.87534 11.1248 2.33334 8.00016 2.33334ZM7.7743 4.73028C8.05096 4.73028 8.2743 4.95428 8.2743 5.23028V8.17828L10.5443 9.53161C10.781 9.67361 10.859 9.98028 10.7176 10.2176C10.6236 10.3743 10.4576 10.4616 10.2876 10.4616C10.2003 10.4616 10.1123 10.4389 10.0316 10.3916L7.5183 8.89228C7.36763 8.80161 7.2743 8.63828 7.2743 8.46228V5.23028C7.2743 4.95428 7.4983 4.73028 7.7743 4.73028Z" fill="#9191AC"/>
</svg>
