<svg width="20" height="21" viewBox="0 0 20 21" fill="none" xmlns="http://www.w3.org/2000/svg">
<path d="M17.3027 10.9238C17.6309 10.4902 17.8125 9.95899 17.8125 9.40625C17.8125 8.5293 17.3223 7.69922 16.5332 7.23633C16.3301 7.11718 16.0988 7.05447 15.8633 7.05469H11.1797L11.2969 4.65431C11.3242 4.07423 11.1191 3.52345 10.7207 3.10353C10.5252 2.89655 10.2893 2.73188 10.0276 2.61967C9.76588 2.50747 9.48395 2.45013 9.19922 2.45119C8.18359 2.45119 7.28516 3.13478 7.01562 4.11329L5.33789 10.1875H5.33203V18.5469H14.5566C14.7363 18.5469 14.9121 18.5117 15.0742 18.4414C16.0039 18.0449 16.6035 17.1367 16.6035 16.1289C16.6035 15.8828 16.5684 15.6406 16.498 15.4062C16.8262 14.9726 17.0078 14.4414 17.0078 13.8887C17.0078 13.6426 16.9727 13.4004 16.9023 13.166C17.2305 12.7324 17.4121 12.2012 17.4121 11.6484C17.4082 11.4023 17.373 11.1582 17.3027 10.9238ZM2.1875 10.8125V17.9219C2.1875 18.2676 2.4668 18.5469 2.8125 18.5469H4.08203V10.1875H2.8125C2.4668 10.1875 2.1875 10.4668 2.1875 10.8125Z" fill="#18AA88"/>
</svg>
