<svg width="143" height="142" viewBox="0 0 143 142" fill="none" xmlns="http://www.w3.org/2000/svg">
<path d="M71.4994 0.166992C110.54 0.166992 142.333 31.9446 142.333 71.0413C142.333 110.056 110.54 141.834 71.4994 141.834C32.459 141.834 0.666016 110.056 0.666016 71.0413C0.666016 31.9446 32.459 0.166992 71.4994 0.166992ZM63.4315 42.8788C61.9273 42.8788 60.4915 43.2205 59.124 43.9039C57.4147 44.8607 56.0473 46.3641 55.2952 48.1409C54.8166 49.3711 54.0645 53.0614 54.0645 53.1297C53.3124 57.1617 52.9022 63.7222 52.9022 70.9662C52.9022 77.8752 53.3124 84.1556 53.9278 88.2559C53.9961 88.3243 54.7482 92.903 55.5687 94.4748C57.0729 97.345 60.0129 99.1218 63.158 99.1218H63.4315C65.4826 99.0535 69.7901 97.2767 69.7901 97.2083C77.0375 94.2014 91.3272 84.839 97.0705 78.6201L97.4807 78.2101C98.2328 77.4584 99.19 76.2966 99.3951 76.0232C100.489 74.5881 101.036 72.8113 101.036 71.0413C101.036 69.0527 100.421 67.2075 99.2584 65.7041C98.9849 65.4307 97.9593 64.269 97.0021 63.3122C91.3956 57.2984 76.764 47.4576 69.1063 44.4506C67.944 43.9791 65.004 42.9472 63.4315 42.8788Z" fill="white"/>
</svg>
