<svg width="72" height="50" viewBox="0 0 72 50" fill="none" xmlns="http://www.w3.org/2000/svg">
<g clip-path="url(#clip0)">
<path d="M69.5406 7.79861C69.1327 6.29127 68.3371 4.91707 67.2329 3.81286C66.1288 2.70864 64.7546 1.91295 63.2473 1.505C57.7289 0 35.5195 0 35.5195 0C35.5195 0 13.3089 0.0455554 7.79061 1.55056C6.28325 1.95853 4.90906 2.75427 3.8049 3.85853C2.70073 4.96279 1.90511 6.33705 1.49728 7.84444C-0.171891 17.6494 -0.819391 32.59 1.54311 42.0028C1.95099 43.5101 2.74663 44.8843 3.85079 45.9885C4.95495 47.0927 6.32911 47.8884 7.83644 48.2964C13.3548 49.8014 35.5648 49.8014 35.5648 49.8014C35.5648 49.8014 57.7745 49.8014 63.2926 48.2964C64.7999 47.8885 66.1742 47.0928 67.2784 45.9886C68.3826 44.8844 69.1783 43.5102 69.5862 42.0028C71.3467 32.1839 71.8892 17.2528 69.5406 7.79889V7.79861Z" fill="#FF0000"/>
<path d="M28.4497 35.5722L46.8744 24.9005L28.45 14.2289L28.4497 35.5722Z" fill="white"/>
</g>
<defs>
<clipPath id="clip0">
<rect width="71.1111" height="50" fill="white"/>
</clipPath>
</defs>
</svg>
