<svg width="13" height="13" viewBox="0 0 13 13" fill="none" xmlns="http://www.w3.org/2000/svg">
<path d="M5.51555 8.81539C5.48655 8.78714 5.36255 8.68047 5.26055 8.5811C4.61905 7.99854 3.56905 6.47881 3.24855 5.68339C3.19705 5.56259 3.08805 5.25718 3.08105 5.09401C3.08105 4.93765 3.11705 4.7886 3.19005 4.64637C3.29205 4.46907 3.45255 4.32684 3.64205 4.2489C3.77355 4.19873 4.16705 4.1208 4.17405 4.1208C4.60455 4.04286 5.30405 4 6.07705 4C6.81355 4 7.48455 4.04286 7.92155 4.10667C7.92855 4.11398 8.41755 4.19191 8.58505 4.27716C8.89106 4.43351 9.08105 4.73892 9.08105 5.06576V5.09401C9.07355 5.30687 8.88355 5.75451 8.87655 5.75451C8.55555 6.50706 7.55705 7.99172 6.89355 8.58841C6.89355 8.58841 6.72305 8.75645 6.61655 8.82952C6.46355 8.9435 6.27405 9 6.08455 9C5.87305 9 5.67605 8.93619 5.51555 8.81539Z" fill="#0167FF"/>
</svg>
