<svg width="30" height="30" viewBox="0 0 30 30" fill="none" xmlns="http://www.w3.org/2000/svg">
<path d="M12.3678 18.1051C12.3678 17.6919 12.1139 17.3381 11.7539 17.1905H0.613839C0.253839 17.3382 0 17.6919 0 18.1051C0 21.5194 2.77404 24.2971 6.18394 24.2971C9.59374 24.2971 12.3678 21.5194 12.3678 18.1051Z" fill="#FF358A"/>
<path d="M29.3867 17.1905H18.2466C17.8867 17.3381 17.6328 17.6919 17.6328 18.1051C17.6328 21.5194 20.4069 24.2971 23.8167 24.2971C27.2266 24.2971 30.0007 21.5194 30.0007 18.1051C30.0006 17.6919 29.7467 17.3382 29.3867 17.1905Z" fill="#FF358A"/>
<path d="M19.8912 27.0563H15.9876V7.83535H22.3168L18.9428 15.7082H21.0931L23.8155 9.35576L26.5379 15.7082H28.6882L25.1555 7.46535C25.9205 7.00778 26.4342 6.17111 26.4342 5.21657C26.4342 3.77252 25.2594 2.59778 23.8154 2.59778C23.2697 2.59778 22.8272 3.0403 22.8272 3.58596C22.8272 4.13161 23.2697 4.57414 23.8154 4.57414C24.1696 4.57414 24.4577 4.86242 24.4577 5.21646C24.4577 5.57061 24.1695 5.85879 23.8154 5.85879H15.9875V1.95545C15.9875 1.4098 15.5451 0.96727 14.9993 0.96727C14.4536 0.96727 14.0112 1.4098 14.0112 1.95545V5.85899H6.18338C5.82913 5.85899 5.54105 5.57071 5.54105 5.21667C5.54105 4.86252 5.82923 4.57434 6.18338 4.57434C6.72903 4.57434 7.17156 4.13182 7.17156 3.58616C7.17156 3.0405 6.72903 2.59798 6.18338 2.59798C4.73933 2.59798 3.56459 3.77273 3.56459 5.21677C3.56459 6.17131 4.07822 7.00788 4.84327 7.46556L1.31055 15.7084H3.46085L6.18327 9.35596L8.9057 15.7084H11.056L7.68206 7.83535H14.0113V27.0563H10.1078C9.56206 27.0563 9.11964 27.4987 9.11964 28.0445C9.11964 28.5901 9.56206 29.0326 10.1078 29.0326H19.8912C20.4369 29.0326 20.8793 28.5901 20.8793 28.0445C20.8793 27.4987 20.4369 27.0563 19.8912 27.0563Z" fill="#FF358A"/>
</svg>
