<svg width="23" height="24" viewBox="0 0 23 24" fill="none" xmlns="http://www.w3.org/2000/svg">
<path d="M14.9944 21.6451H11.8715V6.26839H16.9349L14.2357 12.5667H15.9559L18.1338 7.48472L20.3118 12.5667H22.032L19.2058 5.97239C19.8179 5.60633 20.2288 4.937 20.2288 4.17336C20.2288 3.01813 19.289 2.07833 18.1338 2.07833C17.6972 2.07833 17.3432 2.43235 17.3432 2.86888C17.3432 3.3054 17.6972 3.65942 18.1338 3.65942C18.4172 3.65942 18.6476 3.89005 18.6476 4.17328C18.6476 4.45659 18.4171 4.68714 18.1338 4.68714H11.8715V1.56447C11.8715 1.12795 11.5175 0.773926 11.0809 0.773926C10.6443 0.773926 10.2904 1.12795 10.2904 1.56447V4.6873H4.02815C3.74475 4.6873 3.51429 4.45668 3.51429 4.17344C3.51429 3.89013 3.74483 3.65958 4.02815 3.65958C4.46467 3.65958 4.81869 3.30556 4.81869 2.86904C4.81869 2.43251 4.46467 2.07849 4.02815 2.07849C2.87291 2.07849 1.93312 3.01829 1.93312 4.17352C1.93312 4.93716 2.34402 5.60641 2.95606 5.97255L0.129883 12.5668H1.85013L4.02806 7.48488L6.206 12.5668H7.92625L5.22709 6.26839H10.2904V21.6451H7.1677C6.7311 21.6451 6.37716 21.9991 6.37716 22.4357C6.37716 22.8722 6.7311 23.2262 7.1677 23.2262H14.9944C15.431 23.2262 15.7849 22.8722 15.7849 22.4357C15.7849 21.9991 15.431 21.6451 14.9944 21.6451Z" fill="#D3D3FF"/>
</svg>
