<svg width="21" height="21" viewBox="0 0 21 21" fill="none" xmlns="http://www.w3.org/2000/svg">
<path fill-rule="evenodd" clip-rule="evenodd" d="M9.93859 1.9162C14.4136 1.9162 18.0536 5.5562 18.0536 10.0312C18.0536 12.1425 17.2434 14.0681 15.9175 15.5133L18.5264 18.1168C18.7706 18.3609 18.7714 18.7559 18.5273 19.0001C18.4056 19.1234 18.2448 19.1843 18.0848 19.1843C17.9256 19.1843 17.7656 19.1234 17.6431 19.0018L15.0026 16.3687C13.6136 17.4811 11.8525 18.147 9.93859 18.147C5.46359 18.147 1.82275 14.5062 1.82275 10.0312C1.82275 5.5562 5.46359 1.9162 9.93859 1.9162ZM9.93859 3.1662C6.15275 3.1662 3.07275 6.24537 3.07275 10.0312C3.07275 13.817 6.15275 16.897 9.93859 16.897C13.7236 16.897 16.8036 13.817 16.8036 10.0312C16.8036 6.24537 13.7236 3.1662 9.93859 3.1662Z" fill="#2F3144"/>
</svg>
