<svg width="20" height="20" viewBox="0 0 20 20" fill="none" xmlns="http://www.w3.org/2000/svg">
<path d="M9.9999 0.400024C4.6979 0.400024 0.399902 4.69802 0.399902 10C0.399902 15.302 4.6979 19.6 9.9999 19.6C15.3019 19.6 19.5999 15.302 19.5999 10C19.5999 4.69802 15.3019 0.400024 9.9999 0.400024ZM13.6919 11.231C13.6919 11.231 14.5409 12.069 14.7499 12.458C14.7559 12.466 14.7589 12.474 14.7609 12.478C14.8459 12.621 14.8659 12.732 14.8239 12.815C14.7539 12.953 14.5139 13.021 14.4319 13.027H12.9319C12.8279 13.027 12.6099 13 12.3459 12.818C12.1429 12.676 11.9429 12.443 11.7479 12.216C11.4569 11.878 11.2049 11.586 10.9509 11.586C10.9186 11.586 10.8866 11.591 10.8559 11.601C10.6639 11.663 10.4179 11.937 10.4179 12.667C10.4179 12.895 10.2379 13.026 10.1109 13.026H9.4239C9.1899 13.026 7.9709 12.944 6.8909 11.805C5.5689 10.41 4.3789 7.61202 4.3689 7.58602C4.2939 7.40502 4.4489 7.30802 4.6179 7.30802H6.1329C6.3349 7.30802 6.4009 7.43102 6.4469 7.54002C6.5009 7.66702 6.6989 8.17202 7.0239 8.74002C7.5509 9.66602 7.8739 10.042 8.1329 10.042C8.18147 10.0415 8.22917 10.0291 8.2719 10.006C8.6099 9.81802 8.5469 8.61302 8.5319 8.36302C8.5319 8.31602 8.5309 7.82402 8.3579 7.58802C8.2339 7.41702 8.0229 7.35202 7.8949 7.32802C7.94671 7.25654 8.01497 7.19857 8.0939 7.15902C8.3259 7.04302 8.7439 7.02602 9.1589 7.02602H9.3899C9.8399 7.03202 9.9559 7.06102 10.1189 7.10202C10.4489 7.18102 10.4559 7.39402 10.4269 8.12302C10.4179 8.33002 10.4089 8.56402 10.4089 8.84002C10.4089 8.90003 10.4059 8.96402 10.4059 9.03202C10.3959 9.40302 10.3839 9.82402 10.6459 9.99702C10.6801 10.0185 10.7196 10.0299 10.7599 10.03C10.8509 10.03 11.1249 10.03 11.8669 8.75702C12.0957 8.34728 12.2946 7.9215 12.4619 7.48302C12.4769 7.45702 12.5209 7.37702 12.5729 7.34602C12.6113 7.32646 12.6538 7.31651 12.6969 7.31702H14.4779C14.6719 7.31702 14.8049 7.34602 14.8299 7.42102C14.8739 7.54002 14.8219 7.90302 14.0089 9.00402L13.6459 9.48302C12.9089 10.449 12.9089 10.498 13.6919 11.231Z" fill="#2D9CDB"/>
</svg>
